<svg xmlns="http://www.w3.org/2000/svg" viewBox="0 0 491.82 317.54"><title>backer_graphic-final</title><g id="Layer_2" data-name="Layer 2"><g id="Layer_1-2" data-name="Layer 1"><g style="isolation:isolate"><g style="isolation:isolate"><path d="M98.24,315.65H92.41v-5.83h5.83Z" style="fill:#58595b"/></g><g style="isolation:isolate"><path d="M105.62,314.16c-.06,1-.77,1.57-2,1.57a1.92,1.92,0,0,1-1.7-.74,2.82,2.82,0,0,1-.37-1.71V312a2.54,2.54,0,0,1,.47-1.81,1.89,1.89,0,0,1,1.6-.64c1.23,0,1.9.55,2,1.6l-.83.06a1,1,0,0,0-1.1-.93c-.87,0-1.2.49-1.2,1.77v1.15c0,1.29.33,1.77,1.2,1.77a1,1,0,0,0,1.16-.93Z" style="fill:#58595b"/></g><g style="isolation:isolate"><path d="M106.74,313.19c0-1.31.55-1.89,1.81-1.89s1.8.58,1.8,1.89v.65c0,1.31-.56,1.89-1.8,1.89s-1.81-.58-1.81-1.89Zm2.75.05c0-.87-.29-1.26-.95-1.26s-.94.39-.94,1.26v.54c0,.88.28,1.26.94,1.26s.95-.38.95-1.26Z" style="fill:#58595b"/></g><g style="isolation:isolate"><path d="M111.56,311.38h.66l.09.36a1.07,1.07,0,0,1,1-.44,1.62,1.62,0,0,1,.87.24l-.37.71a.92.92,0,0,0-.58-.22c-.55,0-.78.46-.78,1.54v2.08h-.85Z" style="fill:#58595b"/></g><g style="isolation:isolate"><path d="M115,311.38h.66l.08.32a1.59,1.59,0,0,1,1.18-.4c1.12,0,1.61.58,1.61,1.89v.64c0,1.32-.49,1.9-1.61,1.9a1.67,1.67,0,0,1-1.07-.33v2.14H115Zm2.68,1.87c0-.86-.29-1.27-.91-1.27s-.92.38-.92,1.15v.77c0,.77.31,1.14.92,1.14s.91-.4.91-1.27Z" style="fill:#58595b"/><path d="M119.61,313.19c0-1.31.55-1.89,1.8-1.89s1.8.58,1.8,1.89v.65c0,1.31-.55,1.89-1.8,1.89s-1.8-.58-1.8-1.89Zm2.75.05c0-.87-.29-1.26-1-1.26s-1,.39-1,1.26v.54c0,.88.29,1.26,1,1.26s1-.38,1-1.26Z" style="fill:#58595b"/></g><g style="isolation:isolate"><path d="M124.43,311.38h.66l.1.36a1.07,1.07,0,0,1,1-.44,1.59,1.59,0,0,1,.86.24l-.37.71a.92.92,0,0,0-.58-.22c-.55,0-.77.46-.77,1.54v2.08h-.86Z" style="fill:#58595b"/></g><g style="isolation:isolate"><path d="M130.08,312.87c0-.63-.25-.89-.83-.89a1.23,1.23,0,0,0-.95.43l-.58-.43a1.89,1.89,0,0,1,1.61-.68,1.49,1.49,0,0,1,1.44.67,2.17,2.17,0,0,1,.17,1v2.64h-.69l-.05-.28a1.5,1.5,0,0,1-1.21.36c-1.07,0-1.47-.34-1.47-1.3s.41-1.32,1.62-1.32h.94Zm-.85.85c-.65,0-.89.19-.89.69s.22.65.86.65c.41,0,.64-.07.78-.25a.92.92,0,0,0,.1-.54v-.55Z" style="fill:#58595b"/></g><g style="isolation:isolate"><path d="M131.89,312.07v-.69h.49l0-1.3h.82v1.3h.84v.69h-.84v2.07c0,.62.17.82.72.8h.14v.71H134c-1.28,0-1.57-.29-1.57-1.6v-2Z" style="fill:#58595b"/></g><g style="isolation:isolate"><path d="M135.82,313.87c0,.77.37,1.18,1.06,1.18a1,1,0,0,0,.93-.43l.63.38a1.74,1.74,0,0,1-1.64.73c-1.27,0-1.84-.62-1.84-2v-.33c0-1.46.53-2.08,1.79-2.08s1.78.62,1.78,2.08v.34h-2.71Zm1.89-.77V313c0-.69-.33-1.06-.94-1.06a.8.8,0,0,0-.78.38,1.44,1.44,0,0,0-.17.69v.07Z" style="fill:#58595b"/></g><g style="isolation:isolate"><path d="M161.91,315.65h-5.83v-5.83h5.83Z" style="fill:#17bfd6"/></g><g style="isolation:isolate"><path d="M165.34,309.65h.9v6h-.9Z" style="fill:#58595b"/><path d="M167.72,311.38h.66l.07.43a1.29,1.29,0,0,1,1.17-.51,1.33,1.33,0,0,1,1.42.82,3.17,3.17,0,0,1,.13,1.08v2.45h-.86V313.3c0-.91-.23-1.27-.84-1.27s-.89.39-.89,1.43v2.19h-.86Z" style="fill:#58595b"/><path d="M175.17,315.32l0,0-.11.11a1.8,1.8,0,0,1-1,.26c-1.13,0-1.62-.57-1.62-1.9v-.64c0-1.31.49-1.89,1.6-1.89a1.86,1.86,0,0,1,.84.17l.23.18v-2h.86v6h-.66Zm-2-1.55c0,.87.29,1.27.91,1.27s.91-.37.91-1.14v-.77c0-.77-.3-1.15-.91-1.15s-.91.41-.91,1.27Z" style="fill:#58595b"/></g><g style="isolation:isolate"><path d="M177.25,309.6h.85v1h-.85Zm0,1.78h.85v4.27h-.85Z" style="fill:#58595b"/></g><g style="isolation:isolate"><path d="M179.05,311.38h.87l1,3.2,1-3.2h.87l-1.51,4.27h-.8Z" style="fill:#58595b"/></g><g style="isolation:isolate"><path d="M183.83,309.6h.85v1h-.85Zm0,1.78h.85v4.27h-.85Z" style="fill:#58595b"/><path d="M188.72,315.32l-.05,0-.11.11a1.8,1.8,0,0,1-1,.26c-1.13,0-1.62-.57-1.62-1.9v-.64c0-1.31.49-1.89,1.6-1.89a1.88,1.88,0,0,1,.84.17l.23.18v-2h.86v6h-.67Zm-2-1.55c0,.87.28,1.27.91,1.27s.91-.37.91-1.14v-.77c0-.77-.3-1.15-.91-1.15s-.91.41-.91,1.27Z" style="fill:#58595b"/><path d="M191.62,311.38v2.36c0,.9.23,1.26.8,1.26s.84-.39.84-1.44v-2.18h.86v4.27h-.62l-.1-.44a1.16,1.16,0,0,1-1.12.52,1.29,1.29,0,0,1-1.39-.82,3.44,3.44,0,0,1-.13-1.08v-2.45Z" style="fill:#58595b"/><path d="M197.73,312.87c0-.63-.25-.89-.83-.89a1.23,1.23,0,0,0-1,.43l-.58-.43a1.89,1.89,0,0,1,1.61-.68,1.49,1.49,0,0,1,1.44.67,2.17,2.17,0,0,1,.17,1v2.64h-.68l-.06-.28a1.5,1.5,0,0,1-1.21.36c-1.07,0-1.47-.34-1.47-1.3s.41-1.32,1.62-1.32h.94Zm-.85.85c-.65,0-.89.19-.89.69s.22.65.86.65c.41,0,.64-.07.78-.25a.92.92,0,0,0,.1-.54v-.55Z" style="fill:#58595b"/><path d="M200.76,309.65v4.49c0,.62.17.81.73.81h.19v.7h-.22c-1.25,0-1.56-.32-1.56-1.6v-4.4Z" style="fill:#58595b"/><path d="M202.57,314.62a1.16,1.16,0,0,0,1.06.43c.65,0,1-.21,1-.63a.45.45,0,0,0-.26-.45,1.8,1.8,0,0,0-.74-.15,2,2,0,0,1-1.07-.35,1.07,1.07,0,0,1-.35-.86c0-.85.52-1.31,1.48-1.31a1.71,1.71,0,0,1,1.6.74l-.63.37a1,1,0,0,0-.9-.43c-.48,0-.74.21-.74.58a.46.46,0,0,0,.24.42,1.52,1.52,0,0,0,.6.15,2.4,2.4,0,0,1,1.2.33,1.15,1.15,0,0,1,.39,1c0,.87-.58,1.29-1.75,1.29A1.88,1.88,0,0,1,202,315Z" style="fill:#58595b"/><path d="M210.4,312.87c0-.63-.25-.89-.84-.89a1.23,1.23,0,0,0-.94.43L208,312a1.91,1.91,0,0,1,1.62-.68,1.46,1.46,0,0,1,1.43.67,2.05,2.05,0,0,1,.17,1v2.64h-.68l-.06-.28a1.49,1.49,0,0,1-1.2.36c-1.08,0-1.47-.34-1.47-1.3s.4-1.32,1.61-1.32h1Zm-.85.85c-.65,0-.89.19-.89.69s.21.65.86.65c.4,0,.64-.07.77-.25a.83.83,0,0,0,.11-.54v-.55Z" style="fill:#58595b"/><path d="M212.58,311.38h.65l.07.43a1.3,1.3,0,0,1,1.17-.51,1.34,1.34,0,0,1,1.43.82,3.51,3.51,0,0,1,.12,1.08v2.45h-.85V313.3c0-.91-.24-1.27-.84-1.27s-.89.39-.89,1.43v2.19h-.86Z" style="fill:#58595b"/><path d="M220,315.32l-.05,0-.11.11a1.76,1.76,0,0,1-1,.26c-1.14,0-1.63-.57-1.63-1.9v-.64c0-1.31.49-1.89,1.6-1.89a1.83,1.83,0,0,1,.84.17l.24.18v-2h.86v6h-.67Zm-2-1.55c0,.87.29,1.27.91,1.27s.92-.37.92-1.14v-.77c0-.77-.3-1.15-.92-1.15s-.91.41-.91,1.27Z" style="fill:#58595b"/></g><g style="isolation:isolate"><path d="M223.92,309.65h3.56v.74h-2.66v1.9h2.25V313h-2.25v2.62h-.9Z" style="fill:#58595b"/></g><g style="isolation:isolate"><path d="M230.49,312.87c0-.63-.25-.89-.84-.89a1.23,1.23,0,0,0-.94.43l-.59-.43a1.91,1.91,0,0,1,1.62-.68,1.49,1.49,0,0,1,1.44.67,2.19,2.19,0,0,1,.16,1v2.64h-.68l-.06-.28a1.49,1.49,0,0,1-1.2.36c-1.07,0-1.47-.34-1.47-1.3s.4-1.32,1.61-1.32h1Zm-.85.85c-.65,0-.89.19-.89.69s.21.65.86.65c.41,0,.64-.07.78-.25a.92.92,0,0,0,.1-.54v-.55Z" style="fill:#58595b"/><path d="M232.67,311.38h.65l.07.42a1.16,1.16,0,0,1,1.08-.5,1.26,1.26,0,0,1,1.2.62,1.24,1.24,0,0,1,1.22-.62,1.26,1.26,0,0,1,1.37.82,3.51,3.51,0,0,1,.12,1.08v2.45h-.86v-2.36c0-.9-.22-1.26-.77-1.26s-.79.4-.79,1.4v2.22h-.86V313.3c0-.92-.21-1.27-.77-1.27s-.8.39-.8,1.43v2.19h-.86Z" style="fill:#58595b"/><path d="M239.71,309.6h.85v1h-.85Zm0,1.78h.85v4.27h-.85Z" style="fill:#58595b"/><path d="M242.77,309.65v4.49c0,.62.17.81.74.81h.18v.7h-.22c-1.24,0-1.55-.32-1.55-1.6v-4.4Z" style="fill:#58595b"/><path d="M244.44,309.6h.85v1h-.85Zm0,1.78h.85v4.27h-.85Z" style="fill:#58595b"/></g><g style="isolation:isolate"><path d="M247.38,313.87c0,.77.37,1.18,1.06,1.18a1,1,0,0,0,.92-.43l.64.38a1.74,1.74,0,0,1-1.64.73c-1.27,0-1.84-.62-1.84-2v-.33c0-1.46.53-2.08,1.78-2.08s1.79.62,1.79,2.08v.34h-2.71Zm1.89-.77V313c0-.69-.33-1.06-.94-1.06a.8.8,0,0,0-.78.38,1.44,1.44,0,0,0-.17.69v.07Z" style="fill:#58595b"/></g><g style="isolation:isolate"><path d="M251.53,314.62a1.16,1.16,0,0,0,1.06.43c.65,0,1-.21,1-.63a.45.45,0,0,0-.26-.45,1.8,1.8,0,0,0-.74-.15,2,2,0,0,1-1.07-.35,1.07,1.07,0,0,1-.35-.86c0-.85.52-1.31,1.48-1.31a1.71,1.71,0,0,1,1.6.74l-.63.37a1,1,0,0,0-.9-.43c-.48,0-.74.21-.74.58a.46.46,0,0,0,.24.42,1.52,1.52,0,0,0,.6.15,2.4,2.4,0,0,1,1.2.33,1.15,1.15,0,0,1,.39,1c0,.87-.58,1.29-1.75,1.29a1.88,1.88,0,0,1-1.72-.73Z" style="fill:#58595b"/></g><g style="isolation:isolate"><path d="M276,315.65h-5.82v-5.83H276Z" style="fill:#185e8e"/></g><g style="isolation:isolate"><path d="M279.56,314.35A1.53,1.53,0,0,0,281,315c.8,0,1.24-.33,1.24-.95a.81.81,0,0,0-.33-.7c-.2-.15-.2-.15-1.07-.36-1.24-.31-1.72-.79-1.72-1.74s.71-1.68,1.91-1.68a2,2,0,0,1,1.82.84l-.67.43a1.34,1.34,0,0,0-1.18-.54c-.64,0-1,.34-1,.9s.31.84,1.29,1.08a3,3,0,0,1,1.25.45,1.42,1.42,0,0,1,.58,1.29c0,1.12-.74,1.72-2.12,1.72a2.25,2.25,0,0,1-2.1-.94Z" style="fill:#58595b"/></g><g style="isolation:isolate"><path d="M283.77,312.07v-.69h.49l0-1.3h.82v1.3H286v.69h-.84v2.07c0,.62.17.82.72.8H286v.71h-.15c-1.28,0-1.57-.29-1.57-1.6v-2Z" style="fill:#58595b"/></g><g style="isolation:isolate"><path d="M289.4,312.87c0-.63-.25-.89-.83-.89a1.23,1.23,0,0,0-.95.43L287,312a1.89,1.89,0,0,1,1.61-.68,1.49,1.49,0,0,1,1.44.67,2.17,2.17,0,0,1,.17,1v2.64h-.69l-.05-.28a1.5,1.5,0,0,1-1.21.36c-1.07,0-1.47-.34-1.47-1.3s.41-1.32,1.62-1.32h.94Zm-.85.85c-.65,0-.89.19-.89.69s.22.65.86.65c.41,0,.64-.07.78-.25a.92.92,0,0,0,.1-.54v-.55Z" style="fill:#58595b"/><path d="M291.25,312.07v-.69h.52v-.58c0-.89.31-1.18,1.3-1.15h.39v.65h-.22c-.51,0-.62.1-.62.58v.5h.75v.69h-.75v3.58h-.85v-3.58Zm2.59,0v-.69h.51v-.58c0-.9.32-1.18,1.31-1.15h.43v.65h-.25c-.52,0-.63.1-.63.58v.5h.94v.69h-.94v3.58h-.86v-3.58Z" style="fill:#58595b"/><path d="M297.74,313.87c0,.77.37,1.18,1.06,1.18a1,1,0,0,0,.92-.43l.64.38a1.74,1.74,0,0,1-1.65.73c-1.27,0-1.83-.62-1.83-2v-.33c0-1.46.53-2.08,1.78-2.08s1.79.62,1.79,2.08v.34h-2.71Zm1.89-.77V313c0-.69-.33-1.06-.94-1.06a.8.8,0,0,0-.78.38,1.33,1.33,0,0,0-.17.69v.07Z" style="fill:#58595b"/><path d="M304.27,315.32l0,0-.1.11a1.8,1.8,0,0,1-1,.26c-1.14,0-1.62-.57-1.62-1.9v-.64c0-1.31.48-1.89,1.59-1.89a1.83,1.83,0,0,1,.84.17l.24.18v-2H305v6h-.67Zm-1.95-1.55c0,.87.28,1.27.9,1.27s.92-.37.92-1.14v-.77c0-.77-.3-1.15-.92-1.15s-.9.41-.9,1.27Z" style="fill:#58595b"/></g><g style="isolation:isolate"><path d="M308.17,309.65h3.56v.74h-2.66v1.9h2.25V313h-2.25v2.62h-.9Z" style="fill:#58595b"/></g><g style="isolation:isolate"><path d="M312.49,313.19c0-1.31.56-1.89,1.81-1.89s1.8.58,1.8,1.89v.65c0,1.31-.56,1.89-1.8,1.89s-1.81-.58-1.81-1.89Zm2.75.05c0-.87-.29-1.26-.95-1.26s-.94.39-.94,1.26v.54c0,.88.28,1.26.94,1.26s.95-.38.95-1.26Z" style="fill:#58595b"/><path d="M318.14,311.38v2.36c0,.9.22,1.26.8,1.26s.84-.39.84-1.44v-2.18h.85v4.27H320l-.09-.44a1.18,1.18,0,0,1-1.13.52,1.31,1.31,0,0,1-1.39-.82,3.51,3.51,0,0,1-.12-1.08v-2.45Z" style="fill:#58595b"/><path d="M322,311.38h.66l.06.43a1.3,1.3,0,0,1,1.17-.51,1.34,1.34,0,0,1,1.43.82,3.17,3.17,0,0,1,.13,1.08v2.45h-.86V313.3c0-.91-.23-1.27-.84-1.27s-.89.39-.89,1.43v2.19H322Z" style="fill:#58595b"/><path d="M329.44,315.32l-.05,0-.11.11a1.8,1.8,0,0,1-1,.26c-1.13,0-1.62-.57-1.62-1.9v-.64c0-1.31.49-1.89,1.6-1.89a1.88,1.88,0,0,1,.84.17l.23.18v-2h.86v6h-.66Zm-2-1.55c0,.87.28,1.27.9,1.27s.92-.37.92-1.14v-.77c0-.77-.3-1.15-.92-1.15s-.9.41-.9,1.27Z" style="fill:#58595b"/><path d="M333.77,312.87c0-.63-.24-.89-.83-.89a1.2,1.2,0,0,0-.94.43l-.59-.43a1.9,1.9,0,0,1,1.61-.68,1.48,1.48,0,0,1,1.44.67,2.05,2.05,0,0,1,.17,1v2.64H334l-.06-.28a1.49,1.49,0,0,1-1.2.36c-1.08,0-1.48-.34-1.48-1.3s.41-1.32,1.62-1.32h.94Zm-.85.85c-.65,0-.89.19-.89.69s.22.65.87.65c.4,0,.64-.07.77-.25s.1-.23.1-.54v-.55Z" style="fill:#58595b"/></g><g style="isolation:isolate"><path d="M335.59,312.07v-.69h.49l0-1.3h.82v1.3h.84v.69h-.84v2.07c0,.62.17.82.72.8h.14v.71h-.15c-1.28,0-1.57-.29-1.57-1.6v-2Z" style="fill:#58595b"/></g><g style="isolation:isolate"><path d="M338.83,309.6h.86v1h-.86Zm0,1.78h.86v4.27h-.86Z" style="fill:#58595b"/><path d="M340.92,313.19c0-1.31.55-1.89,1.8-1.89s1.8.58,1.8,1.89v.65c0,1.31-.55,1.89-1.8,1.89s-1.8-.58-1.8-1.89Zm2.75.05c0-.87-.29-1.26-1-1.26s-.94.39-.94,1.26v.54c0,.88.29,1.26.94,1.26s1-.38,1-1.26Z" style="fill:#58595b"/><path d="M345.74,311.38h.65l.07.43a1.3,1.3,0,0,1,1.17-.51,1.34,1.34,0,0,1,1.43.82,3.51,3.51,0,0,1,.12,1.08v2.45h-.85V313.3c0-.91-.24-1.27-.84-1.27s-.89.39-.89,1.43v2.19h-.86Z" style="fill:#58595b"/></g><g style="isolation:isolate"><path d="M376.1,315.65h-5.83v-5.83h5.83Z" style="fill:#c33d28"/></g><g style="isolation:isolate"><path d="M379.38,311.92a2.31,2.31,0,0,1,.5-1.73,2,2,0,0,1,1.67-.63,2,2,0,0,1,1.75.73,2.47,2.47,0,0,1,.41,1.63v1.46a2.26,2.26,0,0,1-.5,1.73,2.52,2.52,0,0,1-3.42-.1,2.49,2.49,0,0,1-.41-1.63Zm3.43.08c0-1.2-.38-1.71-1.26-1.71s-1.27.51-1.27,1.71v1.3c0,1.2.38,1.7,1.27,1.7s1.26-.5,1.26-1.7Z" style="fill:#58595b"/></g><g style="isolation:isolate"><path d="M384.68,312.07v-.69h.5l0-1.3H386v1.3h.84v.69H386v2.07c0,.62.17.82.72.8h.14v.71h-.16c-1.27,0-1.56-.29-1.56-1.6v-2Z" style="fill:#58595b"/></g><g style="isolation:isolate"><path d="M387.93,309.65h.86v2a1.35,1.35,0,0,1,1.06-.36,1.32,1.32,0,0,1,1.4.82,3.2,3.2,0,0,1,.13,1.08v2.45h-.86v-2.37c0-.9-.24-1.26-.84-1.26s-.89.4-.89,1.39v2.24h-.86Z" style="fill:#58595b"/><path d="M393.43,313.87c0,.77.36,1.18,1.05,1.18a1,1,0,0,0,.93-.43l.64.38a1.74,1.74,0,0,1-1.65.73c-1.27,0-1.83-.62-1.83-2v-.33c0-1.46.53-2.08,1.78-2.08s1.78.62,1.78,2.08v.34h-2.7Zm1.89-.77V313c0-.69-.33-1.06-.94-1.06a.82.82,0,0,0-.79.38,1.44,1.44,0,0,0-.16.69v.07Z" style="fill:#58595b"/><path d="M397.29,311.38H398l.09.36a1.08,1.08,0,0,1,1-.44,1.62,1.62,0,0,1,.87.24l-.37.71a.92.92,0,0,0-.58-.22c-.55,0-.77.46-.77,1.54v2.08h-.86Z" style="fill:#58595b"/></g></g><line y1="270.6" x2="491.82" y2="270.6" style="fill:none;stroke:#58595b;stroke-miterlimit:10;stroke-width:0.5px"/><line x1="70.26" y1="270.6" x2="70.26" y2="264.09" style="fill:none"/><line x1="210.78" y1="270.6" x2="210.78" y2="264.09" style="fill:none"/><line x1="281.04" y1="270.6" x2="281.04" y2="264.09" style="fill:none"/><line x1="351.3" y1="270.6" x2="351.3" y2="264.09" style="fill:none"/><line x1="421.56" y1="270.6" x2="421.56" y2="264.09" style="fill:none"/><line x1="491.82" y1="270.6" x2="491.82" y2="264.09" style="fill:none"/><line x1="32.52" y1="270.6" x2="32.52" y2="264.09" style="fill:none"/><rect x="7.23" y="10.23" width="50.59" height="5.21" style="fill:#c33d28"/><rect x="7.23" y="15.44" width="50.59" height="226.53" style="fill:#185e8e"/><rect x="7.23" y="241.96" width="50.59" height="10.41" style="fill:#17bfd6"/><rect x="7.23" y="252.38" width="50.59" height="18.23" style="fill:#58595b"/><g style="isolation:isolate"><path d="M12.14,292.52v-2.46l5.58-6.48a2.59,2.59,0,0,0,.78-1.81,1.71,1.71,0,0,0-1.81-1.87,1.7,1.7,0,0,0-1.82,1.91H12.14a4.25,4.25,0,0,1,4.55-4.37,4.2,4.2,0,0,1,4.54,4.35c0,1.45-.57,2.23-1.6,3.42l-4.17,4.85h5.77v2.46Z" style="fill:#58595b"/><path d="M28,292.65a4.31,4.31,0,0,1-4.55-4.46V281.9A4.31,4.31,0,0,1,28,277.44a4.3,4.3,0,0,1,4.54,4.46v6.29A4.3,4.3,0,0,1,28,292.65Zm1.81-10.71a1.83,1.83,0,1,0-3.63,0v6.23a1.83,1.83,0,1,0,3.63,0Z" style="fill:#58595b"/><path d="M38.91,292.52v-12l-3,2.65v-2.94l3-2.65h2.73v14.95Z" style="fill:#58595b"/><path d="M50.76,292.65c-2.44,0-4.73-1.28-4.77-4.41h2.73a2,2,0,0,0,4.05-.13,1.92,1.92,0,0,0-2.1-2.06h-.4v-2.37h.4a1.71,1.71,0,0,0,1.89-1.87,1.84,1.84,0,1,0-3.67-.1H46.16a4.28,4.28,0,0,1,4.58-4.27,4.26,4.26,0,0,1,4.55,4.29,3.18,3.18,0,0,1-1.72,3.06,3.57,3.57,0,0,1,1.93,3.4C55.5,291.18,53.32,292.65,50.76,292.65Z" style="fill:#58595b"/></g><g style="isolation:isolate"><path d="M24.43,7l2.24-2.69A8.87,8.87,0,0,0,27.57,3a1.91,1.91,0,0,0,.22-.88A.66.66,0,0,0,27,1.39a.71.71,0,0,0-.76.46,1.34,1.34,0,0,0-.18.6l-1.58-.11A2.24,2.24,0,0,1,27.09,0c1.56,0,2.4.78,2.4,2.22A3.06,3.06,0,0,1,29,4,9.8,9.8,0,0,1,27.73,5.5L26.68,6.72h2.8v1.4H24.43Z" style="fill:#c33d28"/><path d="M30.51,1.9A1.81,1.81,0,0,1,30.93.48,2.11,2.11,0,0,1,32.5,0a2,2,0,0,1,1.63.56,1.91,1.91,0,0,1,.35,1.34v.75a1.82,1.82,0,0,1-.42,1.43,2,2,0,0,1-1.56.48A1.94,1.94,0,0,1,30.87,4a1.82,1.82,0,0,1-.36-1.35Zm2.61.15c0-.76-.18-1-.62-1s-.62.29-.62,1V2.5c0,.77.16,1.06.62,1.06s.62-.3.62-1.06ZM36.06.12h1.52L35,8.12H33.52Zm.55,5.47A1.74,1.74,0,0,1,37,4.17a2,2,0,0,1,1.57-.48,1.92,1.92,0,0,1,1.62.56,1.86,1.86,0,0,1,.36,1.34v.75a1.73,1.73,0,0,1-.43,1.42,2,2,0,0,1-1.55.48A1.94,1.94,0,0,1,37,7.68a1.81,1.81,0,0,1-.36-1.34Zm2.61.16c0-.78-.17-1.07-.61-1.07S38,5,38,5.75v.44c0,.77.18,1.06.63,1.06s.61-.29.61-1.06Z" style="fill:#c33d28"/></g><g style="isolation:isolate"><path d="M21.73,127.77c0-1.6.72-2.29,2.37-2.29s2.35.69,2.35,2.3a2.15,2.15,0,0,1-.53,1.58,2,2,0,0,1,.76,1.88,2.41,2.41,0,0,1-.58,1.86,2.66,2.66,0,0,1-2,.62c-1.82,0-2.58-.72-2.58-2.48a2,2,0,0,1,.75-1.88A2.18,2.18,0,0,1,21.73,127.77Zm1.47,3.46c0,.84.22,1.1.88,1.1s.9-.26.9-1.09-.22-1.12-.87-1.12S23.2,130.39,23.2,131.23Zm.14-3.44c0,.78.18,1,.76,1s.73-.26.73-1-.17-1-.73-1S23.34,127,23.34,127.79Z" style="fill:#fff"/><path d="M30.57,127H27.74v-1.4h4.62v1l-2.33,7H28.19Z" style="fill:#fff"/><path d="M33.54,127.38A1.81,1.81,0,0,1,34,126a2.11,2.11,0,0,1,1.57-.48,1.93,1.93,0,0,1,1.62.56,1.86,1.86,0,0,1,.36,1.34v.75a1.82,1.82,0,0,1-.42,1.43,2,2,0,0,1-1.56.48,1.94,1.94,0,0,1-1.63-.56,1.82,1.82,0,0,1-.36-1.35Zm2.61.15c0-.76-.18-1-.62-1s-.63.29-.63,1V128c0,.77.17,1.06.63,1.06s.62-.3.62-1.06Zm2.94-1.93H40.6l-2.54,8H36.55Zm.55,5.47a1.74,1.74,0,0,1,.43-1.42,2,2,0,0,1,1.56-.48,1.93,1.93,0,0,1,1.63.56,1.86,1.86,0,0,1,.36,1.34v.75a1.77,1.77,0,0,1-.43,1.42,2,2,0,0,1-1.56.48,1.92,1.92,0,0,1-1.63-.56,1.81,1.81,0,0,1-.36-1.34Zm2.61.16c0-.78-.17-1.07-.62-1.07s-.62.29-.62,1.07v.44c0,.77.18,1.06.62,1.06s.62-.29.62-1.06Z" style="fill:#fff"/></g><g style="isolation:isolate"><path d="M27.56,249.62H24.42v-1l2.44-5.6h1.81l-2.31,5.27h1.2v-1.79H29.1v1.79h.69v1.36H29.1V251H27.56Z" style="fill:#fff"/><path d="M30.51,244.77a1.78,1.78,0,0,1,.42-1.42,2.11,2.11,0,0,1,1.57-.48,2,2,0,0,1,1.63.56,1.91,1.91,0,0,1,.35,1.34v.75a1.82,1.82,0,0,1-.42,1.43,2,2,0,0,1-1.56.48,1.94,1.94,0,0,1-1.63-.56,1.82,1.82,0,0,1-.36-1.35Zm2.61.15c0-.76-.18-1-.62-1s-.62.29-.62,1v.45c0,.77.16,1.06.62,1.06s.62-.3.62-1.06ZM36.06,243h1.52L35,251H33.52Zm.55,5.47A1.74,1.74,0,0,1,37,247a2,2,0,0,1,1.57-.48,2,2,0,0,1,1.62.55,1.9,1.9,0,0,1,.36,1.35v.75a1.73,1.73,0,0,1-.43,1.42,2,2,0,0,1-1.55.48,2,2,0,0,1-1.64-.56,1.81,1.81,0,0,1-.36-1.34Zm2.61.16c0-.78-.17-1.07-.61-1.07s-.63.29-.63,1.07v.44c0,.76.18,1.06.63,1.06s.61-.3.61-1.06Z" style="fill:#fff"/></g><g style="isolation:isolate"><path d="M27.54,259H24.71v-1.4h4.62v1l-2.33,7H25.17Z" style="fill:#fff"/><path d="M30.51,259.4a1.79,1.79,0,0,1,.42-1.42,2.11,2.11,0,0,1,1.57-.48,2,2,0,0,1,1.63.56,1.91,1.91,0,0,1,.35,1.34v.75a1.82,1.82,0,0,1-.42,1.43,2,2,0,0,1-1.56.48,1.94,1.94,0,0,1-1.63-.56,1.82,1.82,0,0,1-.36-1.35Zm2.61.15c0-.76-.18-1.05-.62-1.05s-.62.29-.62,1.05V260c0,.77.16,1.06.62,1.06s.62-.3.62-1.06Zm2.94-1.93h1.52l-2.55,8H33.52Zm.55,5.47a1.74,1.74,0,0,1,.43-1.42,2,2,0,0,1,1.57-.48,2,2,0,0,1,1.62.55,1.9,1.9,0,0,1,.36,1.35v.75a1.73,1.73,0,0,1-.43,1.42,2,2,0,0,1-1.55.48,2,2,0,0,1-1.64-.56,1.81,1.81,0,0,1-.36-1.34Zm2.61.16c0-.78-.17-1.07-.61-1.07s-.63.29-.63,1.07v.44c0,.77.18,1.06.63,1.06s.61-.29.61-1.06Z" style="fill:#fff"/></g><rect x="77.93" y="10.34" width="50.59" height="7.7" style="fill:#c33d28"/><rect x="77.93" y="18.04" width="50.59" height="229.13" style="fill:#185e8e"/><rect x="77.93" y="247.17" width="50.59" height="18.23" style="fill:#17bfd6"/><rect x="77.93" y="265.4" width="50.59" height="5.21" style="fill:#58595b"/><g style="isolation:isolate"><path d="M82.84,292.52v-2.46l5.58-6.48a2.59,2.59,0,0,0,.78-1.81,1.82,1.82,0,1,0-3.63,0H82.84a4.25,4.25,0,0,1,4.56-4.37,4.2,4.2,0,0,1,4.53,4.35c0,1.45-.57,2.23-1.6,3.42l-4.17,4.85h5.77v2.46Z" style="fill:#58595b"/><path d="M98.71,292.65a4.31,4.31,0,0,1-4.55-4.46V281.9a4.55,4.55,0,0,1,9.09,0v6.29A4.3,4.3,0,0,1,98.71,292.65Zm1.81-10.71a1.83,1.83,0,1,0-3.63,0v6.23a1.83,1.83,0,1,0,3.63,0Z" style="fill:#58595b"/><path d="M109.61,292.52v-12l-3,2.65v-2.94l3-2.65h2.73v14.95Z" style="fill:#58595b"/><path d="M125.19,290.4v2.12h-2.62V290.4h-6.11v-2.58l5.12-10.25h3l-5.12,10.25h3.13V285h2.62v2.8h1.37v2.58Z" style="fill:#58595b"/></g><g style="isolation:isolate"><path d="M96.69,3.25h.59c.71,0,1.09-.33,1.09-1s-.26-.91-.77-.91-.79.29-.87.85L95.2,2.13C95.29.69,96.1,0,97.69,0s2.39.77,2.39,2.22a1.75,1.75,0,0,1-.81,1.68,2,2,0,0,1,1,1.94c0,1.61-.84,2.4-2.56,2.4a2.68,2.68,0,0,1-2.27-.87A2.25,2.25,0,0,1,95,6l1.62-.19c.08.71.4,1,1,1s.91-.38.91-1.06a1.12,1.12,0,0,0-1.17-1.22h-.7Z" style="fill:#c33d28"/><path d="M101.22,1.9a1.81,1.81,0,0,1,.42-1.42A2.11,2.11,0,0,1,103.21,0a2,2,0,0,1,1.63.56,1.91,1.91,0,0,1,.35,1.34v.75a1.82,1.82,0,0,1-.42,1.43,2,2,0,0,1-1.56.48A1.94,1.94,0,0,1,101.58,4a1.82,1.82,0,0,1-.36-1.35Zm2.61.15c0-.76-.18-1-.62-1s-.63.29-.63,1V2.5c0,.77.17,1.06.63,1.06s.62-.3.62-1.06ZM106.77.12h1.52l-2.55,8h-1.51Zm.55,5.47a1.74,1.74,0,0,1,.43-1.42,2,2,0,0,1,1.57-.48,1.92,1.92,0,0,1,1.62.56,1.86,1.86,0,0,1,.36,1.34v.75a1.73,1.73,0,0,1-.43,1.42,2,2,0,0,1-1.55.48,1.94,1.94,0,0,1-1.64-.56,1.81,1.81,0,0,1-.36-1.34Zm2.61.16c0-.78-.17-1.07-.61-1.07s-.63.29-.63,1.07v.44c0,.77.18,1.06.63,1.06s.61-.29.61-1.06Z" style="fill:#c33d28"/></g><g style="isolation:isolate"><path d="M92.43,129.77c0-1.6.72-2.29,2.36-2.29s2.36.69,2.36,2.3a2.15,2.15,0,0,1-.53,1.58,2,2,0,0,1,.76,1.88,2.41,2.41,0,0,1-.58,1.86,2.66,2.66,0,0,1-2,.62c-1.82,0-2.58-.72-2.58-2.48a2,2,0,0,1,.75-1.88A2.18,2.18,0,0,1,92.43,129.77Zm1.47,3.46c0,.84.22,1.1.88,1.1s.9-.26.9-1.09-.22-1.12-.87-1.12S93.9,132.39,93.9,133.23Zm.14-3.44c0,.78.18,1,.75,1s.74-.26.74-1-.18-1-.74-1S94,129,94,129.79Z" style="fill:#fff"/><path d="M98.48,129.77c0-1.6.72-2.29,2.36-2.29s2.35.69,2.35,2.3a2.14,2.14,0,0,1-.52,1.58,2,2,0,0,1,.76,1.88,2.41,2.41,0,0,1-.58,1.86,2.66,2.66,0,0,1-2,.62c-1.82,0-2.59-.72-2.59-2.48a2.06,2.06,0,0,1,.75-1.88A2.22,2.22,0,0,1,98.48,129.77Zm1.47,3.46c0,.84.22,1.1.88,1.1s.9-.26.9-1.09-.23-1.12-.88-1.12S100,132.39,100,133.23Zm.14-3.44c0,.78.18,1,.75,1s.74-.26.74-1-.18-1-.74-1S100.09,129,100.09,129.79Z" style="fill:#fff"/><path d="M104.24,129.38a1.81,1.81,0,0,1,.42-1.42,2.11,2.11,0,0,1,1.57-.48,1.93,1.93,0,0,1,1.62.56,1.86,1.86,0,0,1,.36,1.34v.75a1.82,1.82,0,0,1-.42,1.43,2,2,0,0,1-1.56.48,2,2,0,0,1-1.64-.56,1.87,1.87,0,0,1-.35-1.35Zm2.61.15c0-.76-.18-1.05-.62-1.05s-.63.29-.63,1.05V130c0,.77.17,1.06.63,1.06s.62-.3.62-1.06Zm2.94-1.93h1.51l-2.54,8h-1.51Zm.55,5.47a1.74,1.74,0,0,1,.43-1.42,2,2,0,0,1,1.56-.48,1.93,1.93,0,0,1,1.63.56,1.86,1.86,0,0,1,.36,1.34v.75a1.77,1.77,0,0,1-.43,1.42,2,2,0,0,1-1.56.48,1.92,1.92,0,0,1-1.63-.56,1.81,1.81,0,0,1-.36-1.34Zm2.61.16c0-.78-.17-1.07-.62-1.07s-.62.29-.62,1.07v.44c0,.77.18,1.06.62,1.06s.62-.29.62-1.06Z" style="fill:#fff"/></g><g style="isolation:isolate"><path d="M98.25,250.22H95.42v-1.4H100v1l-2.33,7H95.88Z" style="fill:#fff"/><path d="M101.22,250.6a1.78,1.78,0,0,1,.42-1.42,2.11,2.11,0,0,1,1.57-.48,2,2,0,0,1,1.63.56,1.91,1.91,0,0,1,.35,1.34v.75a1.82,1.82,0,0,1-.42,1.43,2,2,0,0,1-1.56.48,1.94,1.94,0,0,1-1.63-.56,1.82,1.82,0,0,1-.36-1.35Zm2.61.15c0-.76-.18-1.05-.62-1.05s-.63.29-.63,1.05v.45c0,.77.17,1.06.63,1.06s.62-.3.62-1.06Zm2.94-1.93h1.52l-2.55,8h-1.51Zm.55,5.47a1.74,1.74,0,0,1,.43-1.42,2,2,0,0,1,1.57-.48,2,2,0,0,1,1.62.55,1.9,1.9,0,0,1,.36,1.35V255a1.73,1.73,0,0,1-.43,1.42,2.71,2.71,0,0,1-3.19-.08,1.81,1.81,0,0,1-.36-1.34Zm2.61.16c0-.78-.17-1.07-.61-1.07s-.63.29-.63,1.07v.44c0,.76.18,1.06.63,1.06s.61-.3.61-1.06Z" style="fill:#fff"/></g><g style="isolation:isolate"><path d="M95.14,268.34l2.24-2.69a8.87,8.87,0,0,0,.9-1.32,1.91,1.91,0,0,0,.22-.88.66.66,0,0,0-.75-.73.7.7,0,0,0-.76.46,1.34,1.34,0,0,0-.18.6l-1.58-.11a2.24,2.24,0,0,1,2.57-2.34c1.56,0,2.4.78,2.4,2.22a3.12,3.12,0,0,1-.54,1.75,10.5,10.5,0,0,1-1.22,1.53l-1,1.22h2.8v1.4h-5Z" style="fill:#fff"/><path d="M101.22,263.23a1.79,1.79,0,0,1,.42-1.42,2.11,2.11,0,0,1,1.57-.48,2,2,0,0,1,1.63.56,1.91,1.91,0,0,1,.35,1.34V264a1.82,1.82,0,0,1-.42,1.43,2,2,0,0,1-1.56.48,1.94,1.94,0,0,1-1.63-.56,1.82,1.82,0,0,1-.36-1.35Zm2.61.15c0-.76-.18-1.05-.62-1.05s-.63.29-.63,1.05v.45c0,.77.17,1.06.63,1.06s.62-.3.62-1.06Zm2.94-1.93h1.52l-2.55,8h-1.51Zm.55,5.47a1.74,1.74,0,0,1,.43-1.42,2,2,0,0,1,1.57-.48,2,2,0,0,1,1.62.55,1.9,1.9,0,0,1,.36,1.35v.75a1.73,1.73,0,0,1-.43,1.42,2.71,2.71,0,0,1-3.19-.08,1.81,1.81,0,0,1-.36-1.34Zm2.61.16c0-.78-.17-1.07-.61-1.07s-.63.29-.63,1.07v.44c0,.77.18,1.06.63,1.06s.61-.29.61-1.06Z" style="fill:#fff"/></g><line x1="173.93" y1="270.6" x2="173.93" y2="264.09" style="fill:none"/><rect x="148.64" y="10.23" width="50.59" height="5.21" style="fill:#c33d28"/><rect x="148.64" y="15.44" width="50.59" height="226.53" style="fill:#185e8e"/><rect x="148.64" y="241.96" width="50.59" height="18.23" style="fill:#17bfd6"/><rect x="148.64" y="260.19" width="50.59" height="10.41" style="fill:#58595b"/><g style="isolation:isolate"><path d="M153.55,292.52v-2.46l5.58-6.48a2.59,2.59,0,0,0,.78-1.81,1.82,1.82,0,1,0-3.63,0h-2.73a4.25,4.25,0,0,1,4.55-4.37,4.2,4.2,0,0,1,4.54,4.35c0,1.45-.57,2.23-1.6,3.42l-4.17,4.85h5.77v2.46Z" style="fill:#58595b"/><path d="M169.42,292.65a4.31,4.31,0,0,1-4.55-4.46V281.9a4.55,4.55,0,0,1,9.09,0v6.29A4.3,4.3,0,0,1,169.42,292.65Zm1.81-10.71a1.83,1.83,0,1,0-3.63,0v6.23a1.83,1.83,0,1,0,3.63,0Z" style="fill:#58595b"/><path d="M180.32,292.52v-12l-3,2.65v-2.94l3-2.65h2.73v14.95Z" style="fill:#58595b"/><path d="M195.57,291.43a4.51,4.51,0,0,1-3.3,1.22,4.68,4.68,0,0,1-3.34-1.2,4.55,4.55,0,0,1-1.21-3.11h2.73c.14,1.18.69,1.85,1.82,1.85a1.76,1.76,0,0,0,1.3-.48,3.08,3.08,0,0,0,.59-2.23c0-1.72-.5-2.69-1.83-2.69a1.73,1.73,0,0,0-1.8,1.22H188v-8.44h8.53V280h-6.05v3.21a3.42,3.42,0,0,1,2.24-.76,3.86,3.86,0,0,1,2.8,1,5.21,5.21,0,0,1,1.34,4A5,5,0,0,1,195.57,291.43Z" style="fill:#58595b"/></g><g style="isolation:isolate"><path d="M165.84,7l2.24-2.69A8.87,8.87,0,0,0,169,3a1.91,1.91,0,0,0,.22-.88.66.66,0,0,0-.75-.73.71.71,0,0,0-.76.46,1.34,1.34,0,0,0-.18.6l-1.58-.11A2.24,2.24,0,0,1,168.5,0c1.56,0,2.4.78,2.4,2.22A3.06,3.06,0,0,1,170.36,4a9.8,9.8,0,0,1-1.22,1.54l-1,1.22h2.8v1.4h-5Z" style="fill:#c33d28"/><path d="M171.92,1.9a1.81,1.81,0,0,1,.42-1.42A2.11,2.11,0,0,1,173.91,0a2,2,0,0,1,1.63.56,1.9,1.9,0,0,1,.36,1.34v.75a1.82,1.82,0,0,1-.43,1.43,2,2,0,0,1-1.56.48A1.94,1.94,0,0,1,172.28,4a1.82,1.82,0,0,1-.36-1.35Zm2.61.15c0-.76-.18-1-.62-1s-.62.29-.62,1V2.5c0,.77.16,1.06.62,1.06s.62-.3.62-1.06ZM177.47.12H179l-2.55,8h-1.51ZM178,5.59a1.74,1.74,0,0,1,.43-1.42A2,2,0,0,1,180,3.69a1.92,1.92,0,0,1,1.62.56A1.86,1.86,0,0,1,182,5.59v.75a1.73,1.73,0,0,1-.43,1.42,2,2,0,0,1-1.55.48,1.94,1.94,0,0,1-1.64-.56A1.81,1.81,0,0,1,178,6.34Zm2.61.16c0-.78-.17-1.07-.61-1.07s-.63.29-.63,1.07v.44c0,.77.18,1.06.63,1.06s.61-.29.61-1.06Z" style="fill:#c33d28"/></g><g style="isolation:isolate"><path d="M163.14,127.1c0-1.59.72-2.28,2.36-2.28s2.36.69,2.36,2.3a2.15,2.15,0,0,1-.53,1.58,2,2,0,0,1,.76,1.88,2.41,2.41,0,0,1-.58,1.86,2.66,2.66,0,0,1-2,.62c-1.82,0-2.58-.73-2.58-2.48a2,2,0,0,1,.75-1.88A2.19,2.19,0,0,1,163.14,127.1Zm1.47,3.47c0,.84.22,1.1.88,1.1s.9-.26.9-1.09-.22-1.12-.87-1.12S164.61,129.73,164.61,130.57Zm.14-3.44c0,.78.18,1,.75,1s.74-.26.74-1-.18-1-.74-1S164.75,126.37,164.75,127.13Z" style="fill:#fff"/><path d="M172,126.34h-2.84v-1.4h4.63v1l-2.33,7H169.6Z" style="fill:#fff"/><path d="M175,126.72a1.79,1.79,0,0,1,.42-1.42,2.11,2.11,0,0,1,1.57-.48,1.93,1.93,0,0,1,1.62.56,1.86,1.86,0,0,1,.36,1.34v.75a1.82,1.82,0,0,1-.42,1.43,2,2,0,0,1-1.56.48,2,2,0,0,1-1.64-.56,1.87,1.87,0,0,1-.35-1.35Zm2.61.15c0-.76-.18-1.05-.62-1.05s-.63.29-.63,1.05v.45c0,.77.17,1.06.63,1.06s.62-.3.62-1.06Zm2.94-1.93H182l-2.54,8H178Zm.55,5.47a1.74,1.74,0,0,1,.43-1.42,2.69,2.69,0,0,1,3.19.07,1.9,1.9,0,0,1,.36,1.35v.75a1.77,1.77,0,0,1-.43,1.42,2,2,0,0,1-1.56.48,1.92,1.92,0,0,1-1.63-.56,1.81,1.81,0,0,1-.36-1.34Zm2.61.16c0-.78-.17-1.07-.62-1.07s-.62.29-.62,1.07V131c0,.76.18,1.06.62,1.06s.62-.3.62-1.06Z" style="fill:#fff"/></g><g style="isolation:isolate"><path d="M169,248.22h-2.83v-1.4h4.62v1l-2.33,7h-1.83Z" style="fill:#fff"/><path d="M171.92,248.6a1.78,1.78,0,0,1,.42-1.42,2.11,2.11,0,0,1,1.57-.48,2,2,0,0,1,1.63.56,1.9,1.9,0,0,1,.36,1.34v.75a1.82,1.82,0,0,1-.43,1.43,2,2,0,0,1-1.56.48,1.94,1.94,0,0,1-1.63-.56,1.82,1.82,0,0,1-.36-1.35Zm2.61.15c0-.76-.18-1.05-.62-1.05s-.62.29-.62,1.05v.45c0,.77.16,1.06.62,1.06s.62-.3.62-1.06Zm2.94-1.93H179l-2.55,8h-1.51Zm.55,5.47a1.74,1.74,0,0,1,.43-1.42,2,2,0,0,1,1.57-.48,2,2,0,0,1,1.62.55,1.9,1.9,0,0,1,.36,1.35V253a1.73,1.73,0,0,1-.43,1.42,2.71,2.71,0,0,1-3.19-.08A1.81,1.81,0,0,1,178,253Zm2.61.16c0-.78-.17-1.07-.61-1.07s-.63.29-.63,1.07v.44c0,.76.18,1.06.63,1.06s.61-.3.61-1.06Z" style="fill:#fff"/></g><g style="isolation:isolate"><path d="M169,268.08h-3.14v-1l2.44-5.6h1.81l-2.31,5.27H169v-1.79h1.54v1.79h.69v1.36h-.69v1.37H169Z" style="fill:#fff"/><path d="M171.92,263.23a1.79,1.79,0,0,1,.42-1.42,2.11,2.11,0,0,1,1.57-.48,2,2,0,0,1,1.63.56,1.9,1.9,0,0,1,.36,1.34V264a1.82,1.82,0,0,1-.43,1.43,2,2,0,0,1-1.56.48,1.94,1.94,0,0,1-1.63-.56,1.82,1.82,0,0,1-.36-1.35Zm2.61.15c0-.76-.18-1.05-.62-1.05s-.62.29-.62,1.05v.45c0,.77.16,1.06.62,1.06s.62-.3.62-1.06Zm2.94-1.93H179l-2.55,8h-1.51Zm.55,5.47a1.74,1.74,0,0,1,.43-1.42A2,2,0,0,1,180,265a2,2,0,0,1,1.62.55,1.9,1.9,0,0,1,.36,1.35v.75a1.73,1.73,0,0,1-.43,1.42,2.71,2.71,0,0,1-3.19-.08,1.81,1.81,0,0,1-.36-1.34Zm2.61.16c0-.78-.17-1.07-.61-1.07s-.63.29-.63,1.07v.44c0,.77.18,1.06.63,1.06s.61-.29.61-1.06Z" style="fill:#fff"/></g><rect x="219.35" y="10.23" width="50.59" height="18.23" style="fill:#c33d28"/><rect x="219.35" y="28.46" width="50.59" height="210.9" style="fill:#185e8e"/><rect x="219.35" y="239.36" width="50.59" height="13.02" style="fill:#17bfd6"/><rect x="219.35" y="252.38" width="50.59" height="18.23" style="fill:#58595b"/><g style="isolation:isolate"><path d="M224.26,292.52v-2.46l5.58-6.48a2.59,2.59,0,0,0,.78-1.81,1.82,1.82,0,1,0-3.63,0h-2.73a4.25,4.25,0,0,1,4.55-4.37,4.2,4.2,0,0,1,4.54,4.35c0,1.45-.57,2.23-1.6,3.42l-4.17,4.85h5.77v2.46Z" style="fill:#58595b"/><path d="M240.13,292.65a4.31,4.31,0,0,1-4.55-4.46V281.9a4.55,4.55,0,0,1,9.09,0v6.29A4.3,4.3,0,0,1,240.13,292.65Zm1.81-10.71a1.83,1.83,0,1,0-3.63,0v6.23a1.83,1.83,0,1,0,3.63,0Z" style="fill:#58595b"/><path d="M251,292.52v-12l-3,2.65v-2.94l3-2.65h2.73v14.95Z" style="fill:#58595b"/><path d="M262.9,292.65a4.36,4.36,0,0,1-4.66-4.62,9.07,9.07,0,0,1,1.26-4l3.15-6.47h3l-3.11,6.17a3.11,3.11,0,0,1,1.11-.18,4.09,4.09,0,0,1,3.93,4.42A4.42,4.42,0,0,1,262.9,292.65Zm0-6.83a2.2,2.2,0,1,0,1.93,2.19A1.94,1.94,0,0,0,262.9,285.82Z" style="fill:#58595b"/></g><g style="isolation:isolate"><path d="M239.66,1.52h-2.83V.12h4.62v1l-2.33,7h-1.83Z" style="fill:#c33d28"/><path d="M242.63,1.9a1.81,1.81,0,0,1,.42-1.42A2.11,2.11,0,0,1,244.62,0a2,2,0,0,1,1.63.56,1.91,1.91,0,0,1,.35,1.34v.75a1.82,1.82,0,0,1-.42,1.43,2,2,0,0,1-1.56.48A1.94,1.94,0,0,1,243,4a1.82,1.82,0,0,1-.36-1.35Zm2.61.15c0-.76-.18-1-.62-1s-.62.29-.62,1V2.5c0,.77.16,1.06.62,1.06s.62-.3.62-1.06ZM248.18.12h1.52l-2.55,8h-1.51Zm.55,5.47a1.74,1.74,0,0,1,.43-1.42,2,2,0,0,1,1.57-.48,1.92,1.92,0,0,1,1.62.56,1.86,1.86,0,0,1,.36,1.34v.75a1.73,1.73,0,0,1-.43,1.42,2,2,0,0,1-1.55.48,1.94,1.94,0,0,1-1.64-.56,1.81,1.81,0,0,1-.36-1.34Zm2.61.16c0-.78-.17-1.07-.61-1.07s-.63.29-.63,1.07v.44c0,.77.18,1.06.63,1.06s.61-.29.61-1.06Z" style="fill:#c33d28"/></g><g style="isolation:isolate"><path d="M233.85,132c0-1.59.72-2.28,2.36-2.28s2.36.69,2.36,2.3a2.15,2.15,0,0,1-.53,1.58,2,2,0,0,1,.76,1.88,2.41,2.41,0,0,1-.58,1.86,2.66,2.66,0,0,1-2,.62c-1.82,0-2.58-.73-2.58-2.48a2,2,0,0,1,.75-1.88A2.19,2.19,0,0,1,233.85,132Zm1.47,3.47c0,.84.22,1.1.88,1.1s.9-.26.9-1.09-.22-1.12-.87-1.12S235.32,134.67,235.32,135.51Zm.14-3.44c0,.78.18,1,.75,1s.74-.26.74-1-.18-1-.74-1S235.46,131.31,235.46,132.07Z" style="fill:#fff"/><path d="M241.55,131.66l-1.24.51-.53-1.31,2.36-1h1.13v8h-1.72Z" style="fill:#fff"/><path d="M245.66,131.66a1.79,1.79,0,0,1,.42-1.42,2.11,2.11,0,0,1,1.57-.48,1.93,1.93,0,0,1,1.62.56,1.86,1.86,0,0,1,.36,1.34v.75a1.82,1.82,0,0,1-.42,1.43,2,2,0,0,1-1.56.48,2,2,0,0,1-1.64-.56,1.87,1.87,0,0,1-.35-1.35Zm2.61.15c0-.76-.18-1.05-.62-1.05s-.63.29-.63,1.05v.45c0,.77.17,1.06.63,1.06s.62-.3.62-1.06Zm2.94-1.93h1.51l-2.54,8h-1.51Zm.55,5.47a1.74,1.74,0,0,1,.43-1.42,2.69,2.69,0,0,1,3.19.07,2,2,0,0,1,.36,1.35v.75a1.77,1.77,0,0,1-.43,1.42,2,2,0,0,1-1.56.48,2,2,0,0,1-1.63-.56,1.81,1.81,0,0,1-.36-1.34Zm2.61.16c0-.78-.17-1.07-.62-1.07s-.62.29-.62,1.07V136c0,.77.18,1.06.62,1.06s.62-.29.62-1.06Z" style="fill:#fff"/></g><g style="isolation:isolate"><path d="M237.28,241.49h4.16v1.4H238.7l-.14,1.51h.1a2.21,2.21,0,0,1,.67-.09,2.42,2.42,0,0,1,1.84.68,2.67,2.67,0,0,1,.52,1.94,2.27,2.27,0,0,1-2.6,2.69c-1.6,0-2.42-.71-2.5-2.23l1.62-.19c.07.7.36,1,.91,1s.87-.37.87-1.19c0-1-.24-1.37-.9-1.37a1.07,1.07,0,0,0-.91.45l-1.25-.26Z" style="fill:#fff"/><path d="M242.63,243.27a1.78,1.78,0,0,1,.42-1.42,2.11,2.11,0,0,1,1.57-.48,2,2,0,0,1,1.63.56,1.91,1.91,0,0,1,.35,1.34V244a1.82,1.82,0,0,1-.42,1.43,2,2,0,0,1-1.56.48,1.94,1.94,0,0,1-1.63-.56,1.82,1.82,0,0,1-.36-1.35Zm2.61.15c0-.76-.18-1-.62-1s-.62.29-.62,1v.45c0,.77.16,1.06.62,1.06s.62-.3.62-1.06Zm2.94-1.93h1.52l-2.55,8h-1.51Zm.55,5.47a1.74,1.74,0,0,1,.43-1.42,2,2,0,0,1,1.57-.48,2,2,0,0,1,1.62.55,1.9,1.9,0,0,1,.36,1.35v.75a1.73,1.73,0,0,1-.43,1.42,2.71,2.71,0,0,1-3.19-.08,1.81,1.81,0,0,1-.36-1.34Zm2.61.16c0-.78-.17-1.07-.61-1.07s-.63.29-.63,1.07v.44c0,.76.18,1.06.63,1.06s.61-.3.61-1.06Z" style="fill:#fff"/></g><g style="isolation:isolate"><path d="M239.66,258.52h-2.83v-1.4h4.62v1l-2.33,7h-1.83Z" style="fill:#fff"/><path d="M242.63,258.9a1.79,1.79,0,0,1,.42-1.42,2.11,2.11,0,0,1,1.57-.48,2,2,0,0,1,1.63.56,1.91,1.91,0,0,1,.35,1.34v.75a1.82,1.82,0,0,1-.42,1.43,2,2,0,0,1-1.56.48A1.94,1.94,0,0,1,243,261a1.82,1.82,0,0,1-.36-1.35Zm2.61.15c0-.76-.18-1.05-.62-1.05s-.62.29-.62,1.05v.45c0,.77.16,1.06.62,1.06s.62-.3.62-1.06Zm2.94-1.93h1.52l-2.55,8h-1.51Zm.55,5.47a1.74,1.74,0,0,1,.43-1.42,2,2,0,0,1,1.57-.48,2,2,0,0,1,1.62.55,1.9,1.9,0,0,1,.36,1.35v.75a1.73,1.73,0,0,1-.43,1.42,2.71,2.71,0,0,1-3.19-.08,1.81,1.81,0,0,1-.36-1.34Zm2.61.16c0-.78-.17-1.07-.61-1.07s-.63.29-.63,1.07v.44c0,.77.18,1.06.63,1.06s.61-.29.61-1.06Z" style="fill:#fff"/></g><rect x="290.06" y="10.23" width="50.59" height="10.41" style="fill:#c33d28"/><rect x="290.06" y="20.64" width="50.59" height="229.13" style="fill:#185e8e"/><rect x="290.06" y="249.77" width="50.59" height="10.41" style="fill:#17bfd6"/><rect x="290.06" y="260.19" width="50.59" height="10.41" style="fill:#58595b"/><g style="isolation:isolate"><path d="M295,292.52v-2.46l5.58-6.48a2.59,2.59,0,0,0,.78-1.81,1.82,1.82,0,1,0-3.63,0H295a4.25,4.25,0,0,1,4.56-4.37,4.2,4.2,0,0,1,4.53,4.35c0,1.45-.57,2.23-1.6,3.42l-4.17,4.85h5.77v2.46Z" style="fill:#58595b"/><path d="M310.84,292.65a4.31,4.31,0,0,1-4.55-4.46V281.9a4.55,4.55,0,0,1,9.09,0v6.29A4.3,4.3,0,0,1,310.84,292.65Zm1.81-10.71a1.83,1.83,0,1,0-3.63,0v6.23a1.83,1.83,0,1,0,3.63,0Z" style="fill:#58595b"/><path d="M321.74,292.52v-12l-3,2.65v-2.94l3-2.65h2.73v14.95Z" style="fill:#58595b"/><path d="M333.65,292.52h-3L335.54,280h-4v2.35H329v-4.81h9.51V280Z" style="fill:#58595b"/></g><g style="isolation:isolate"><path d="M310.39,6.75h-3.14v-1l2.44-5.6h1.81l-2.3,5.27h1.19V3.6h1.54V5.39h.69V6.75h-.69V8.12h-1.54Z" style="fill:#c33d28"/><path d="M313.34,1.9a1.81,1.81,0,0,1,.42-1.42A2.11,2.11,0,0,1,315.33,0,2,2,0,0,1,317,.56a1.91,1.91,0,0,1,.35,1.34v.75a1.82,1.82,0,0,1-.42,1.43,2,2,0,0,1-1.56.48A1.94,1.94,0,0,1,313.7,4a1.82,1.82,0,0,1-.36-1.35Zm2.61.15c0-.76-.18-1-.62-1s-.62.29-.62,1V2.5c0,.77.16,1.06.62,1.06s.62-.3.62-1.06ZM318.89.12h1.52l-2.55,8h-1.51Zm.55,5.47a1.74,1.74,0,0,1,.43-1.42,2,2,0,0,1,1.57-.48,1.92,1.92,0,0,1,1.62.56,1.86,1.86,0,0,1,.36,1.34v.75A1.73,1.73,0,0,1,323,7.76a2,2,0,0,1-1.55.48,1.94,1.94,0,0,1-1.64-.56,1.81,1.81,0,0,1-.36-1.34Zm2.61.16c0-.78-.17-1.07-.61-1.07s-.63.29-.63,1.07v.44c0,.77.18,1.06.63,1.06s.61-.29.61-1.06Z" style="fill:#c33d28"/></g><g style="isolation:isolate"><path d="M304.56,134.65c0-1.59.72-2.28,2.36-2.28s2.36.69,2.36,2.3a2.15,2.15,0,0,1-.53,1.58,2,2,0,0,1,.76,1.88,2.43,2.43,0,0,1-.58,1.86,2.66,2.66,0,0,1-2,.62c-1.82,0-2.58-.73-2.58-2.48a2,2,0,0,1,.75-1.88A2.19,2.19,0,0,1,304.56,134.65Zm1.47,3.47c0,.84.22,1.1.88,1.1s.9-.26.9-1.09-.22-1.12-.87-1.12S306,137.28,306,138.12Zm.14-3.44c0,.78.18,1,.75,1s.74-.26.74-1-.18-1-.74-1S306.17,133.92,306.17,134.68Z" style="fill:#fff"/><path d="M310.61,134.65c0-1.59.72-2.28,2.36-2.28s2.35.69,2.35,2.3a2.14,2.14,0,0,1-.52,1.58,2,2,0,0,1,.76,1.88A2.43,2.43,0,0,1,315,140a2.66,2.66,0,0,1-2,.62c-1.82,0-2.58-.73-2.58-2.48a2.05,2.05,0,0,1,.74-1.88A2.23,2.23,0,0,1,310.61,134.65Zm1.47,3.47c0,.84.22,1.1.88,1.1s.9-.26.9-1.09S313.63,137,313,137,312.08,137.28,312.08,138.12Zm.14-3.44c0,.78.18,1,.75,1s.74-.26.74-1-.18-1-.74-1S312.22,133.92,312.22,134.68Z" style="fill:#fff"/><path d="M316.37,134.27a1.79,1.79,0,0,1,.42-1.42,2.11,2.11,0,0,1,1.57-.48,1.93,1.93,0,0,1,1.62.56,1.86,1.86,0,0,1,.36,1.34V135a1.82,1.82,0,0,1-.42,1.43,2,2,0,0,1-1.56.48,2,2,0,0,1-1.64-.56,1.87,1.87,0,0,1-.35-1.35Zm2.61.15c0-.76-.18-1-.62-1s-.63.29-.63,1v.45c0,.77.17,1.06.63,1.06s.62-.3.62-1.06Zm2.94-1.93h1.51l-2.54,8h-1.51Zm.55,5.47a1.74,1.74,0,0,1,.43-1.42,2.69,2.69,0,0,1,3.19.07,1.9,1.9,0,0,1,.36,1.35v.75a1.77,1.77,0,0,1-.43,1.42,2,2,0,0,1-1.56.48,2,2,0,0,1-1.63-.56,1.81,1.81,0,0,1-.36-1.34Zm2.61.16c0-.78-.17-1.07-.62-1.07s-.62.29-.62,1.07v.44c0,.76.18,1.06.62,1.06s.62-.3.62-1.06Z" style="fill:#fff"/></g><g style="isolation:isolate"><path d="M310.39,257.78h-3.14v-1l2.44-5.6h1.81l-2.3,5.27h1.19v-1.79h1.54v1.79h.69v1.36h-.69v1.37h-1.54Z" style="fill:#fff"/><path d="M313.34,252.93a1.78,1.78,0,0,1,.42-1.42,2.11,2.11,0,0,1,1.57-.48,2,2,0,0,1,1.63.56,1.91,1.91,0,0,1,.35,1.34v.75a1.82,1.82,0,0,1-.42,1.43,2,2,0,0,1-1.56.48,1.94,1.94,0,0,1-1.63-.56,1.82,1.82,0,0,1-.36-1.35Zm2.61.15c0-.76-.18-1.05-.62-1.05s-.62.29-.62,1.05v.45c0,.77.16,1.06.62,1.06s.62-.3.62-1.06Zm2.94-1.93h1.52l-2.55,8h-1.51Zm.55,5.47a1.74,1.74,0,0,1,.43-1.42,2,2,0,0,1,1.57-.48,2,2,0,0,1,1.62.55,1.9,1.9,0,0,1,.36,1.35v.75a1.73,1.73,0,0,1-.43,1.42,2.71,2.71,0,0,1-3.19-.08,1.81,1.81,0,0,1-.36-1.34Zm2.61.16c0-.78-.17-1.07-.61-1.07s-.63.29-.63,1.07v.44c0,.76.18,1.06.63,1.06s.61-.3.61-1.06Z" style="fill:#fff"/></g><g style="isolation:isolate"><path d="M310.39,268.41h-3.14v-1l2.44-5.6h1.81l-2.3,5.27h1.19v-1.8h1.54v1.8h.69v1.36h-.69v1.37h-1.54Z" style="fill:#fff"/><path d="M313.34,263.56a1.79,1.79,0,0,1,.42-1.42,2.11,2.11,0,0,1,1.57-.48,2,2,0,0,1,1.63.56,1.91,1.91,0,0,1,.35,1.34v.75a1.82,1.82,0,0,1-.42,1.43,2,2,0,0,1-1.56.48,1.94,1.94,0,0,1-1.63-.56,1.82,1.82,0,0,1-.36-1.35Zm2.61.15c0-.76-.18-1-.62-1s-.62.29-.62,1v.45c0,.77.16,1.06.62,1.06s.62-.3.62-1.06Zm2.94-1.93h1.52l-2.55,8h-1.51Zm.55,5.47a1.74,1.74,0,0,1,.43-1.42,2,2,0,0,1,1.57-.49,2,2,0,0,1,1.62.56,1.88,1.88,0,0,1,.36,1.35V268a1.73,1.73,0,0,1-.43,1.42,2.71,2.71,0,0,1-3.19-.08,1.81,1.81,0,0,1-.36-1.34Zm2.61.15c0-.77-.17-1.06-.61-1.06s-.63.29-.63,1.06v.45c0,.76.18,1.06.63,1.06s.61-.3.61-1.06Z" style="fill:#fff"/></g><rect x="360.76" y="10.23" width="50.59" height="10.41" style="fill:#c33d28"/><rect x="360.76" y="20.64" width="50.59" height="203.09" style="fill:#185e8e"/><rect x="360.76" y="223.74" width="50.59" height="31.24" style="fill:#17bfd6"/><rect x="360.76" y="254.98" width="50.59" height="15.62" style="fill:#58595b"/><g style="isolation:isolate"><path d="M365.67,292.52v-2.46l5.58-6.48a2.59,2.59,0,0,0,.78-1.81,1.82,1.82,0,1,0-3.63,0h-2.73a4.25,4.25,0,0,1,4.55-4.37,4.2,4.2,0,0,1,4.54,4.35c0,1.45-.57,2.23-1.6,3.42L369,290.06h5.77v2.46Z" style="fill:#58595b"/><path d="M381.54,292.65a4.31,4.31,0,0,1-4.55-4.46V281.9a4.55,4.55,0,0,1,9.09,0v6.29A4.3,4.3,0,0,1,381.54,292.65Zm1.81-10.71a1.83,1.83,0,1,0-3.63,0v6.23a1.83,1.83,0,1,0,3.63,0Z" style="fill:#58595b"/><path d="M392.44,292.52v-12l-3,2.65v-2.94l3-2.65h2.73v14.95Z" style="fill:#58595b"/><path d="M404.35,292.65c-2.65,0-4.79-1.58-4.79-4.48a3.88,3.88,0,0,1,1.87-3.36,3.72,3.72,0,0,1-1.68-3.1,4.6,4.6,0,0,1,9.18,0,3.72,3.72,0,0,1-1.68,3.1,3.89,3.89,0,0,1,1.89,3.36C409.14,291.07,407,292.65,404.35,292.65Zm0-6.6a2.06,2.06,0,0,0-2.06,2.08,2.06,2.06,0,0,0,4.12,0A2.06,2.06,0,0,0,404.35,286.05Zm0-6.15a1.89,1.89,0,0,0,0,3.78,1.89,1.89,0,0,0,0-3.78Z" style="fill:#58595b"/></g><g style="isolation:isolate"><path d="M381.1,6.75H378v-1L380.4.12h1.81L379.9,5.39h1.2V3.6h1.54V5.39h.69V6.75h-.69V8.12H381.1Z" style="fill:#c33d28"/><path d="M384.05,1.9a1.81,1.81,0,0,1,.42-1.42A2.11,2.11,0,0,1,386,0a2,2,0,0,1,1.63.56A1.9,1.9,0,0,1,388,1.9v.75a1.82,1.82,0,0,1-.43,1.43,2,2,0,0,1-1.56.48A1.94,1.94,0,0,1,384.41,4a1.82,1.82,0,0,1-.36-1.35Zm2.61.15c0-.76-.18-1-.62-1s-.62.29-.62,1V2.5c0,.77.16,1.06.62,1.06s.62-.3.62-1.06ZM389.6.12h1.52l-2.55,8h-1.51Zm.55,5.47a1.74,1.74,0,0,1,.43-1.42,2,2,0,0,1,1.57-.48,1.92,1.92,0,0,1,1.62.56,1.86,1.86,0,0,1,.36,1.34v.75a1.73,1.73,0,0,1-.43,1.42,2,2,0,0,1-1.55.48,1.94,1.94,0,0,1-1.64-.56,1.81,1.81,0,0,1-.36-1.34Zm2.61.16c0-.78-.17-1.07-.61-1.07s-.63.29-.63,1.07v.44c0,.77.18,1.06.63,1.06s.61-.29.61-1.06Z" style="fill:#c33d28"/></g><g style="isolation:isolate"><path d="M378.05,122.06h-2.83v-1.4h4.62v1l-2.33,7h-1.83Z" style="fill:#fff"/><path d="M381.31,122.83c0-1.6.72-2.29,2.36-2.29s2.36.69,2.36,2.3a2.15,2.15,0,0,1-.53,1.58,2,2,0,0,1,.76,1.88,2.41,2.41,0,0,1-.58,1.86,2.66,2.66,0,0,1-2,.62c-1.82,0-2.59-.72-2.59-2.48a2.07,2.07,0,0,1,.75-1.88A2.22,2.22,0,0,1,381.31,122.83Zm1.47,3.46c0,.84.22,1.1.88,1.1s.9-.26.9-1.09-.23-1.12-.88-1.12S382.78,125.45,382.78,126.29Zm.14-3.44c0,.78.18,1,.75,1s.74-.26.74-1-.18-1-.74-1S382.92,122.09,382.92,122.85Z" style="fill:#fff"/><path d="M387.07,122.44a1.81,1.81,0,0,1,.42-1.42,2.11,2.11,0,0,1,1.57-.48,1.93,1.93,0,0,1,1.62.56,1.86,1.86,0,0,1,.36,1.34v.75a1.82,1.82,0,0,1-.42,1.43,2,2,0,0,1-1.56.48,2,2,0,0,1-1.64-.56,1.87,1.87,0,0,1-.35-1.35Zm2.61.15c0-.76-.18-1-.62-1s-.63.29-.63,1V123c0,.77.17,1.06.63,1.06s.62-.3.62-1.06Zm2.94-1.93h1.51l-2.54,8h-1.51Zm.55,5.47a1.74,1.74,0,0,1,.43-1.42,2,2,0,0,1,1.56-.48,1.93,1.93,0,0,1,1.63.56,1.9,1.9,0,0,1,.36,1.34v.75a1.77,1.77,0,0,1-.43,1.42,2,2,0,0,1-1.56.48,1.93,1.93,0,0,1-1.63-.56,1.81,1.81,0,0,1-.36-1.34Zm2.61.16c0-.78-.17-1.07-.62-1.07s-.62.29-.62,1.07v.44c0,.77.18,1.06.62,1.06s.62-.29.62-1.06Z" style="fill:#fff"/></g><g style="isolation:isolate"><path d="M376.91,239.63l-1.23.51-.54-1.31,2.36-1h1.13v8h-1.72Z" style="fill:#fff"/><path d="M381,244.74l2.24-2.69a8.28,8.28,0,0,0,.91-1.32,1.9,1.9,0,0,0,.21-.88.66.66,0,0,0-.75-.73.72.72,0,0,0-.76.46,1.66,1.66,0,0,0-.18.6l-1.58-.11a2.24,2.24,0,0,1,2.58-2.34c1.56,0,2.4.78,2.4,2.22a3.06,3.06,0,0,1-.54,1.74,9.8,9.8,0,0,1-1.22,1.54l-1.05,1.22H386v1.4H381Z" style="fill:#fff"/><path d="M387.07,239.63a1.81,1.81,0,0,1,.42-1.42,2.11,2.11,0,0,1,1.57-.48,1.93,1.93,0,0,1,1.62.56,1.86,1.86,0,0,1,.36,1.34v.75a1.82,1.82,0,0,1-.42,1.43,2,2,0,0,1-1.56.48,2,2,0,0,1-1.64-.56,1.87,1.87,0,0,1-.35-1.35Zm2.61.15c0-.76-.18-1.05-.62-1.05s-.63.29-.63,1.05v.45c0,.77.17,1.06.63,1.06s.62-.3.62-1.06Zm2.94-1.93h1.51l-2.54,8h-1.51Zm.55,5.47a1.74,1.74,0,0,1,.43-1.42,2,2,0,0,1,1.56-.49,1.93,1.93,0,0,1,1.63.57,1.9,1.9,0,0,1,.36,1.34v.75a1.77,1.77,0,0,1-.43,1.42,2,2,0,0,1-1.56.48,1.93,1.93,0,0,1-1.63-.56,1.81,1.81,0,0,1-.36-1.34Zm2.61.16c0-.78-.17-1.07-.62-1.07s-.62.29-.62,1.07v.44c0,.77.18,1.06.62,1.06s.62-.29.62-1.06Z" style="fill:#fff"/></g><g style="isolation:isolate"><path d="M380.82,262l.29,0a2.36,2.36,0,0,1,1.31.44c.55.42.74,1,.74,2.19s-.16,1.69-.61,2.09a2.76,2.76,0,0,1-1.89.57,2.56,2.56,0,0,1-2-.69,2.63,2.63,0,0,1-.5-1.93,4.37,4.37,0,0,1,.7-2.55l1.67-2.95h1.92l-1.7,2.85Zm-1,2.6c0,1,.2,1.28.82,1.28s.8-.32.8-1.28-.2-1.29-.79-1.29S379.84,263.58,379.84,264.56Z" style="fill:#fff"/><path d="M384.05,260.89a1.79,1.79,0,0,1,.42-1.42A2.11,2.11,0,0,1,386,259a2,2,0,0,1,1.63.56,1.9,1.9,0,0,1,.36,1.34v.75a1.82,1.82,0,0,1-.43,1.43,2,2,0,0,1-1.56.48,1.94,1.94,0,0,1-1.63-.56,1.82,1.82,0,0,1-.36-1.35Zm2.61.15c0-.76-.18-1.05-.62-1.05s-.62.29-.62,1.05v.45c0,.77.16,1.06.62,1.06s.62-.3.62-1.06Zm2.94-1.93h1.52l-2.55,8h-1.51Zm.55,5.47a1.74,1.74,0,0,1,.43-1.42,2,2,0,0,1,1.57-.49,2,2,0,0,1,1.62.56,1.9,1.9,0,0,1,.36,1.35v.75a1.73,1.73,0,0,1-.43,1.42,2.71,2.71,0,0,1-3.19-.08,1.81,1.81,0,0,1-.36-1.34Zm2.61.15c0-.77-.17-1.06-.61-1.06s-.63.29-.63,1.06v.45c0,.76.18,1.06.63,1.06s.61-.3.61-1.06Z" style="fill:#fff"/></g><rect x="431.47" y="10.23" width="50.59" height="10.41" style="fill:#c33d28"/><rect x="431.47" y="20.64" width="50.59" height="218.71" style="fill:#185e8e"/><rect x="431.47" y="239.36" width="50.59" height="18.23" style="fill:#17bfd6"/><rect x="431.47" y="257.59" width="50.59" height="13.02" style="fill:#58595b"/><g style="isolation:isolate"><path d="M451.8,6.75h-3.14v-1L451.1.12h1.81l-2.3,5.27h1.19V3.6h1.54V5.39H454V6.75h-.69V8.12H451.8Z" style="fill:#c33d28"/><path d="M454.75,1.9a1.81,1.81,0,0,1,.42-1.42A2.11,2.11,0,0,1,456.74,0a2,2,0,0,1,1.63.56,1.91,1.91,0,0,1,.35,1.34v.75a1.82,1.82,0,0,1-.42,1.43,2,2,0,0,1-1.56.48A1.94,1.94,0,0,1,455.11,4a1.82,1.82,0,0,1-.36-1.35Zm2.61.15c0-.76-.18-1-.62-1s-.62.29-.62,1V2.5c0,.77.16,1.06.62,1.06s.62-.3.62-1.06ZM460.3.12h1.52l-2.55,8h-1.51Zm.55,5.47a1.74,1.74,0,0,1,.43-1.42,2,2,0,0,1,1.57-.48,1.92,1.92,0,0,1,1.62.56,1.86,1.86,0,0,1,.36,1.34v.75a1.73,1.73,0,0,1-.43,1.42,2,2,0,0,1-1.55.48,1.94,1.94,0,0,1-1.64-.56,1.81,1.81,0,0,1-.36-1.34Zm2.61.16c0-.78-.17-1.07-.61-1.07s-.63.29-.63,1.07v.44c0,.77.18,1.06.63,1.06s.61-.29.61-1.06Z" style="fill:#c33d28"/></g><g style="isolation:isolate"><path d="M446,126.92c0-1.6.72-2.29,2.36-2.29s2.36.69,2.36,2.3a2.15,2.15,0,0,1-.53,1.58,2,2,0,0,1,.76,1.88,2.41,2.41,0,0,1-.58,1.86,2.66,2.66,0,0,1-2,.62c-1.82,0-2.58-.72-2.58-2.48a2,2,0,0,1,.75-1.88A2.18,2.18,0,0,1,446,126.92Zm1.47,3.46c0,.84.22,1.1.88,1.1s.9-.26.9-1.09-.22-1.12-.87-1.12S447.44,129.54,447.44,130.38Zm.14-3.44c0,.78.18,1,.75,1s.74-.26.74-1-.18-1-.74-1S447.58,126.18,447.58,126.94Z" style="fill:#fff"/><path d="M454.83,131.38h-3.15v-1l2.44-5.6h1.82L453.63,130h1.2v-1.79h1.54V130h.69v1.36h-.69v1.37h-1.54Z" style="fill:#fff"/><path d="M457.78,126.53a1.79,1.79,0,0,1,.42-1.42,2.11,2.11,0,0,1,1.57-.48,1.93,1.93,0,0,1,1.62.56,1.86,1.86,0,0,1,.36,1.34v.75a1.82,1.82,0,0,1-.42,1.43,2,2,0,0,1-1.56.48,2,2,0,0,1-1.64-.56,1.87,1.87,0,0,1-.35-1.35Zm2.61.15c0-.76-.18-1.05-.62-1.05s-.63.29-.63,1.05v.45c0,.77.17,1.06.63,1.06s.62-.3.62-1.06Zm2.94-1.93h1.51l-2.54,8h-1.51Zm.55,5.47a1.74,1.74,0,0,1,.43-1.42,2,2,0,0,1,1.56-.49,1.93,1.93,0,0,1,1.63.57,1.86,1.86,0,0,1,.36,1.34V131a1.77,1.77,0,0,1-.43,1.42,2,2,0,0,1-1.56.48,1.92,1.92,0,0,1-1.63-.56,1.81,1.81,0,0,1-.36-1.34Zm2.61.16c0-.78-.17-1.07-.62-1.07s-.62.29-.62,1.07v.44c0,.77.18,1.06.62,1.06s.62-.29.62-1.06Z" style="fill:#fff"/></g><g style="isolation:isolate"><path d="M451.78,245.89H449v-1.4h4.62v1l-2.33,7h-1.83Z" style="fill:#fff"/><path d="M454.75,246.27a1.78,1.78,0,0,1,.42-1.42,2.11,2.11,0,0,1,1.57-.48,2,2,0,0,1,1.63.56,1.91,1.91,0,0,1,.35,1.34V247a1.82,1.82,0,0,1-.42,1.43,2,2,0,0,1-1.56.48,1.94,1.94,0,0,1-1.63-.56,1.82,1.82,0,0,1-.36-1.35Zm2.61.15c0-.76-.18-1-.62-1s-.62.29-.62,1v.45c0,.77.16,1.06.62,1.06s.62-.3.62-1.06Zm2.94-1.93h1.52l-2.55,8h-1.51Zm.55,5.47a1.74,1.74,0,0,1,.43-1.42,2,2,0,0,1,1.57-.48,2,2,0,0,1,1.62.55,1.9,1.9,0,0,1,.36,1.35v.75a1.73,1.73,0,0,1-.43,1.42,2.71,2.71,0,0,1-3.19-.08,1.81,1.81,0,0,1-.36-1.34Zm2.61.16c0-.78-.17-1.07-.61-1.07s-.63.29-.63,1.07v.44c0,.76.18,1.06.63,1.06s.61-.3.61-1.06Z" style="fill:#fff"/></g><g style="isolation:isolate"><path d="M449.4,260.12h4.16v1.4h-2.74l-.14,1.52.1,0a2.58,2.58,0,0,1,.67-.09,2.42,2.42,0,0,1,1.84.68,2.68,2.68,0,0,1,.52,1.95,2.26,2.26,0,0,1-2.6,2.68c-1.6,0-2.42-.71-2.5-2.23l1.62-.19c.07.7.37,1,.91,1s.87-.37.87-1.19c0-1-.24-1.37-.9-1.37a1.07,1.07,0,0,0-.91.45l-1.25-.26Z" style="fill:#fff"/><path d="M454.75,261.9a1.79,1.79,0,0,1,.42-1.42,2.11,2.11,0,0,1,1.57-.48,2,2,0,0,1,1.63.56,1.91,1.91,0,0,1,.35,1.34v.75a1.82,1.82,0,0,1-.42,1.43,2,2,0,0,1-1.56.48,1.94,1.94,0,0,1-1.63-.56,1.82,1.82,0,0,1-.36-1.35Zm2.61.15c0-.76-.18-1.05-.62-1.05s-.62.29-.62,1.05v.45c0,.77.16,1.06.62,1.06s.62-.3.62-1.06Zm2.94-1.93h1.52l-2.55,8h-1.51Zm.55,5.47a1.74,1.74,0,0,1,.43-1.42,2,2,0,0,1,1.57-.48,2,2,0,0,1,1.62.55,1.9,1.9,0,0,1,.36,1.35v.75a1.73,1.73,0,0,1-.43,1.42,2.71,2.71,0,0,1-3.19-.08,1.81,1.81,0,0,1-.36-1.34Zm2.61.16c0-.78-.17-1.07-.61-1.07s-.63.29-.63,1.07v.44c0,.77.18,1.06.63,1.06s.61-.29.61-1.06Z" style="fill:#fff"/></g><g style="isolation:isolate"><g style="isolation:isolate"><path d="M435.47,280.87v12.35h-2.92V280.87h-3.9v-2.6h10.73v2.6Z" style="fill:#58595b"/><path d="M450.15,291.71a5.8,5.8,0,0,1-8.08,0c-1.51-1.51-1.47-3.38-1.47-6s0-4.46,1.47-6a5.82,5.82,0,0,1,8.08,0c1.51,1.51,1.49,3.38,1.49,6S451.66,290.2,450.15,291.71ZM448,281.55a2.4,2.4,0,0,0-1.87-.8,2.45,2.45,0,0,0-1.89.8c-.57.63-.71,1.32-.71,4.2s.14,3.56.71,4.19a2.45,2.45,0,0,0,1.89.8,2.4,2.4,0,0,0,1.87-.8c.57-.63.73-1.32.73-4.19S448.56,282.18,448,281.55Z" style="fill:#58595b"/></g><g style="isolation:isolate"><path d="M460.88,280.87v12.35H458V280.87h-3.9v-2.6h10.73v2.6Z" style="fill:#58595b"/></g><g style="isolation:isolate"><path d="M474.37,293.22l-.88-2.65h-5.32l-.9,2.65h-3l5.44-15H472l5.46,15Zm-3.49-10.54L469,288.12h3.72Z" style="fill:#58595b"/><path d="M479.26,293.22v-15h2.92v12.35H489v2.6Z" style="fill:#58595b"/></g></g></g></g></svg>