<svg xmlns="http://www.w3.org/2000/svg" viewBox="0 0 491.82 319.19"><title>backers-graph-1</title><g id="Layer_2" data-name="Layer 2"><g id="Layer_2-2" data-name="Layer 2"><text transform="translate(90.45 317.13) scale(0.7)" style="font-size:12px;fill:#58595b;font-family:URWDIN-Bold, URW DIN;font-weight:700"> <tspan x="2.4" y="0" style="font-family:ZapfDingbatsITC, Zapf Dingbats;font-weight:400">■</tspan><tspan x="11.53" y="0" style="fill:#c33d28;font-family:ZapfDingbatsITC, Zapf Dingbats;font-weight:400"> </tspan><tspan x="14.87" y="0" style="font-family:URWDIN-Medium, URW DIN;font-weight:500;letter-spacing:0.006975446547362575em">C</tspan><tspan x="22.49" y="0" style="font-family:URWDIN-Medium, URW DIN;font-weight:500;letter-spacing:-0.00011625744245604291em">o</tspan><tspan x="29.18" y="0" style="font-family:URWDIN-Medium, URW DIN;font-weight:500;letter-spacing:0.02511160757050527em">r</tspan><tspan x="34.08" y="0" style="font-family:URWDIN-Medium, URW DIN;font-weight:500">po</tspan><tspan x="47.57" y="0" style="font-family:URWDIN-Medium, URW DIN;font-weight:500;letter-spacing:0.021042597084543768em">r</tspan><tspan x="52.42" y="0" style="font-family:URWDIN-Medium, URW DIN;font-weight:500;letter-spacing:-0.00011625744245604291em">a</tspan><tspan x="58.75" y="0" style="font-family:URWDIN-Medium, URW DIN;font-weight:500;letter-spacing:-0.0018601190792966865em">t</tspan><tspan x="62.81" y="0" xml:space="preserve" style="font-family:URWDIN-Medium, URW DIN;font-weight:500">e          </tspan><tspan x="93.36" y="0" style="fill:#17bfd6;font-family:ZapfDingbatsITC, Zapf Dingbats;font-weight:400">■</tspan><tspan x="102.49" y="0" style="fill:#fbb040;font-family:ZapfDingbatsITC, Zapf Dingbats;font-weight:400;letter-spacing:-0.00011625744245604291em"> </tspan><tspan x="105.83" y="0" style="font-family:URWDIN-Medium, URW DIN;font-weight:500">Ind</tspan><tspan x="123.02" y="0" style="font-family:URWDIN-Medium, URW DIN;font-weight:500;letter-spacing:0.011044457033324077em">i</tspan><tspan x="126.32" y="0" style="font-family:URWDIN-Medium, URW DIN;font-weight:500;letter-spacing:0.01197451657297242em">v</tspan><tspan x="132.42" y="0" style="font-family:URWDIN-Medium, URW DIN;font-weight:500">iduals and </tspan><tspan x="189.5" y="0" style="font-family:URWDIN-Medium, URW DIN;font-weight:500;letter-spacing:-0.01592726961647788em">F</tspan><tspan x="195.86" y="0" style="font-family:URWDIN-Medium, URW DIN;font-weight:500">amili</tspan><tspan x="222.18" y="0" style="font-family:URWDIN-Medium, URW DIN;font-weight:500;letter-spacing:0.017089844041038308em">e</tspan><tspan x="228.93" y="0" style="font-family:URWDIN-Medium, URW DIN;font-weight:500">s</tspan><tspan x="234.71" y="0" xml:space="preserve">         </tspan><tspan x="256.31" y="0" style="fill:#185e8e;font-family:ZapfDingbatsITC, Zapf Dingbats;font-weight:400;letter-spacing:-0.00011625744245604291em">■</tspan><tspan x="265.44" y="0" style="fill:#fbb040;font-family:ZapfDingbatsITC, Zapf Dingbats;font-weight:400"> </tspan><tspan x="268.77" y="0" style="font-family:URWDIN-Medium, URW DIN;font-weight:500;letter-spacing:0.0019763765217527297em">S</tspan><tspan x="275.72" y="0" style="font-family:URWDIN-Medium, URW DIN;font-weight:500;letter-spacing:0.018136161023142694em">t</tspan><tspan x="280.02" y="0" style="font-family:URWDIN-Medium, URW DIN;font-weight:500;letter-spacing:-0.00011625744245604291em">affed </tspan><tspan x="309.86" y="0" style="font-family:URWDIN-Medium, URW DIN;font-weight:500;letter-spacing:0.0010463169821043864em">F</tspan><tspan x="316.42" y="0" style="font-family:URWDIN-Medium, URW DIN;font-weight:500">ounda</tspan><tspan x="349.75" y="0" style="font-family:URWDIN-Medium, URW DIN;font-weight:500;letter-spacing:0.003022693503857116em">t</tspan><tspan x="353.86" y="0" xml:space="preserve" style="font-family:URWDIN-Medium, URW DIN;font-weight:500">ion    </tspan><tspan x="380.14" y="0" xml:space="preserve">       </tspan><tspan x="396.94" y="0" style="fill:#c33d28"> </tspan><tspan x="399.34" y="0" style="fill:#c33d28;font-family:ZapfDingbatsITC, Zapf Dingbats;font-weight:400">■</tspan><tspan x="408.48" y="0" style="fill:#fbb040;font-family:ZapfDingbatsITC, Zapf Dingbats;font-weight:400"> </tspan><tspan x="411.81" y="0" style="font-family:URWDIN-Medium, URW DIN;font-weight:500">O</tspan><tspan x="419.89" y="0" style="font-family:URWDIN-Medium, URW DIN;font-weight:500;letter-spacing:0.003022693503857116em">t</tspan><tspan x="424" y="0" style="font-family:URWDIN-Medium, URW DIN;font-weight:500">her</tspan><tspan x="441.97" y="0" xml:space="preserve" style="fill:#c33d28;font-family:URWDIN-Medium, URW DIN;font-weight:500;letter-spacing:0.00011625744245604291em">  </tspan></text><line y1="272.08" x2="491.82" y2="272.08" style="fill:none;stroke:#58595b;stroke-miterlimit:10;stroke-width:0.5px"/><line x1="70.26" y1="272.08" x2="70.26" y2="265.57" style="fill:none"/><line x1="210.78" y1="272.08" x2="210.78" y2="265.57" style="fill:none"/><line x1="281.04" y1="272.08" x2="281.04" y2="265.57" style="fill:none"/><line x1="351.3" y1="272.08" x2="351.3" y2="265.57" style="fill:none"/><line x1="421.56" y1="272.08" x2="421.56" y2="265.57" style="fill:none"/><line x1="491.82" y1="272.08" x2="491.82" y2="265.57" style="fill:none"/><text/><line x1="32.52" y1="272.08" x2="32.52" y2="265.57" style="fill:none"/><rect x="7.23" y="11.71" width="50.59" height="5.21" style="fill:#c33d28"/><rect x="7.23" y="16.92" width="50.59" height="226.53" style="fill:#185e8e"/><rect x="7.23" y="243.44" width="50.59" height="10.41" style="fill:#17bfd6"/><rect x="7.23" y="253.86" width="50.59" height="18.23" style="fill:#58595b"/><text transform="translate(16.9 294)" style="font-size:21px;fill:#58595b;font-family:DINCondensed-Bold, DIN Condensed;font-weight:700">2013</text><text transform="translate(24.08 9.6) scale(0.7)" style="font-size:16px;fill:#c33d28;font-family:URWDIN-Bold, URW DIN;font-weight:700">2%</text><text transform="translate(21.06 135.08) scale(0.7)" style="font-size:16px;fill:#fff;font-family:URWDIN-Bold, URW DIN;font-weight:700">87%</text><text transform="translate(24.08 252.47) scale(0.7)" style="font-size:16px;fill:#fff;font-family:URWDIN-Bold, URW DIN;font-weight:700">4%</text><text transform="translate(24.08 267.1) scale(0.7)" style="font-size:16px;fill:#fff;font-family:URWDIN-Bold, URW DIN;font-weight:700">7%</text><rect x="77.93" y="11.82" width="50.59" height="7.7" style="fill:#c33d28"/><rect x="77.93" y="19.52" width="50.59" height="229.13" style="fill:#185e8e"/><rect x="77.93" y="248.65" width="50.59" height="18.23" style="fill:#17bfd6"/><rect x="77.93" y="266.88" width="50.59" height="5.21" style="fill:#58595b"/><text transform="translate(87.6 294)" style="font-size:21px;fill:#58595b;font-family:DINCondensed-Bold, DIN Condensed;font-weight:700">2014</text><text transform="translate(94.79 9.6) scale(0.7)" style="font-size:16px;fill:#c33d28;font-family:URWDIN-Bold, URW DIN;font-weight:700">3%</text><text transform="translate(91.76 137.08) scale(0.7)" style="font-size:16px;fill:#fff;font-family:URWDIN-Bold, URW DIN;font-weight:700">88%</text><text transform="translate(94.79 258.3) scale(0.7)" style="font-size:16px;fill:#fff;font-family:URWDIN-Bold, URW DIN;font-weight:700">7%</text><text transform="translate(94.79 270.93) scale(0.7)" style="font-size:16px;fill:#fff;font-family:URWDIN-Bold, URW DIN;font-weight:700">2%</text><line x1="173.93" y1="272.08" x2="173.93" y2="265.57" style="fill:none"/><rect x="148.64" y="11.71" width="50.59" height="5.21" style="fill:#c33d28"/><rect x="148.64" y="16.92" width="50.59" height="226.53" style="fill:#185e8e"/><rect x="148.64" y="243.44" width="50.59" height="18.23" style="fill:#17bfd6"/><rect x="148.64" y="261.67" width="50.59" height="10.41" style="fill:#58595b"/><text transform="translate(158.31 294)" style="font-size:21px;fill:#58595b;font-family:DINCondensed-Bold, DIN Condensed;font-weight:700">2015</text><text transform="translate(165.49 9.6) scale(0.7)" style="font-size:16px;fill:#c33d28;font-family:URWDIN-Bold, URW DIN;font-weight:700">2%</text><text transform="translate(162.47 134.42) scale(0.7)" style="font-size:16px;fill:#fff;font-family:URWDIN-Bold, URW DIN;font-weight:700">87%</text><text transform="translate(165.49 256.3) scale(0.7)" style="font-size:16px;fill:#fff;font-family:URWDIN-Bold, URW DIN;font-weight:700">7%</text><text transform="translate(165.49 270.93) scale(0.7)" style="font-size:16px;fill:#fff;font-family:URWDIN-Bold, URW DIN;font-weight:700">4%</text><rect x="219.35" y="11.71" width="50.59" height="18.23" style="fill:#c33d28"/><rect x="219.35" y="29.94" width="50.59" height="210.9" style="fill:#185e8e"/><rect x="219.35" y="240.84" width="50.59" height="13.02" style="fill:#17bfd6"/><rect x="219.35" y="253.86" width="50.59" height="18.23" style="fill:#58595b"/><text transform="translate(229.02 294)" style="font-size:21px;fill:#58595b;font-family:DINCondensed-Bold, DIN Condensed;font-weight:700">2016</text><text transform="translate(236.2 9.6) scale(0.7)" style="font-size:16px;fill:#c33d28;font-family:URWDIN-Bold, URW DIN;font-weight:700">7%</text><text transform="translate(233.18 139.36) scale(0.7)" style="font-size:16px;fill:#fff;font-family:URWDIN-Bold, URW DIN;font-weight:700">81%</text><text transform="translate(236.2 250.97) scale(0.7)" style="font-size:16px;fill:#fff;font-family:URWDIN-Bold, URW DIN;font-weight:700">5%</text><text transform="translate(236.2 266.6) scale(0.7)" style="font-size:16px;fill:#fff;font-family:URWDIN-Bold, URW DIN;font-weight:700">7%</text><rect x="290.06" y="11.71" width="50.59" height="10.41" style="fill:#c33d28"/><rect x="290.06" y="22.12" width="50.59" height="229.13" style="fill:#185e8e"/><rect x="290.06" y="251.25" width="50.59" height="10.41" style="fill:#17bfd6"/><rect x="290.06" y="261.67" width="50.59" height="10.41" style="fill:#58595b"/><text transform="translate(299.73 294)" style="font-size:21px;fill:#58595b;font-family:DINCondensed-Bold, DIN Condensed;font-weight:700">2017</text><text transform="translate(306.91 9.6) scale(0.7)" style="font-size:16px;fill:#c33d28;font-family:URWDIN-Bold, URW DIN;font-weight:700">4%</text><text transform="translate(303.89 141.97) scale(0.7)" style="font-size:16px;fill:#fff;font-family:URWDIN-Bold, URW DIN;font-weight:700">88%</text><text transform="translate(306.91 260.63) scale(0.7)" style="font-size:16px;fill:#fff;font-family:URWDIN-Bold, URW DIN;font-weight:700">4%</text><text transform="translate(306.91 271.26) scale(0.7)" style="font-size:16px;fill:#fff;font-family:URWDIN-Bold, URW DIN;font-weight:700">4%</text><rect x="360.76" y="11.71" width="50.59" height="10.41" style="fill:#c33d28"/><rect x="360.76" y="22.12" width="50.59" height="203.09" style="fill:#185e8e"/><rect x="360.76" y="225.22" width="50.59" height="31.24" style="fill:#17bfd6"/><rect x="360.76" y="256.46" width="50.59" height="15.62" style="fill:#58595b"/><text transform="translate(370.43 294)" style="font-size:21px;fill:#58595b;font-family:DINCondensed-Bold, DIN Condensed;font-weight:700">2018</text><text transform="translate(377.62 9.6) scale(0.7)" style="font-size:16px;fill:#c33d28;font-family:URWDIN-Bold, URW DIN;font-weight:700">4%</text><text transform="translate(374.59 130.14) scale(0.7)" style="font-size:16px;fill:#fff;font-family:URWDIN-Bold, URW DIN;font-weight:700">78%</text><text transform="translate(374.59 247.33) scale(0.7)" style="font-size:16px;fill:#fff;font-family:URWDIN-Bold, URW DIN;font-weight:700">12%</text><text transform="translate(377.62 268.59) scale(0.7)" style="font-size:16px;fill:#fff;font-family:URWDIN-Bold, URW DIN;font-weight:700">6%</text><rect x="431.47" y="11.71" width="50.59" height="10.41" style="fill:#c33d28"/><rect x="431.47" y="22.12" width="50.59" height="218.71" style="fill:#185e8e"/><rect x="431.47" y="240.84" width="50.59" height="18.23" style="fill:#17bfd6"/><rect x="431.47" y="259.07" width="50.59" height="13.02" style="fill:#58595b"/><text transform="translate(448.32 9.6) scale(0.7)" style="font-size:16px;fill:#c33d28;font-family:URWDIN-Bold, URW DIN;font-weight:700">4%</text><text transform="translate(445.3 134.23) scale(0.7)" style="font-size:16px;fill:#fff;font-family:URWDIN-Bold, URW DIN;font-weight:700">84%</text><text transform="translate(448.32 253.97) scale(0.7)" style="font-size:16px;fill:#fff;font-family:URWDIN-Bold, URW DIN;font-weight:700">7%</text><text transform="translate(448.32 269.6) scale(0.7)" style="font-size:16px;fill:#fff;font-family:URWDIN-Bold, URW DIN;font-weight:700">5%</text><text transform="translate(438.02 294.7)" style="font-size:21px;fill:#58595b;font-family:DINCondensed-Bold, DIN Condensed;font-weight:700"><tspan style="letter-spacing:-0.011997767857142858em">TO</tspan><tspan x="15.41" y="0" style="letter-spacing:-0.055013020833333336em">T</tspan><tspan x="21.23" y="0">AL</tspan></text></g></g></svg>