<?xml version="1.0" encoding="utf-8"?>
<!-- Generator: Adobe Illustrator 24.0.1, SVG Export Plug-In . SVG Version: 6.00 Build 0)  -->
<svg version="1.1" id="Layer_1" xmlns="http://www.w3.org/2000/svg" xmlns:xlink="http://www.w3.org/1999/xlink" x="0px" y="0px"
	 viewBox="0 0 491.8 319.2" style="enable-background:new 0 0 491.8 319.2;" xml:space="preserve">
<style type="text/css">
	.st0{enable-background:new    ;}
	.st1{fill:#58595B;}
	.st2{fill:#17BFD6;}
	.st3{fill:#185E8E;}
	.st4{fill:#C33D28;}
	.st5{fill:none;stroke:#58595B;stroke-width:0.5;stroke-miterlimit:10;}
	.st6{fill:none;}
	.st7{fill:#FFFFFF;}
</style>
<title>backers-graph-1</title>
<g id="Layer_2_1_">
	<g id="Layer_2-2">
		<g class="st0">
			<path class="st1" d="M98.2,317.1h-5.8v-5.8h5.8V317.1z"/>
		</g>
		<g class="st0">
			<path class="st1" d="M105.6,315.6c-0.1,1-0.8,1.6-2,1.6c-0.8,0-1.3-0.2-1.7-0.7c-0.3-0.4-0.4-0.9-0.4-1.7v-1.3
				c0-0.9,0.1-1.4,0.5-1.8c0.4-0.4,0.9-0.6,1.6-0.6c1.2,0,1.9,0.6,2,1.6l-0.8,0.1c-0.1-0.6-0.5-0.9-1.1-0.9c-0.9,0-1.2,0.5-1.2,1.8
				v1.1c0,1.3,0.3,1.8,1.2,1.8c0.7,0,1.1-0.3,1.2-0.9L105.6,315.6z"/>
		</g>
		<g class="st0">
			<path class="st1" d="M106.7,314.7c0-1.3,0.6-1.9,1.8-1.9c1.2,0,1.8,0.6,1.8,1.9v0.7c0,1.3-0.6,1.9-1.8,1.9
				c-1.3,0-1.8-0.6-1.8-1.9V314.7z M109.5,314.7c0-0.9-0.3-1.3-1-1.3c-0.7,0-0.9,0.4-0.9,1.3v0.5c0,0.9,0.3,1.3,0.9,1.3
				c0.7,0,1-0.4,1-1.3V314.7z"/>
		</g>
		<g class="st0">
			<path class="st1" d="M111.6,312.9h0.7l0.1,0.4c0.3-0.3,0.5-0.4,1-0.4c0.3,0,0.5,0.1,0.9,0.2l-0.4,0.7c-0.2-0.2-0.4-0.2-0.6-0.2
				c-0.5,0-0.8,0.5-0.8,1.5v2.1h-0.9V312.9z"/>
		</g>
		<g class="st0">
			<path class="st1" d="M115,312.9h0.7l0.1,0.3c0.3-0.3,0.7-0.4,1.2-0.4c1.1,0,1.6,0.6,1.6,1.9v0.6c0,1.3-0.5,1.9-1.6,1.9
				c-0.4,0-0.8-0.1-1.1-0.3v2.1H115V312.9z M117.7,314.7c0-0.9-0.3-1.3-0.9-1.3c-0.6,0-0.9,0.4-0.9,1.1v0.8c0,0.8,0.3,1.1,0.9,1.1
				c0.6,0,0.9-0.4,0.9-1.3V314.7z"/>
			<path class="st1" d="M119.6,314.7c0-1.3,0.6-1.9,1.8-1.9c1.2,0,1.8,0.6,1.8,1.9v0.7c0,1.3-0.6,1.9-1.8,1.9
				c-1.3,0-1.8-0.6-1.8-1.9V314.7z M122.4,314.7c0-0.9-0.3-1.3-1-1.3c-0.7,0-0.9,0.4-0.9,1.3v0.5c0,0.9,0.3,1.3,0.9,1.3
				c0.7,0,1-0.4,1-1.3V314.7z"/>
		</g>
		<g class="st0">
			<path class="st1" d="M124.4,312.9h0.7l0.1,0.4c0.3-0.3,0.5-0.4,1-0.4c0.3,0,0.5,0.1,0.9,0.2l-0.4,0.7c-0.2-0.2-0.4-0.2-0.6-0.2
				c-0.5,0-0.8,0.5-0.8,1.5v2.1h-0.9V312.9z"/>
		</g>
		<g class="st0">
			<path class="st1" d="M130.1,314.3c0-0.6-0.2-0.9-0.8-0.9c-0.4,0-0.7,0.1-0.9,0.4l-0.6-0.4c0.4-0.5,0.9-0.7,1.6-0.7
				c0.7,0,1.2,0.2,1.4,0.7c0.1,0.2,0.2,0.5,0.2,1v2.6h-0.7l-0.1-0.3c-0.3,0.3-0.6,0.4-1.2,0.4c-1.1,0-1.5-0.3-1.5-1.3
				c0-1,0.4-1.3,1.6-1.3h0.9V314.3z M129.2,315.2c-0.6,0-0.9,0.2-0.9,0.7c0,0.5,0.2,0.6,0.9,0.6c0.4,0,0.6-0.1,0.8-0.3
				c0.1-0.1,0.1-0.2,0.1-0.5v-0.6H129.2z"/>
		</g>
		<g class="st0">
			<path class="st1" d="M131.9,313.5v-0.7h0.5l0-1.3h0.8v1.3h0.8v0.7h-0.8v2.1c0,0.6,0.2,0.8,0.7,0.8h0.1v0.7h-0.2
				c-1.3,0-1.6-0.3-1.6-1.6v-2H131.9z"/>
		</g>
		<g class="st0">
			<path class="st1" d="M135.8,315.3c0,0.8,0.4,1.2,1.1,1.2c0.4,0,0.7-0.1,0.9-0.4l0.6,0.4c-0.4,0.5-0.8,0.7-1.6,0.7
				c-1.3,0-1.8-0.6-1.8-2v-0.3c0-1.5,0.5-2.1,1.8-2.1c1.3,0,1.8,0.6,1.8,2.1v0.3h-2.7V315.3z M137.7,314.6L137.7,314.6
				c0-0.8-0.3-1.1-0.9-1.1c-0.4,0-0.6,0.1-0.8,0.4c-0.1,0.2-0.2,0.4-0.2,0.7v0.1H137.7z"/>
		</g>
		<g class="st0">
			<path class="st2" d="M161.9,317.1h-5.8v-5.8h5.8V317.1z"/>
		</g>
		<g class="st0">
			<path class="st1" d="M165.3,311.1h0.9v6h-0.9V311.1z"/>
			<path class="st1" d="M167.7,312.9h0.7l0.1,0.4c0.3-0.4,0.6-0.5,1.2-0.5c0.7,0,1.2,0.3,1.4,0.8c0.1,0.2,0.1,0.6,0.1,1.1v2.4h-0.9
				v-2.4c0-0.9-0.2-1.3-0.8-1.3c-0.6,0-0.9,0.4-0.9,1.4v2.2h-0.9V312.9z"/>
			<path class="st1" d="M175.2,316.8C175.1,316.8,175.1,316.8,175.2,316.8c-0.1,0.1-0.1,0.1-0.2,0.1c-0.2,0.2-0.6,0.3-1,0.3
				c-1.1,0-1.6-0.6-1.6-1.9v-0.6c0-1.3,0.5-1.9,1.6-1.9c0.3,0,0.6,0,0.8,0.2c0,0,0.1,0.1,0.2,0.2v-2h0.9v6h-0.7L175.2,316.8z
				 M173.2,315.3c0,0.9,0.3,1.3,0.9,1.3c0.6,0,0.9-0.4,0.9-1.1v-0.8c0-0.8-0.3-1.1-0.9-1.1c-0.6,0-0.9,0.4-0.9,1.3V315.3z"/>
		</g>
		<g class="st0">
			<path class="st1" d="M177.2,311.1h0.9v1h-0.9V311.1z M177.2,312.9h0.9v4.3h-0.9V312.9z"/>
		</g>
		<g class="st0">
			<path class="st1" d="M179.1,312.9h0.9l1,3.2l1-3.2h0.9l-1.5,4.3h-0.8L179.1,312.9z"/>
		</g>
		<g class="st0">
			<path class="st1" d="M183.8,311.1h0.9v1h-0.9V311.1z M183.8,312.9h0.9v4.3h-0.9V312.9z"/>
			<path class="st1" d="M188.7,316.8C188.7,316.8,188.7,316.8,188.7,316.8c-0.1,0.1-0.1,0.1-0.2,0.1c-0.2,0.2-0.6,0.3-1,0.3
				c-1.1,0-1.6-0.6-1.6-1.9v-0.6c0-1.3,0.5-1.9,1.6-1.9c0.3,0,0.6,0,0.8,0.2c0,0,0.1,0.1,0.2,0.2v-2h0.9v6h-0.7L188.7,316.8z
				 M186.8,315.3c0,0.9,0.3,1.3,0.9,1.3c0.6,0,0.9-0.4,0.9-1.1v-0.8c0-0.8-0.3-1.1-0.9-1.1c-0.6,0-0.9,0.4-0.9,1.3V315.3z"/>
			<path class="st1" d="M191.6,312.9v2.4c0,0.9,0.2,1.3,0.8,1.3c0.6,0,0.8-0.4,0.8-1.4v-2.2h0.9v4.3h-0.6l-0.1-0.4
				c-0.2,0.4-0.6,0.5-1.1,0.5c-0.7,0-1.2-0.3-1.4-0.8c-0.1-0.2-0.1-0.6-0.1-1.1v-2.4H191.6z"/>
			<path class="st1" d="M197.7,314.3c0-0.6-0.2-0.9-0.8-0.9c-0.4,0-0.7,0.1-0.9,0.4l-0.6-0.4c0.4-0.5,0.9-0.7,1.6-0.7
				c0.7,0,1.2,0.2,1.4,0.7c0.1,0.2,0.2,0.5,0.2,1v2.6h-0.7l-0.1-0.3c-0.3,0.3-0.6,0.4-1.2,0.4c-1.1,0-1.5-0.3-1.5-1.3
				c0-1,0.4-1.3,1.6-1.3h0.9V314.3z M196.9,315.2c-0.6,0-0.9,0.2-0.9,0.7c0,0.5,0.2,0.6,0.9,0.6c0.4,0,0.6-0.1,0.8-0.3
				c0.1-0.1,0.1-0.2,0.1-0.5v-0.6H196.9z"/>
			<path class="st1" d="M200.8,311.1v4.5c0,0.6,0.2,0.8,0.7,0.8h0.2v0.7h-0.2c-1.2,0-1.6-0.3-1.6-1.6v-4.4H200.8z"/>
			<path class="st1" d="M202.6,316.1c0.3,0.3,0.5,0.4,1.1,0.4c0.6,0,1-0.2,1-0.6c0-0.2-0.1-0.4-0.3-0.5c-0.2-0.1-0.2-0.1-0.7-0.2
				c-0.6-0.1-0.9-0.2-1.1-0.3c-0.2-0.2-0.4-0.5-0.4-0.9c0-0.8,0.5-1.3,1.5-1.3c0.8,0,1.3,0.2,1.6,0.7l-0.6,0.4
				c-0.3-0.3-0.5-0.4-0.9-0.4c-0.5,0-0.7,0.2-0.7,0.6c0,0.2,0.1,0.3,0.2,0.4c0.1,0.1,0.3,0.1,0.6,0.1c0.7,0.1,1,0.2,1.2,0.3
				c0.3,0.2,0.4,0.5,0.4,1c0,0.9-0.6,1.3-1.7,1.3c-0.8,0-1.4-0.3-1.7-0.7L202.6,316.1z"/>
			<path class="st1" d="M210.4,314.3c0-0.6-0.2-0.9-0.8-0.9c-0.4,0-0.7,0.1-0.9,0.4l-0.6-0.4c0.4-0.5,0.9-0.7,1.6-0.7
				c0.7,0,1.2,0.2,1.4,0.7c0.1,0.2,0.2,0.5,0.2,1v2.6h-0.7l-0.1-0.3c-0.3,0.3-0.6,0.4-1.2,0.4c-1.1,0-1.5-0.3-1.5-1.3
				c0-1,0.4-1.3,1.6-1.3h0.9V314.3z M209.5,315.2c-0.6,0-0.9,0.2-0.9,0.7c0,0.5,0.2,0.6,0.9,0.6c0.4,0,0.6-0.1,0.8-0.3
				c0.1-0.1,0.1-0.2,0.1-0.5v-0.6H209.5z"/>
			<path class="st1" d="M212.6,312.9h0.7l0.1,0.4c0.3-0.4,0.6-0.5,1.2-0.5c0.7,0,1.2,0.3,1.4,0.8c0.1,0.2,0.1,0.6,0.1,1.1v2.4h-0.9
				v-2.4c0-0.9-0.2-1.3-0.8-1.3c-0.6,0-0.9,0.4-0.9,1.4v2.2h-0.9V312.9z"/>
			<path class="st1" d="M220,316.8C220,316.8,220,316.8,220,316.8c-0.1,0.1-0.1,0.1-0.2,0.1c-0.2,0.2-0.6,0.3-1,0.3
				c-1.1,0-1.6-0.6-1.6-1.9v-0.6c0-1.3,0.5-1.9,1.6-1.9c0.3,0,0.6,0,0.8,0.2c0,0,0.1,0.1,0.2,0.2v-2h0.9v6h-0.7L220,316.8z
				 M218.1,315.3c0,0.9,0.3,1.3,0.9,1.3c0.6,0,0.9-0.4,0.9-1.1v-0.8c0-0.8-0.3-1.1-0.9-1.1c-0.6,0-0.9,0.4-0.9,1.3V315.3z"/>
		</g>
		<g class="st0">
			<path class="st1" d="M223.9,311.1h3.6v0.7h-2.7v1.9h2.3v0.7h-2.3v2.6h-0.9V311.1z"/>
		</g>
		<g class="st0">
			<path class="st1" d="M230.5,314.3c0-0.6-0.2-0.9-0.8-0.9c-0.4,0-0.7,0.1-0.9,0.4l-0.6-0.4c0.4-0.5,0.9-0.7,1.6-0.7
				c0.7,0,1.2,0.2,1.4,0.7c0.1,0.2,0.2,0.5,0.2,1v2.6h-0.7l-0.1-0.3c-0.3,0.3-0.6,0.4-1.2,0.4c-1.1,0-1.5-0.3-1.5-1.3
				c0-1,0.4-1.3,1.6-1.3h0.9V314.3z M229.6,315.2c-0.6,0-0.9,0.2-0.9,0.7c0,0.5,0.2,0.6,0.9,0.6c0.4,0,0.6-0.1,0.8-0.3
				c0.1-0.1,0.1-0.2,0.1-0.5v-0.6H229.6z"/>
			<path class="st1" d="M232.7,312.9h0.7l0.1,0.4c0.2-0.3,0.6-0.5,1.1-0.5c0.6,0,1,0.2,1.2,0.6c0.2-0.4,0.6-0.6,1.2-0.6
				c0.7,0,1.2,0.3,1.4,0.8c0.1,0.3,0.1,0.6,0.1,1.1v2.4h-0.9v-2.4c0-0.9-0.2-1.3-0.8-1.3c-0.6,0-0.8,0.4-0.8,1.4v2.2h-0.9v-2.4
				c0-0.9-0.2-1.3-0.8-1.3c-0.6,0-0.8,0.4-0.8,1.4v2.2h-0.9V312.9z"/>
			<path class="st1" d="M239.7,311.1h0.9v1h-0.9V311.1z M239.7,312.9h0.9v4.3h-0.9V312.9z"/>
			<path class="st1" d="M242.8,311.1v4.5c0,0.6,0.2,0.8,0.7,0.8h0.2v0.7h-0.2c-1.2,0-1.6-0.3-1.6-1.6v-4.4H242.8z"/>
			<path class="st1" d="M244.4,311.1h0.9v1h-0.9V311.1z M244.4,312.9h0.9v4.3h-0.9V312.9z"/>
		</g>
		<g class="st0">
			<path class="st1" d="M247.4,315.3c0,0.8,0.4,1.2,1.1,1.2c0.4,0,0.7-0.1,0.9-0.4l0.6,0.4c-0.4,0.5-0.8,0.7-1.6,0.7
				c-1.3,0-1.8-0.6-1.8-2v-0.3c0-1.5,0.5-2.1,1.8-2.1c1.3,0,1.8,0.6,1.8,2.1v0.3h-2.7V315.3z M249.3,314.6L249.3,314.6
				c0-0.8-0.3-1.1-0.9-1.1c-0.4,0-0.6,0.1-0.8,0.4c-0.1,0.2-0.2,0.4-0.2,0.7v0.1H249.3z"/>
		</g>
		<g class="st0">
			<path class="st1" d="M251.5,316.1c0.3,0.3,0.5,0.4,1.1,0.4c0.6,0,1-0.2,1-0.6c0-0.2-0.1-0.4-0.3-0.5c-0.2-0.1-0.2-0.1-0.7-0.2
				c-0.6-0.1-0.9-0.2-1.1-0.3c-0.2-0.2-0.4-0.5-0.4-0.9c0-0.8,0.5-1.3,1.5-1.3c0.8,0,1.3,0.2,1.6,0.7l-0.6,0.4
				c-0.3-0.3-0.5-0.4-0.9-0.4c-0.5,0-0.7,0.2-0.7,0.6c0,0.2,0.1,0.3,0.2,0.4c0.1,0.1,0.3,0.1,0.6,0.1c0.7,0.1,0.9,0.2,1.2,0.3
				c0.3,0.2,0.4,0.5,0.4,1c0,0.9-0.6,1.3-1.7,1.3c-0.8,0-1.4-0.3-1.7-0.7L251.5,316.1z"/>
		</g>
		<g class="st0">
			<path class="st3" d="M276,317.1h-5.8v-5.8h5.8V317.1z"/>
		</g>
		<g class="st0">
			<path class="st1" d="M279.6,315.8c0.3,0.4,0.7,0.6,1.4,0.6c0.8,0,1.2-0.3,1.2-1c0-0.3-0.1-0.6-0.3-0.7c-0.2-0.1-0.2-0.1-1.1-0.4
				c-1.2-0.3-1.7-0.8-1.7-1.7c0-1.1,0.7-1.7,1.9-1.7c0.9,0,1.5,0.3,1.8,0.8l-0.7,0.4c-0.3-0.4-0.6-0.5-1.2-0.5c-0.6,0-1,0.3-1,0.9
				s0.3,0.8,1.3,1.1c0.8,0.2,0.9,0.3,1.3,0.5c0.4,0.3,0.6,0.7,0.6,1.3c0,1.1-0.7,1.7-2.1,1.7c-1,0-1.7-0.3-2.1-0.9L279.6,315.8z"/>
		</g>
		<g class="st0">
			<path class="st1" d="M283.8,313.5v-0.7h0.5l0-1.3h0.8v1.3h0.8v0.7h-0.8v2.1c0,0.6,0.2,0.8,0.7,0.8h0.1v0.7h-0.2
				c-1.3,0-1.6-0.3-1.6-1.6v-2H283.8z"/>
		</g>
		<g class="st0">
			<path class="st1" d="M289.4,314.3c0-0.6-0.2-0.9-0.8-0.9c-0.4,0-0.7,0.1-0.9,0.4l-0.6-0.4c0.4-0.5,0.9-0.7,1.6-0.7
				c0.7,0,1.2,0.2,1.4,0.7c0.1,0.2,0.2,0.5,0.2,1v2.6h-0.7l-0.1-0.3c-0.3,0.3-0.6,0.4-1.2,0.4c-1.1,0-1.5-0.3-1.5-1.3
				c0-1,0.4-1.3,1.6-1.3h0.9V314.3z M288.5,315.2c-0.6,0-0.9,0.2-0.9,0.7c0,0.5,0.2,0.6,0.9,0.6c0.4,0,0.6-0.1,0.8-0.3
				c0.1-0.1,0.1-0.2,0.1-0.5v-0.6H288.5z"/>
			<path class="st1" d="M291.3,313.5v-0.7h0.5v-0.6c0-0.9,0.3-1.2,1.3-1.2h0.4v0.7h-0.2c-0.5,0-0.6,0.1-0.6,0.6v0.5h0.7v0.7h-0.7
				v3.6h-0.9v-3.6H291.3z M293.8,313.5v-0.7h0.5v-0.6c0-0.9,0.3-1.2,1.3-1.2h0.4v0.7h-0.3c-0.5,0-0.6,0.1-0.6,0.6v0.5h0.9v0.7h-0.9
				v3.6h-0.9v-3.6H293.8z"/>
			<path class="st1" d="M297.7,315.3c0,0.8,0.4,1.2,1.1,1.2c0.4,0,0.7-0.1,0.9-0.4l0.6,0.4c-0.4,0.5-0.8,0.7-1.6,0.7
				c-1.3,0-1.8-0.6-1.8-2v-0.3c0-1.5,0.5-2.1,1.8-2.1s1.8,0.6,1.8,2.1v0.3h-2.7V315.3z M299.6,314.6L299.6,314.6
				c0-0.8-0.3-1.1-0.9-1.1c-0.4,0-0.6,0.1-0.8,0.4c-0.1,0.2-0.2,0.4-0.2,0.7v0.1H299.6z"/>
			<path class="st1" d="M304.3,316.8C304.2,316.8,304.2,316.8,304.3,316.8c-0.1,0.1-0.1,0.1-0.2,0.1c-0.2,0.2-0.6,0.3-1,0.3
				c-1.1,0-1.6-0.6-1.6-1.9v-0.6c0-1.3,0.5-1.9,1.6-1.9c0.3,0,0.6,0,0.8,0.2c0,0,0.1,0.1,0.2,0.2v-2h0.9v6h-0.7L304.3,316.8z
				 M302.3,315.3c0,0.9,0.3,1.3,0.9,1.3c0.6,0,0.9-0.4,0.9-1.1v-0.8c0-0.8-0.3-1.1-0.9-1.1c-0.6,0-0.9,0.4-0.9,1.3V315.3z"/>
		</g>
		<g class="st0">
			<path class="st1" d="M308.2,311.1h3.6v0.7h-2.7v1.9h2.3v0.7h-2.3v2.6h-0.9V311.1z"/>
		</g>
		<g class="st0">
			<path class="st1" d="M312.5,314.7c0-1.3,0.6-1.9,1.8-1.9c1.2,0,1.8,0.6,1.8,1.9v0.7c0,1.3-0.6,1.9-1.8,1.9
				c-1.3,0-1.8-0.6-1.8-1.9V314.7z M315.2,314.7c0-0.9-0.3-1.3-1-1.3c-0.7,0-0.9,0.4-0.9,1.3v0.5c0,0.9,0.3,1.3,0.9,1.3
				c0.7,0,1-0.4,1-1.3V314.7z"/>
			<path class="st1" d="M318.1,312.9v2.4c0,0.9,0.2,1.3,0.8,1.3c0.6,0,0.8-0.4,0.8-1.4v-2.2h0.9v4.3H320l-0.1-0.4
				c-0.2,0.4-0.6,0.5-1.1,0.5c-0.7,0-1.2-0.3-1.4-0.8c-0.1-0.2-0.1-0.6-0.1-1.1v-2.4H318.1z"/>
			<path class="st1" d="M322,312.9h0.7l0.1,0.4c0.3-0.4,0.6-0.5,1.2-0.5c0.7,0,1.2,0.3,1.4,0.8c0.1,0.2,0.1,0.6,0.1,1.1v2.4h-0.9
				v-2.4c0-0.9-0.2-1.3-0.8-1.3c-0.6,0-0.9,0.4-0.9,1.4v2.2H322V312.9z"/>
			<path class="st1" d="M329.4,316.8C329.4,316.8,329.4,316.8,329.4,316.8c-0.1,0.1-0.1,0.1-0.2,0.1c-0.2,0.2-0.6,0.3-1,0.3
				c-1.1,0-1.6-0.6-1.6-1.9v-0.6c0-1.3,0.5-1.9,1.6-1.9c0.3,0,0.6,0,0.8,0.2c0,0,0.1,0.1,0.2,0.2v-2h0.9v6h-0.7L329.4,316.8z
				 M327.5,315.3c0,0.9,0.3,1.3,0.9,1.3c0.6,0,0.9-0.4,0.9-1.1v-0.8c0-0.8-0.3-1.1-0.9-1.1c-0.6,0-0.9,0.4-0.9,1.3V315.3z"/>
			<path class="st1" d="M333.8,314.3c0-0.6-0.2-0.9-0.8-0.9c-0.4,0-0.7,0.1-0.9,0.4l-0.6-0.4c0.4-0.5,0.9-0.7,1.6-0.7
				c0.7,0,1.2,0.2,1.4,0.7c0.1,0.2,0.2,0.5,0.2,1v2.6h-0.7l-0.1-0.3c-0.3,0.3-0.6,0.4-1.2,0.4c-1.1,0-1.5-0.3-1.5-1.3
				c0-1,0.4-1.3,1.6-1.3h0.9V314.3z M332.9,315.2c-0.6,0-0.9,0.2-0.9,0.7c0,0.5,0.2,0.6,0.9,0.6c0.4,0,0.6-0.1,0.8-0.3
				c0.1-0.1,0.1-0.2,0.1-0.5v-0.6H332.9z"/>
		</g>
		<g class="st0">
			<path class="st1" d="M335.6,313.5v-0.7h0.5l0-1.3h0.8v1.3h0.8v0.7h-0.8v2.1c0,0.6,0.2,0.8,0.7,0.8h0.1v0.7h-0.2
				c-1.3,0-1.6-0.3-1.6-1.6v-2H335.6z"/>
		</g>
		<g class="st0">
			<path class="st1" d="M338.8,311.1h0.9v1h-0.9V311.1z M338.8,312.9h0.9v4.3h-0.9V312.9z"/>
			<path class="st1" d="M340.9,314.7c0-1.3,0.6-1.9,1.8-1.9c1.2,0,1.8,0.6,1.8,1.9v0.7c0,1.3-0.6,1.9-1.8,1.9
				c-1.3,0-1.8-0.6-1.8-1.9V314.7z M343.7,314.7c0-0.9-0.3-1.3-1-1.3c-0.7,0-0.9,0.4-0.9,1.3v0.5c0,0.9,0.3,1.3,0.9,1.3
				c0.7,0,1-0.4,1-1.3V314.7z"/>
			<path class="st1" d="M345.7,312.9h0.7l0.1,0.4c0.3-0.4,0.6-0.5,1.2-0.5c0.7,0,1.2,0.3,1.4,0.8c0.1,0.2,0.1,0.6,0.1,1.1v2.4h-0.9
				v-2.4c0-0.9-0.2-1.3-0.8-1.3c-0.6,0-0.9,0.4-0.9,1.4v2.2h-0.9V312.9z"/>
		</g>
		<g class="st0">
			<path class="st4" d="M376.1,317.1h-5.8v-5.8h5.8V317.1z"/>
		</g>
		<g class="st0">
			<path class="st1" d="M379.4,313.4c0-0.9,0.1-1.3,0.5-1.7c0.4-0.4,0.9-0.6,1.7-0.6c0.8,0,1.4,0.2,1.7,0.7c0.3,0.4,0.4,0.8,0.4,1.6
				v1.5c0,0.9-0.1,1.3-0.5,1.7c-0.4,0.4-0.9,0.6-1.7,0.6c-0.8,0-1.4-0.2-1.8-0.7c-0.3-0.4-0.4-0.8-0.4-1.6V313.4z M382.8,313.5
				c0-1.2-0.4-1.7-1.3-1.7c-0.9,0-1.3,0.5-1.3,1.7v1.3c0,1.2,0.4,1.7,1.3,1.7c0.9,0,1.3-0.5,1.3-1.7V313.5z"/>
		</g>
		<g class="st0">
			<path class="st1" d="M384.7,313.5v-0.7h0.5l0-1.3h0.8v1.3h0.8v0.7H386v2.1c0,0.6,0.2,0.8,0.7,0.8h0.1v0.7h-0.2
				c-1.3,0-1.6-0.3-1.6-1.6v-2H384.7z"/>
		</g>
		<g class="st0">
			<path class="st1" d="M387.9,311.1h0.9v2c0.3-0.3,0.6-0.4,1.1-0.4c0.7,0,1.2,0.3,1.4,0.8c0.1,0.2,0.1,0.6,0.1,1.1v2.4h-0.9v-2.4
				c0-0.9-0.2-1.3-0.8-1.3c-0.6,0-0.9,0.4-0.9,1.4v2.2h-0.9V311.1z"/>
			<path class="st1" d="M393.4,315.3c0,0.8,0.4,1.2,1.1,1.2c0.4,0,0.7-0.1,0.9-0.4l0.6,0.4c-0.4,0.5-0.8,0.7-1.6,0.7
				c-1.3,0-1.8-0.6-1.8-2v-0.3c0-1.5,0.5-2.1,1.8-2.1c1.3,0,1.8,0.6,1.8,2.1v0.3h-2.7V315.3z M395.3,314.6L395.3,314.6
				c0-0.8-0.3-1.1-0.9-1.1c-0.4,0-0.6,0.1-0.8,0.4c-0.1,0.2-0.2,0.4-0.2,0.7v0.1H395.3z"/>
			<path class="st1" d="M397.3,312.9h0.7l0.1,0.4c0.3-0.3,0.5-0.4,1-0.4c0.3,0,0.5,0.1,0.9,0.2l-0.4,0.7c-0.2-0.2-0.4-0.2-0.6-0.2
				c-0.5,0-0.8,0.5-0.8,1.5v2.1h-0.9V312.9z"/>
		</g>
		<line class="st5" x1="0" y1="272.1" x2="491.8" y2="272.1"/>
		<line class="st6" x1="70.3" y1="272.1" x2="70.3" y2="265.6"/>
		<line class="st6" x1="210.8" y1="272.1" x2="210.8" y2="265.6"/>
		<line class="st6" x1="281" y1="272.1" x2="281" y2="265.6"/>
		<line class="st6" x1="351.3" y1="272.1" x2="351.3" y2="265.6"/>
		<line class="st6" x1="421.6" y1="272.1" x2="421.6" y2="265.6"/>
		<line class="st6" x1="491.8" y1="272.1" x2="491.8" y2="265.6"/>
		<line class="st6" x1="32.5" y1="272.1" x2="32.5" y2="265.6"/>
		<rect x="7.2" y="11.7" class="st4" width="50.6" height="5.2"/>
		<rect x="7.2" y="16.9" class="st3" width="50.6" height="226.5"/>
		<rect x="7.2" y="243.4" class="st2" width="50.6" height="10.4"/>
		<rect x="7.2" y="253.9" class="st1" width="50.6" height="18.2"/>
		<g class="st0">
			<path class="st1" d="M18.1,294v-2.5l5.6-6.5c0.5-0.7,0.8-1.1,0.8-1.8c0-1.1-0.7-1.9-1.8-1.9c-0.9,0-1.8,0.5-1.8,1.9h-2.7
				c0-2.7,2-4.4,4.6-4.4c2.6,0,4.5,1.7,4.5,4.3c0,1.4-0.6,2.2-1.6,3.4l-4.2,4.8h5.8v2.5H18.1z"/>
			<path class="st1" d="M34,294.1c-2.4,0-4.6-1.6-4.6-4.5v-6.3c0-2.9,2.1-4.5,4.6-4.5s4.5,1.6,4.5,4.5v6.3
				C38.5,292.5,36.4,294.1,34,294.1z M35.8,283.4c0-1.3-0.7-2-1.8-2s-1.8,0.8-1.8,2v6.2c0,1.3,0.8,2,1.8,2s1.8-0.8,1.8-2V283.4z"/>
			<path class="st1" d="M44.9,294v-12l-3,2.6v-2.9l3-2.6h2.7V294H44.9z"/>
			<path class="st1" d="M56.8,294.1c-2.4,0-4.7-1.3-4.8-4.4h2.7c0,1.3,1,2,2,2c1.2,0,2-0.7,2-2.1c0-1.2-0.8-2.1-2.1-2.1h-0.4v-2.4
				h0.4c1.3,0,1.9-0.8,1.9-1.9c0-1.3-0.8-1.9-1.8-1.9c-1,0-1.8,0.7-1.8,1.8h-2.7c0.1-2.7,2.1-4.3,4.6-4.3c2.6,0,4.6,1.8,4.6,4.3
				c0,1.6-0.7,2.5-1.7,3.1c1.1,0.6,1.9,1.6,1.9,3.4C61.5,292.7,59.3,294.1,56.8,294.1z"/>
		</g>
		<g class="st0">
			<path class="st4" d="M24.4,8.5l2.2-2.7c0.3-0.3,0.8-1,0.9-1.3c0.1-0.3,0.2-0.6,0.2-0.9c0-0.5-0.3-0.7-0.8-0.7
				c-0.4,0-0.6,0.1-0.8,0.5c-0.1,0.2-0.2,0.4-0.2,0.6l-1.6-0.1c0.1-1.6,0.9-2.3,2.6-2.3c1.6,0,2.4,0.8,2.4,2.2
				c0,0.6-0.2,1.1-0.5,1.7c-0.3,0.5-0.3,0.5-1.2,1.5l-1.1,1.2h2.8v1.4h-5.1V8.5z"/>
			<path class="st4" d="M30.5,3.4c0-0.7,0.1-1.1,0.4-1.4c0.3-0.3,0.8-0.5,1.6-0.5c0.8,0,1.3,0.2,1.6,0.6c0.3,0.3,0.4,0.7,0.4,1.3
				v0.8c0,0.7-0.1,1.1-0.4,1.4C33.7,5.9,33.3,6,32.5,6c-0.8,0-1.3-0.2-1.6-0.6c-0.3-0.3-0.4-0.7-0.4-1.3V3.4z M33.1,3.5
				c0-0.8-0.2-1.1-0.6-1.1c-0.5,0-0.6,0.3-0.6,1.1V4C31.9,4.8,32,5,32.5,5c0.4,0,0.6-0.3,0.6-1.1V3.5z M36.1,1.6h1.5l-2.5,8h-1.5
				L36.1,1.6z M36.6,7.1c0-0.7,0.1-1.1,0.4-1.4c0.3-0.3,0.8-0.5,1.6-0.5c0.8,0,1.3,0.2,1.6,0.6c0.3,0.3,0.4,0.7,0.4,1.3v0.8
				c0,0.7-0.1,1.1-0.4,1.4c-0.3,0.3-0.8,0.5-1.6,0.5c-0.8,0-1.3-0.2-1.6-0.6c-0.3-0.3-0.4-0.7-0.4-1.3V7.1z M39.2,7.2
				c0-0.8-0.2-1.1-0.6-1.1c-0.4,0-0.6,0.3-0.6,1.1v0.4c0,0.8,0.2,1.1,0.6,1.1c0.4,0,0.6-0.3,0.6-1.1V7.2z"/>
		</g>
		<g class="st0">
			<path class="st7" d="M21.7,129.2c0-1.6,0.7-2.3,2.4-2.3c1.6,0,2.4,0.7,2.4,2.3c0,0.7-0.2,1.2-0.5,1.6c0.5,0.4,0.8,0.9,0.8,1.9
				c0,0.9-0.2,1.5-0.6,1.9c-0.5,0.4-1,0.6-2,0.6c-1.8,0-2.6-0.7-2.6-2.5c0-1,0.2-1.5,0.8-1.9C21.9,130.4,21.7,130,21.7,129.2z
				 M23.2,132.7c0,0.8,0.2,1.1,0.9,1.1c0.7,0,0.9-0.3,0.9-1.1c0-0.8-0.2-1.1-0.9-1.1C23.4,131.6,23.2,131.9,23.2,132.7z M23.3,129.3
				c0,0.8,0.2,1,0.8,1c0.6,0,0.7-0.3,0.7-1c0-0.8-0.2-1-0.7-1C23.5,128.3,23.3,128.5,23.3,129.3z"/>
			<path class="st7" d="M30.6,128.5h-2.8v-1.4h4.6v1l-2.3,7h-1.8L30.6,128.5z"/>
			<path class="st7" d="M33.5,128.9c0-0.7,0.1-1.1,0.4-1.4c0.3-0.3,0.8-0.5,1.6-0.5c0.8,0,1.3,0.2,1.6,0.6c0.3,0.3,0.4,0.7,0.4,1.3
				v0.8c0,0.7-0.1,1.1-0.4,1.4c-0.3,0.3-0.8,0.5-1.6,0.5c-0.8,0-1.3-0.2-1.6-0.6c-0.3-0.3-0.4-0.7-0.4-1.3V128.9z M36.1,129
				c0-0.8-0.2-1.1-0.6-1.1c-0.5,0-0.6,0.3-0.6,1.1v0.4c0,0.8,0.2,1.1,0.6,1.1c0.4,0,0.6-0.3,0.6-1.1V129z M39.1,127.1h1.5l-2.5,8
				h-1.5L39.1,127.1z M39.6,132.5c0-0.7,0.1-1.1,0.4-1.4c0.3-0.3,0.8-0.5,1.6-0.5c0.8,0,1.3,0.2,1.6,0.6c0.3,0.3,0.4,0.7,0.4,1.3
				v0.8c0,0.7-0.1,1.1-0.4,1.4c-0.3,0.3-0.8,0.5-1.6,0.5c-0.8,0-1.3-0.2-1.6-0.6c-0.3-0.3-0.4-0.7-0.4-1.3V132.5z M42.2,132.7
				c0-0.8-0.2-1.1-0.6-1.1c-0.4,0-0.6,0.3-0.6,1.1v0.4c0,0.8,0.2,1.1,0.6,1.1c0.4,0,0.6-0.3,0.6-1.1V132.7z"/>
		</g>
		<g class="st0">
			<path class="st7" d="M27.6,251.1h-3.1v-1l2.4-5.6h1.8l-2.3,5.3h1.2v-1.8h1.5v1.8h0.7v1.4h-0.7v1.4h-1.5V251.1z"/>
			<path class="st7" d="M30.5,246.3c0-0.7,0.1-1.1,0.4-1.4c0.3-0.3,0.8-0.5,1.6-0.5c0.8,0,1.3,0.2,1.6,0.6c0.3,0.3,0.4,0.7,0.4,1.3
				v0.8c0,0.7-0.1,1.1-0.4,1.4c-0.3,0.3-0.8,0.5-1.6,0.5c-0.8,0-1.3-0.2-1.6-0.6c-0.3-0.3-0.4-0.7-0.4-1.3V246.3z M33.1,246.4
				c0-0.8-0.2-1.1-0.6-1.1c-0.5,0-0.6,0.3-0.6,1.1v0.4c0,0.8,0.2,1.1,0.6,1.1c0.4,0,0.6-0.3,0.6-1.1V246.4z M36.1,244.5h1.5l-2.5,8
				h-1.5L36.1,244.5z M36.6,249.9c0-0.7,0.1-1.1,0.4-1.4c0.3-0.3,0.8-0.5,1.6-0.5c0.8,0,1.3,0.2,1.6,0.6c0.3,0.3,0.4,0.7,0.4,1.3
				v0.8c0,0.7-0.1,1.1-0.4,1.4c-0.3,0.3-0.8,0.5-1.6,0.5c-0.8,0-1.3-0.2-1.6-0.6c-0.3-0.3-0.4-0.7-0.4-1.3V249.9z M39.2,250.1
				c0-0.8-0.2-1.1-0.6-1.1c-0.4,0-0.6,0.3-0.6,1.1v0.4c0,0.8,0.2,1.1,0.6,1.1c0.4,0,0.6-0.3,0.6-1.1V250.1z"/>
		</g>
		<g class="st0">
			<path class="st7" d="M27.5,260.5h-2.8v-1.4h4.6v1l-2.3,7h-1.8L27.5,260.5z"/>
			<path class="st7" d="M30.5,260.9c0-0.7,0.1-1.1,0.4-1.4c0.3-0.3,0.8-0.5,1.6-0.5c0.8,0,1.3,0.2,1.6,0.6c0.3,0.3,0.4,0.7,0.4,1.3
				v0.8c0,0.7-0.1,1.1-0.4,1.4c-0.3,0.3-0.8,0.5-1.6,0.5c-0.8,0-1.3-0.2-1.6-0.6c-0.3-0.3-0.4-0.7-0.4-1.3V260.9z M33.1,261
				c0-0.8-0.2-1.1-0.6-1.1c-0.5,0-0.6,0.3-0.6,1.1v0.4c0,0.8,0.2,1.1,0.6,1.1c0.4,0,0.6-0.3,0.6-1.1V261z M36.1,259.1h1.5l-2.5,8
				h-1.5L36.1,259.1z M36.6,264.6c0-0.7,0.1-1.1,0.4-1.4c0.3-0.3,0.8-0.5,1.6-0.5c0.8,0,1.3,0.2,1.6,0.6c0.3,0.3,0.4,0.7,0.4,1.3
				v0.8c0,0.7-0.1,1.1-0.4,1.4c-0.3,0.3-0.8,0.5-1.6,0.5c-0.8,0-1.3-0.2-1.6-0.6c-0.3-0.3-0.4-0.7-0.4-1.3V264.6z M39.2,264.7
				c0-0.8-0.2-1.1-0.6-1.1c-0.4,0-0.6,0.3-0.6,1.1v0.4c0,0.8,0.2,1.1,0.6,1.1c0.4,0,0.6-0.3,0.6-1.1V264.7z"/>
		</g>
		<rect x="77.9" y="11.8" class="st4" width="50.6" height="7.7"/>
		<rect x="77.9" y="19.5" class="st3" width="50.6" height="229.1"/>
		<rect x="77.9" y="248.6" class="st2" width="50.6" height="18.2"/>
		<rect x="77.9" y="266.9" class="st1" width="50.6" height="5.2"/>
		<g class="st0">
			<path class="st1" d="M88.8,294v-2.5l5.6-6.5c0.5-0.7,0.8-1.1,0.8-1.8c0-1.1-0.7-1.9-1.8-1.9c-0.9,0-1.8,0.5-1.8,1.9h-2.7
				c0-2.7,2-4.4,4.6-4.4c2.6,0,4.5,1.7,4.5,4.3c0,1.4-0.6,2.2-1.6,3.4l-4.2,4.8h5.8v2.5H88.8z"/>
			<path class="st1" d="M104.7,294.1c-2.4,0-4.6-1.6-4.6-4.5v-6.3c0-2.9,2.1-4.5,4.6-4.5s4.5,1.6,4.5,4.5v6.3
				C109.2,292.5,107.1,294.1,104.7,294.1z M106.5,283.4c0-1.3-0.7-2-1.8-2s-1.8,0.8-1.8,2v6.2c0,1.3,0.8,2,1.8,2s1.8-0.8,1.8-2
				V283.4z"/>
			<path class="st1" d="M115.6,294v-12l-3,2.6v-2.9l3-2.6h2.7V294H115.6z"/>
			<path class="st1" d="M131.2,291.9v2.1h-2.6v-2.1h-6.1v-2.6l5.1-10.2h3l-5.1,10.2h3.1v-2.8h2.6v2.8h1.4v2.6H131.2z"/>
		</g>
		<g class="st0">
			<path class="st4" d="M96.7,4.7h0.6c0.7,0,1.1-0.3,1.1-1c0-0.6-0.3-0.9-0.8-0.9c-0.5,0-0.8,0.3-0.9,0.9l-1.5-0.1
				c0.1-1.4,0.9-2.1,2.5-2.1c1.6,0,2.4,0.8,2.4,2.2c0,0.8-0.2,1.3-0.8,1.7c0.7,0.5,1,1,1,1.9c0,1.6-0.8,2.4-2.6,2.4
				c-1.1,0-1.8-0.3-2.3-0.9C95.2,8.5,95,8.1,95,7.5l1.6-0.2c0.1,0.7,0.4,1,1,1c0.6,0,0.9-0.4,0.9-1.1c0-0.7-0.5-1.2-1.2-1.2h-0.7
				V4.7z"/>
			<path class="st4" d="M101.2,3.4c0-0.7,0.1-1.1,0.4-1.4c0.3-0.3,0.8-0.5,1.6-0.5c0.8,0,1.3,0.2,1.6,0.6c0.3,0.3,0.4,0.7,0.4,1.3
				v0.8c0,0.7-0.1,1.1-0.4,1.4C104.4,5.9,104,6,103.2,6c-0.8,0-1.3-0.2-1.6-0.6c-0.3-0.3-0.4-0.7-0.4-1.3V3.4z M103.8,3.5
				c0-0.8-0.2-1.1-0.6-1.1c-0.5,0-0.6,0.3-0.6,1.1V4c0,0.8,0.2,1.1,0.6,1.1c0.4,0,0.6-0.3,0.6-1.1V3.5z M106.8,1.6h1.5l-2.5,8h-1.5
				L106.8,1.6z M107.3,7.1c0-0.7,0.1-1.1,0.4-1.4c0.3-0.3,0.8-0.5,1.6-0.5c0.8,0,1.3,0.2,1.6,0.6c0.3,0.3,0.4,0.7,0.4,1.3v0.8
				c0,0.7-0.1,1.1-0.4,1.4c-0.3,0.3-0.8,0.5-1.6,0.5c-0.8,0-1.3-0.2-1.6-0.6c-0.3-0.3-0.4-0.7-0.4-1.3V7.1z M109.9,7.2
				c0-0.8-0.2-1.1-0.6-1.1c-0.4,0-0.6,0.3-0.6,1.1v0.4c0,0.8,0.2,1.1,0.6,1.1c0.4,0,0.6-0.3,0.6-1.1V7.2z"/>
		</g>
		<g class="st0">
			<path class="st7" d="M92.4,131.2c0-1.6,0.7-2.3,2.4-2.3c1.6,0,2.4,0.7,2.4,2.3c0,0.7-0.2,1.2-0.5,1.6c0.5,0.4,0.8,0.9,0.8,1.9
				c0,0.9-0.2,1.5-0.6,1.9c-0.5,0.4-1,0.6-2,0.6c-1.8,0-2.6-0.7-2.6-2.5c0-1,0.2-1.5,0.8-1.9C92.6,132.4,92.4,132,92.4,131.2z
				 M93.9,134.7c0,0.8,0.2,1.1,0.9,1.1c0.7,0,0.9-0.3,0.9-1.1c0-0.8-0.2-1.1-0.9-1.1C94.1,133.6,93.9,133.9,93.9,134.7z M94,131.3
				c0,0.8,0.2,1,0.8,1c0.6,0,0.7-0.3,0.7-1c0-0.8-0.2-1-0.7-1C94.2,130.3,94,130.5,94,131.3z"/>
			<path class="st7" d="M98.5,131.2c0-1.6,0.7-2.3,2.4-2.3c1.6,0,2.4,0.7,2.4,2.3c0,0.7-0.2,1.2-0.5,1.6c0.5,0.4,0.8,0.9,0.8,1.9
				c0,0.9-0.2,1.5-0.6,1.9c-0.5,0.4-1,0.6-2,0.6c-1.8,0-2.6-0.7-2.6-2.5c0-1,0.2-1.5,0.8-1.9C98.6,132.4,98.5,132,98.5,131.2z
				 M99.9,134.7c0,0.8,0.2,1.1,0.9,1.1c0.7,0,0.9-0.3,0.9-1.1c0-0.8-0.2-1.1-0.9-1.1C100.2,133.6,99.9,133.9,99.9,134.7z
				 M100.1,131.3c0,0.8,0.2,1,0.8,1c0.6,0,0.7-0.3,0.7-1c0-0.8-0.2-1-0.7-1C100.3,130.3,100.1,130.5,100.1,131.3z"/>
			<path class="st7" d="M104.2,130.9c0-0.7,0.1-1.1,0.4-1.4c0.3-0.3,0.8-0.5,1.6-0.5c0.8,0,1.3,0.2,1.6,0.6c0.3,0.3,0.4,0.7,0.4,1.3
				v0.8c0,0.7-0.1,1.1-0.4,1.4c-0.3,0.3-0.8,0.5-1.6,0.5c-0.8,0-1.3-0.2-1.6-0.6c-0.3-0.3-0.4-0.7-0.4-1.3V130.9z M106.8,131
				c0-0.8-0.2-1.1-0.6-1.1c-0.5,0-0.6,0.3-0.6,1.1v0.4c0,0.8,0.2,1.1,0.6,1.1c0.4,0,0.6-0.3,0.6-1.1V131z M109.8,129.1h1.5l-2.5,8
				h-1.5L109.8,129.1z M110.3,134.5c0-0.7,0.1-1.1,0.4-1.4c0.3-0.3,0.8-0.5,1.6-0.5c0.8,0,1.3,0.2,1.6,0.6c0.3,0.3,0.4,0.7,0.4,1.3
				v0.8c0,0.7-0.1,1.1-0.4,1.4c-0.3,0.3-0.8,0.5-1.6,0.5c-0.8,0-1.3-0.2-1.6-0.6c-0.3-0.3-0.4-0.7-0.4-1.3V134.5z M112.9,134.7
				c0-0.8-0.2-1.1-0.6-1.1c-0.4,0-0.6,0.3-0.6,1.1v0.4c0,0.8,0.2,1.1,0.6,1.1c0.4,0,0.6-0.3,0.6-1.1V134.7z"/>
		</g>
		<g class="st0">
			<path class="st7" d="M98.3,251.7h-2.8v-1.4h4.6v1l-2.3,7h-1.8L98.3,251.7z"/>
			<path class="st7" d="M101.2,252.1c0-0.7,0.1-1.1,0.4-1.4c0.3-0.3,0.8-0.5,1.6-0.5c0.8,0,1.3,0.2,1.6,0.6c0.3,0.3,0.4,0.7,0.4,1.3
				v0.8c0,0.7-0.1,1.1-0.4,1.4c-0.3,0.3-0.8,0.5-1.6,0.5c-0.8,0-1.3-0.2-1.6-0.6c-0.3-0.3-0.4-0.7-0.4-1.3V252.1z M103.8,252.2
				c0-0.8-0.2-1.1-0.6-1.1c-0.5,0-0.6,0.3-0.6,1.1v0.4c0,0.8,0.2,1.1,0.6,1.1c0.4,0,0.6-0.3,0.6-1.1V252.2z M106.8,250.3h1.5l-2.5,8
				h-1.5L106.8,250.3z M107.3,255.8c0-0.7,0.1-1.1,0.4-1.4c0.3-0.3,0.8-0.5,1.6-0.5c0.8,0,1.3,0.2,1.6,0.6c0.3,0.3,0.4,0.7,0.4,1.3
				v0.8c0,0.7-0.1,1.1-0.4,1.4c-0.3,0.3-0.8,0.5-1.6,0.5c-0.8,0-1.3-0.2-1.6-0.6c-0.3-0.3-0.4-0.7-0.4-1.3V255.8z M109.9,255.9
				c0-0.8-0.2-1.1-0.6-1.1c-0.4,0-0.6,0.3-0.6,1.1v0.4c0,0.8,0.2,1.1,0.6,1.1c0.4,0,0.6-0.3,0.6-1.1V255.9z"/>
		</g>
		<g class="st0">
			<path class="st7" d="M95.1,269.8l2.2-2.7c0.3-0.3,0.8-1,0.9-1.3c0.1-0.3,0.2-0.6,0.2-0.9c0-0.5-0.3-0.7-0.8-0.7
				c-0.4,0-0.6,0.1-0.8,0.5c-0.1,0.2-0.2,0.4-0.2,0.6l-1.6-0.1c0.1-1.6,0.9-2.3,2.6-2.3c1.6,0,2.4,0.8,2.4,2.2
				c0,0.6-0.2,1.1-0.5,1.7c-0.3,0.5-0.3,0.5-1.2,1.5l-1.1,1.2h2.8v1.4h-5.1V269.8z"/>
			<path class="st7" d="M101.2,264.7c0-0.7,0.1-1.1,0.4-1.4c0.3-0.3,0.8-0.5,1.6-0.5c0.8,0,1.3,0.2,1.6,0.6c0.3,0.3,0.4,0.7,0.4,1.3
				v0.8c0,0.7-0.1,1.1-0.4,1.4c-0.3,0.3-0.8,0.5-1.6,0.5c-0.8,0-1.3-0.2-1.6-0.6c-0.3-0.3-0.4-0.7-0.4-1.3V264.7z M103.8,264.9
				c0-0.8-0.2-1.1-0.6-1.1c-0.5,0-0.6,0.3-0.6,1.1v0.4c0,0.8,0.2,1.1,0.6,1.1c0.4,0,0.6-0.3,0.6-1.1V264.9z M106.8,262.9h1.5l-2.5,8
				h-1.5L106.8,262.9z M107.3,268.4c0-0.7,0.1-1.1,0.4-1.4c0.3-0.3,0.8-0.5,1.6-0.5c0.8,0,1.3,0.2,1.6,0.6c0.3,0.3,0.4,0.7,0.4,1.3
				v0.8c0,0.7-0.1,1.1-0.4,1.4c-0.3,0.3-0.8,0.5-1.6,0.5c-0.8,0-1.3-0.2-1.6-0.6c-0.3-0.3-0.4-0.7-0.4-1.3V268.4z M109.9,268.6
				c0-0.8-0.2-1.1-0.6-1.1c-0.4,0-0.6,0.3-0.6,1.1v0.4c0,0.8,0.2,1.1,0.6,1.1c0.4,0,0.6-0.3,0.6-1.1V268.6z"/>
		</g>
		<line class="st6" x1="173.9" y1="272.1" x2="173.9" y2="265.6"/>
		<rect x="148.6" y="11.7" class="st4" width="50.6" height="5.2"/>
		<rect x="148.6" y="16.9" class="st3" width="50.6" height="226.5"/>
		<rect x="148.6" y="243.4" class="st2" width="50.6" height="18.2"/>
		<rect x="148.6" y="261.7" class="st1" width="50.6" height="10.4"/>
		<g class="st0">
			<path class="st1" d="M159.5,294v-2.5l5.6-6.5c0.5-0.7,0.8-1.1,0.8-1.8c0-1.1-0.7-1.9-1.8-1.9c-0.9,0-1.8,0.5-1.8,1.9h-2.7
				c0-2.7,2-4.4,4.6-4.4c2.6,0,4.5,1.7,4.5,4.3c0,1.4-0.6,2.2-1.6,3.4l-4.2,4.8h5.8v2.5H159.5z"/>
			<path class="st1" d="M175.4,294.1c-2.4,0-4.6-1.6-4.6-4.5v-6.3c0-2.9,2.1-4.5,4.6-4.5s4.5,1.6,4.5,4.5v6.3
				C180,292.5,177.9,294.1,175.4,294.1z M177.2,283.4c0-1.3-0.7-2-1.8-2s-1.8,0.8-1.8,2v6.2c0,1.3,0.8,2,1.8,2s1.8-0.8,1.8-2V283.4z
				"/>
			<path class="st1" d="M186.3,294v-12l-3,2.6v-2.9l3-2.6h2.7V294H186.3z"/>
			<path class="st1" d="M201.6,292.9c-0.7,0.7-1.7,1.2-3.3,1.2s-2.7-0.5-3.3-1.2c-0.9-0.9-1.1-2-1.2-3.1h2.7
				c0.1,1.2,0.7,1.8,1.8,1.8c0.5,0,1-0.1,1.3-0.5c0.5-0.5,0.6-1.3,0.6-2.2c0-1.7-0.5-2.7-1.8-2.7c-1.1,0-1.6,0.6-1.8,1.2H194v-8.4
				h8.5v2.5h-6v3.2c0.4-0.4,1.2-0.8,2.2-0.8c1.2,0,2.2,0.4,2.8,1c1.2,1.2,1.3,2.6,1.3,4C202.9,290.6,202.7,291.8,201.6,292.9z"/>
		</g>
		<g class="st0">
			<path class="st4" d="M165.8,8.5l2.2-2.7c0.3-0.3,0.8-1,0.9-1.3c0.1-0.3,0.2-0.6,0.2-0.9c0-0.5-0.3-0.7-0.8-0.7
				c-0.4,0-0.6,0.1-0.8,0.5c-0.1,0.2-0.2,0.4-0.2,0.6l-1.6-0.1c0.1-1.6,0.9-2.3,2.6-2.3c1.6,0,2.4,0.8,2.4,2.2
				c0,0.6-0.2,1.1-0.5,1.7c-0.3,0.5-0.3,0.5-1.2,1.5l-1.1,1.2h2.8v1.4h-5.1V8.5z"/>
			<path class="st4" d="M171.9,3.4c0-0.7,0.1-1.1,0.4-1.4c0.3-0.3,0.8-0.5,1.6-0.5c0.8,0,1.3,0.2,1.6,0.6c0.3,0.3,0.4,0.7,0.4,1.3
				v0.8c0,0.7-0.1,1.1-0.4,1.4c-0.3,0.3-0.8,0.5-1.6,0.5c-0.8,0-1.3-0.2-1.6-0.6c-0.3-0.3-0.4-0.7-0.4-1.3V3.4z M174.5,3.5
				c0-0.8-0.2-1.1-0.6-1.1c-0.5,0-0.6,0.3-0.6,1.1V4c0,0.8,0.2,1.1,0.6,1.1c0.4,0,0.6-0.3,0.6-1.1V3.5z M177.5,1.6h1.5l-2.5,8h-1.5
				L177.5,1.6z M178,7.1c0-0.7,0.1-1.1,0.4-1.4c0.3-0.3,0.8-0.5,1.6-0.5c0.8,0,1.3,0.2,1.6,0.6c0.3,0.3,0.4,0.7,0.4,1.3v0.8
				c0,0.7-0.1,1.1-0.4,1.4c-0.3,0.3-0.8,0.5-1.6,0.5c-0.8,0-1.3-0.2-1.6-0.6c-0.3-0.3-0.4-0.7-0.4-1.3V7.1z M180.6,7.2
				c0-0.8-0.2-1.1-0.6-1.1c-0.4,0-0.6,0.3-0.6,1.1v0.4c0,0.8,0.2,1.1,0.6,1.1c0.4,0,0.6-0.3,0.6-1.1V7.2z"/>
		</g>
		<g class="st0">
			<path class="st7" d="M163.1,128.6c0-1.6,0.7-2.3,2.4-2.3c1.6,0,2.4,0.7,2.4,2.3c0,0.7-0.2,1.2-0.5,1.6c0.5,0.4,0.8,0.9,0.8,1.9
				c0,0.9-0.2,1.5-0.6,1.9c-0.5,0.4-1,0.6-2,0.6c-1.8,0-2.6-0.7-2.6-2.5c0-1,0.2-1.5,0.8-1.9C163.3,129.8,163.1,129.3,163.1,128.6z
				 M164.6,132c0,0.8,0.2,1.1,0.9,1.1c0.7,0,0.9-0.3,0.9-1.1c0-0.8-0.2-1.1-0.9-1.1C164.8,130.9,164.6,131.2,164.6,132z
				 M164.8,128.6c0,0.8,0.2,1,0.8,1c0.6,0,0.7-0.3,0.7-1c0-0.8-0.2-1-0.7-1C164.9,127.6,164.8,127.8,164.8,128.6z"/>
			<path class="st7" d="M172,127.8h-2.8v-1.4h4.6v1l-2.3,7h-1.8L172,127.8z"/>
			<path class="st7" d="M174.9,128.2c0-0.7,0.1-1.1,0.4-1.4c0.3-0.3,0.8-0.5,1.6-0.5c0.8,0,1.3,0.2,1.6,0.6c0.3,0.3,0.4,0.7,0.4,1.3
				v0.8c0,0.7-0.1,1.1-0.4,1.4c-0.3,0.3-0.8,0.5-1.6,0.5c-0.8,0-1.3-0.2-1.6-0.6c-0.3-0.3-0.4-0.7-0.4-1.3V128.2z M177.6,128.3
				c0-0.8-0.2-1.1-0.6-1.1c-0.5,0-0.6,0.3-0.6,1.1v0.4c0,0.8,0.2,1.1,0.6,1.1c0.4,0,0.6-0.3,0.6-1.1V128.3z M180.5,126.4h1.5l-2.5,8
				H178L180.5,126.4z M181.1,131.9c0-0.7,0.1-1.1,0.4-1.4c0.3-0.3,0.8-0.5,1.6-0.5c0.8,0,1.3,0.2,1.6,0.6c0.3,0.3,0.4,0.7,0.4,1.3
				v0.8c0,0.7-0.1,1.1-0.4,1.4c-0.3,0.3-0.8,0.5-1.6,0.5c-0.8,0-1.3-0.2-1.6-0.6c-0.3-0.3-0.4-0.7-0.4-1.3V131.9z M183.7,132
				c0-0.8-0.2-1.1-0.6-1.1c-0.4,0-0.6,0.3-0.6,1.1v0.4c0,0.8,0.2,1.1,0.6,1.1c0.4,0,0.6-0.3,0.6-1.1V132z"/>
		</g>
		<g class="st0">
			<path class="st7" d="M169,249.7h-2.8v-1.4h4.6v1l-2.3,7h-1.8L169,249.7z"/>
			<path class="st7" d="M171.9,250.1c0-0.7,0.1-1.1,0.4-1.4c0.3-0.3,0.8-0.5,1.6-0.5c0.8,0,1.3,0.2,1.6,0.6c0.3,0.3,0.4,0.7,0.4,1.3
				v0.8c0,0.7-0.1,1.1-0.4,1.4c-0.3,0.3-0.8,0.5-1.6,0.5c-0.8,0-1.3-0.2-1.6-0.6c-0.3-0.3-0.4-0.7-0.4-1.3V250.1z M174.5,250.2
				c0-0.8-0.2-1.1-0.6-1.1c-0.5,0-0.6,0.3-0.6,1.1v0.4c0,0.8,0.2,1.1,0.6,1.1c0.4,0,0.6-0.3,0.6-1.1V250.2z M177.5,248.3h1.5l-2.5,8
				h-1.5L177.5,248.3z M178,253.8c0-0.7,0.1-1.1,0.4-1.4c0.3-0.3,0.8-0.5,1.6-0.5c0.8,0,1.3,0.2,1.6,0.6c0.3,0.3,0.4,0.7,0.4,1.3
				v0.8c0,0.7-0.1,1.1-0.4,1.4c-0.3,0.3-0.8,0.5-1.6,0.5c-0.8,0-1.3-0.2-1.6-0.6c-0.3-0.3-0.4-0.7-0.4-1.3V253.8z M180.6,253.9
				c0-0.8-0.2-1.1-0.6-1.1c-0.4,0-0.6,0.3-0.6,1.1v0.4c0,0.8,0.2,1.1,0.6,1.1c0.4,0,0.6-0.3,0.6-1.1V253.9z"/>
		</g>
		<g class="st0">
			<path class="st7" d="M169,269.6h-3.1v-1l2.4-5.6h1.8l-2.3,5.3h1.2v-1.8h1.5v1.8h0.7v1.4h-0.7v1.4H169V269.6z"/>
			<path class="st7" d="M171.9,264.7c0-0.7,0.1-1.1,0.4-1.4c0.3-0.3,0.8-0.5,1.6-0.5c0.8,0,1.3,0.2,1.6,0.6c0.3,0.3,0.4,0.7,0.4,1.3
				v0.8c0,0.7-0.1,1.1-0.4,1.4c-0.3,0.3-0.8,0.5-1.6,0.5c-0.8,0-1.3-0.2-1.6-0.6c-0.3-0.3-0.4-0.7-0.4-1.3V264.7z M174.5,264.9
				c0-0.8-0.2-1.1-0.6-1.1c-0.5,0-0.6,0.3-0.6,1.1v0.4c0,0.8,0.2,1.1,0.6,1.1c0.4,0,0.6-0.3,0.6-1.1V264.9z M177.5,262.9h1.5l-2.5,8
				h-1.5L177.5,262.9z M178,268.4c0-0.7,0.1-1.1,0.4-1.4c0.3-0.3,0.8-0.5,1.6-0.5c0.8,0,1.3,0.2,1.6,0.6c0.3,0.3,0.4,0.7,0.4,1.3
				v0.8c0,0.7-0.1,1.1-0.4,1.4c-0.3,0.3-0.8,0.5-1.6,0.5c-0.8,0-1.3-0.2-1.6-0.6c-0.3-0.3-0.4-0.7-0.4-1.3V268.4z M180.6,268.6
				c0-0.8-0.2-1.1-0.6-1.1c-0.4,0-0.6,0.3-0.6,1.1v0.4c0,0.8,0.2,1.1,0.6,1.1c0.4,0,0.6-0.3,0.6-1.1V268.6z"/>
		</g>
		<rect x="219.4" y="11.7" class="st4" width="50.6" height="18.2"/>
		<rect x="219.4" y="29.9" class="st3" width="50.6" height="210.9"/>
		<rect x="219.4" y="240.8" class="st2" width="50.6" height="13"/>
		<rect x="219.4" y="253.9" class="st1" width="50.6" height="18.2"/>
		<g class="st0">
			<path class="st1" d="M230.3,294v-2.5l5.6-6.5c0.5-0.7,0.8-1.1,0.8-1.8c0-1.1-0.7-1.9-1.8-1.9c-0.9,0-1.8,0.5-1.8,1.9h-2.7
				c0-2.7,2-4.4,4.6-4.4c2.6,0,4.5,1.7,4.5,4.3c0,1.4-0.6,2.2-1.6,3.4l-4.2,4.8h5.8v2.5H230.3z"/>
			<path class="st1" d="M246.1,294.1c-2.4,0-4.6-1.6-4.6-4.5v-6.3c0-2.9,2.1-4.5,4.6-4.5s4.5,1.6,4.5,4.5v6.3
				C250.7,292.5,248.6,294.1,246.1,294.1z M247.9,283.4c0-1.3-0.7-2-1.8-2c-1.1,0-1.8,0.8-1.8,2v6.2c0,1.3,0.8,2,1.8,2
				c1.1,0,1.8-0.8,1.8-2V283.4z"/>
			<path class="st1" d="M257,294v-12l-3,2.6v-2.9l3-2.6h2.7V294H257z"/>
			<path class="st1" d="M268.9,294.1c-2.6,0-4.7-1.7-4.7-4.6c0-1.4,0.6-2.6,1.3-4l3.2-6.5h3l-3.1,6.2c0.4-0.1,0.8-0.2,1.1-0.2
				c2,0,3.9,1.7,3.9,4.4C273.6,292.4,271.5,294.1,268.9,294.1z M268.9,287.3c-1.1,0-1.9,0.8-1.9,2.2c0,1.4,0.8,2.2,1.9,2.2
				c1.1,0,1.9-0.8,1.9-2.2C270.8,288.2,270.1,287.3,268.9,287.3z"/>
		</g>
		<g class="st0">
			<path class="st4" d="M239.7,3h-2.8V1.6h4.6v1l-2.3,7h-1.8L239.7,3z"/>
			<path class="st4" d="M242.6,3.4c0-0.7,0.1-1.1,0.4-1.4c0.3-0.3,0.8-0.5,1.6-0.5c0.8,0,1.3,0.2,1.6,0.6c0.3,0.3,0.4,0.7,0.4,1.3
				v0.8c0,0.7-0.1,1.1-0.4,1.4c-0.3,0.3-0.8,0.5-1.6,0.5c-0.8,0-1.3-0.2-1.6-0.6c-0.3-0.3-0.4-0.7-0.4-1.3V3.4z M245.2,3.5
				c0-0.8-0.2-1.1-0.6-1.1c-0.5,0-0.6,0.3-0.6,1.1V4c0,0.8,0.2,1.1,0.6,1.1c0.4,0,0.6-0.3,0.6-1.1V3.5z M248.2,1.6h1.5l-2.5,8h-1.5
				L248.2,1.6z M248.7,7.1c0-0.7,0.1-1.1,0.4-1.4c0.3-0.3,0.8-0.5,1.6-0.5c0.8,0,1.3,0.2,1.6,0.6c0.3,0.3,0.4,0.7,0.4,1.3v0.8
				c0,0.7-0.1,1.1-0.4,1.4c-0.3,0.3-0.8,0.5-1.6,0.5c-0.8,0-1.3-0.2-1.6-0.6c-0.3-0.3-0.4-0.7-0.4-1.3V7.1z M251.3,7.2
				c0-0.8-0.2-1.1-0.6-1.1c-0.4,0-0.6,0.3-0.6,1.1v0.4c0,0.8,0.2,1.1,0.6,1.1c0.4,0,0.6-0.3,0.6-1.1V7.2z"/>
		</g>
		<g class="st0">
			<path class="st7" d="M233.9,133.5c0-1.6,0.7-2.3,2.4-2.3c1.6,0,2.4,0.7,2.4,2.3c0,0.7-0.2,1.2-0.5,1.6c0.5,0.4,0.8,0.9,0.8,1.9
				c0,0.9-0.2,1.5-0.6,1.9c-0.5,0.4-1,0.6-2,0.6c-1.8,0-2.6-0.7-2.6-2.5c0-1,0.2-1.5,0.8-1.9C234,134.7,233.9,134.3,233.9,133.5z
				 M235.3,137c0,0.8,0.2,1.1,0.9,1.1c0.7,0,0.9-0.3,0.9-1.1c0-0.8-0.2-1.1-0.9-1.1C235.5,135.9,235.3,136.1,235.3,137z
				 M235.5,133.5c0,0.8,0.2,1,0.8,1c0.6,0,0.7-0.3,0.7-1c0-0.8-0.2-1-0.7-1C235.6,132.5,235.5,132.8,235.5,133.5z"/>
			<path class="st7" d="M241.5,133.1l-1.2,0.5l-0.5-1.3l2.4-1h1.1v8h-1.7V133.1z"/>
			<path class="st7" d="M245.7,133.1c0-0.7,0.1-1.1,0.4-1.4c0.3-0.3,0.8-0.5,1.6-0.5c0.8,0,1.3,0.2,1.6,0.6c0.3,0.3,0.4,0.7,0.4,1.3
				v0.8c0,0.7-0.1,1.1-0.4,1.4c-0.3,0.3-0.8,0.5-1.6,0.5c-0.8,0-1.3-0.2-1.6-0.6c-0.3-0.3-0.4-0.7-0.4-1.3V133.1z M248.3,133.3
				c0-0.8-0.2-1.1-0.6-1.1c-0.5,0-0.6,0.3-0.6,1.1v0.4c0,0.8,0.2,1.1,0.6,1.1c0.4,0,0.6-0.3,0.6-1.1V133.3z M251.2,131.4h1.5l-2.5,8
				h-1.5L251.2,131.4z M251.8,136.8c0-0.7,0.1-1.1,0.4-1.4c0.3-0.3,0.8-0.5,1.6-0.5c0.8,0,1.3,0.2,1.6,0.6c0.3,0.3,0.4,0.7,0.4,1.3
				v0.8c0,0.7-0.1,1.1-0.4,1.4c-0.3,0.3-0.8,0.5-1.6,0.5c-0.8,0-1.3-0.2-1.6-0.6c-0.3-0.3-0.4-0.7-0.4-1.3V136.8z M254.4,137
				c0-0.8-0.2-1.1-0.6-1.1c-0.4,0-0.6,0.3-0.6,1.1v0.4c0,0.8,0.2,1.1,0.6,1.1c0.4,0,0.6-0.3,0.6-1.1V137z"/>
		</g>
		<g class="st0">
			<path class="st7" d="M237.3,243h4.2v1.4h-2.7l-0.1,1.5l0.1,0c0.3-0.1,0.4-0.1,0.7-0.1c0.8,0,1.5,0.2,1.8,0.7
				c0.4,0.4,0.5,1,0.5,1.9c0,1-0.2,1.6-0.6,2c-0.4,0.5-1.1,0.7-2,0.7c-1.6,0-2.4-0.7-2.5-2.2l1.6-0.2c0.1,0.7,0.4,1,0.9,1
				c0.6,0,0.9-0.4,0.9-1.2c0-1-0.2-1.4-0.9-1.4c-0.4,0-0.7,0.1-0.9,0.4l-1.3-0.3L237.3,243z"/>
			<path class="st7" d="M242.6,244.8c0-0.7,0.1-1.1,0.4-1.4c0.3-0.3,0.8-0.5,1.6-0.5c0.8,0,1.3,0.2,1.6,0.6c0.3,0.3,0.4,0.7,0.4,1.3
				v0.8c0,0.7-0.1,1.1-0.4,1.4c-0.3,0.3-0.8,0.5-1.6,0.5c-0.8,0-1.3-0.2-1.6-0.6c-0.3-0.3-0.4-0.7-0.4-1.3V244.8z M245.2,244.9
				c0-0.8-0.2-1.1-0.6-1.1c-0.5,0-0.6,0.3-0.6,1.1v0.4c0,0.8,0.2,1.1,0.6,1.1c0.4,0,0.6-0.3,0.6-1.1V244.9z M248.2,243h1.5l-2.5,8
				h-1.5L248.2,243z M248.7,248.4c0-0.7,0.1-1.1,0.4-1.4c0.3-0.3,0.8-0.5,1.6-0.5c0.8,0,1.3,0.2,1.6,0.6c0.3,0.3,0.4,0.7,0.4,1.3
				v0.8c0,0.7-0.1,1.1-0.4,1.4c-0.3,0.3-0.8,0.5-1.6,0.5c-0.8,0-1.3-0.2-1.6-0.6c-0.3-0.3-0.4-0.7-0.4-1.3V248.4z M251.3,248.6
				c0-0.8-0.2-1.1-0.6-1.1c-0.4,0-0.6,0.3-0.6,1.1v0.4c0,0.8,0.2,1.1,0.6,1.1c0.4,0,0.6-0.3,0.6-1.1V248.6z"/>
		</g>
		<g class="st0">
			<path class="st7" d="M239.7,260h-2.8v-1.4h4.6v1l-2.3,7h-1.8L239.7,260z"/>
			<path class="st7" d="M242.6,260.4c0-0.7,0.1-1.1,0.4-1.4c0.3-0.3,0.8-0.5,1.6-0.5c0.8,0,1.3,0.2,1.6,0.6c0.3,0.3,0.4,0.7,0.4,1.3
				v0.8c0,0.7-0.1,1.1-0.4,1.4c-0.3,0.3-0.8,0.5-1.6,0.5c-0.8,0-1.3-0.2-1.6-0.6c-0.3-0.3-0.4-0.7-0.4-1.3V260.4z M245.2,260.5
				c0-0.8-0.2-1.1-0.6-1.1c-0.5,0-0.6,0.3-0.6,1.1v0.4c0,0.8,0.2,1.1,0.6,1.1c0.4,0,0.6-0.3,0.6-1.1V260.5z M248.2,258.6h1.5l-2.5,8
				h-1.5L248.2,258.6z M248.7,264.1c0-0.7,0.1-1.1,0.4-1.4c0.3-0.3,0.8-0.5,1.6-0.5c0.8,0,1.3,0.2,1.6,0.6c0.3,0.3,0.4,0.7,0.4,1.3
				v0.8c0,0.7-0.1,1.1-0.4,1.4c-0.3,0.3-0.8,0.5-1.6,0.5c-0.8,0-1.3-0.2-1.6-0.6c-0.3-0.3-0.4-0.7-0.4-1.3V264.1z M251.3,264.2
				c0-0.8-0.2-1.1-0.6-1.1c-0.4,0-0.6,0.3-0.6,1.1v0.4c0,0.8,0.2,1.1,0.6,1.1c0.4,0,0.6-0.3,0.6-1.1V264.2z"/>
		</g>
		<rect x="290.1" y="11.7" class="st4" width="50.6" height="10.4"/>
		<rect x="290.1" y="22.1" class="st3" width="50.6" height="229.1"/>
		<rect x="290.1" y="251.2" class="st2" width="50.6" height="10.4"/>
		<rect x="290.1" y="261.7" class="st1" width="50.6" height="10.4"/>
		<g class="st0">
			<path class="st1" d="M301,294v-2.5l5.6-6.5c0.5-0.7,0.8-1.1,0.8-1.8c0-1.1-0.7-1.9-1.8-1.9c-0.9,0-1.8,0.5-1.8,1.9H301
				c0-2.7,2-4.4,4.6-4.4c2.6,0,4.5,1.7,4.5,4.3c0,1.4-0.6,2.2-1.6,3.4l-4.2,4.8h5.8v2.5H301z"/>
			<path class="st1" d="M316.8,294.1c-2.4,0-4.6-1.6-4.6-4.5v-6.3c0-2.9,2.1-4.5,4.6-4.5s4.5,1.6,4.5,4.5v6.3
				C321.4,292.5,319.3,294.1,316.8,294.1z M318.6,283.4c0-1.3-0.7-2-1.8-2s-1.8,0.8-1.8,2v6.2c0,1.3,0.8,2,1.8,2s1.8-0.8,1.8-2
				V283.4z"/>
			<path class="st1" d="M327.7,294v-12l-3,2.6v-2.9l3-2.6h2.7V294H327.7z"/>
			<path class="st1" d="M339.7,294h-3l4.8-12.5h-3.9v2.4H335v-4.8h9.5v2.5L339.7,294z"/>
		</g>
		<g class="st0">
			<path class="st4" d="M310.4,8.2h-3.1v-1l2.4-5.6h1.8l-2.3,5.3h1.2V5.1h1.5v1.8h0.7v1.4h-0.7v1.4h-1.5V8.2z"/>
			<path class="st4" d="M313.3,3.4c0-0.7,0.1-1.1,0.4-1.4c0.3-0.3,0.8-0.5,1.6-0.5c0.8,0,1.3,0.2,1.6,0.6c0.3,0.3,0.4,0.7,0.4,1.3
				v0.8c0,0.7-0.1,1.1-0.4,1.4c-0.3,0.3-0.8,0.5-1.6,0.5c-0.8,0-1.3-0.2-1.6-0.6c-0.3-0.3-0.4-0.7-0.4-1.3V3.4z M315.9,3.5
				c0-0.8-0.2-1.1-0.6-1.1c-0.5,0-0.6,0.3-0.6,1.1V4c0,0.8,0.2,1.1,0.6,1.1c0.4,0,0.6-0.3,0.6-1.1V3.5z M318.9,1.6h1.5l-2.5,8h-1.5
				L318.9,1.6z M319.4,7.1c0-0.7,0.1-1.1,0.4-1.4c0.3-0.3,0.8-0.5,1.6-0.5c0.8,0,1.3,0.2,1.6,0.6c0.3,0.3,0.4,0.7,0.4,1.3v0.8
				c0,0.7-0.1,1.1-0.4,1.4c-0.3,0.3-0.8,0.5-1.6,0.5c-0.8,0-1.3-0.2-1.6-0.6c-0.3-0.3-0.4-0.7-0.4-1.3V7.1z M322.1,7.2
				c0-0.8-0.2-1.1-0.6-1.1s-0.6,0.3-0.6,1.1v0.4c0,0.8,0.2,1.1,0.6,1.1s0.6-0.3,0.6-1.1V7.2z"/>
		</g>
		<g class="st0">
			<path class="st7" d="M304.6,136.1c0-1.6,0.7-2.3,2.4-2.3c1.6,0,2.4,0.7,2.4,2.3c0,0.7-0.2,1.2-0.5,1.6c0.5,0.4,0.8,0.9,0.8,1.9
				c0,0.9-0.2,1.5-0.6,1.9c-0.5,0.4-1,0.6-2,0.6c-1.8,0-2.6-0.7-2.6-2.5c0-1,0.2-1.5,0.8-1.9C304.7,137.3,304.6,136.9,304.6,136.1z
				 M306,139.6c0,0.8,0.2,1.1,0.9,1.1c0.7,0,0.9-0.3,0.9-1.1c0-0.8-0.2-1.1-0.9-1.1C306.3,138.5,306,138.8,306,139.6z M306.2,136.2
				c0,0.8,0.2,1,0.8,1c0.6,0,0.7-0.3,0.7-1c0-0.8-0.2-1-0.7-1C306.4,135.1,306.2,135.4,306.2,136.2z"/>
			<path class="st7" d="M310.6,136.1c0-1.6,0.7-2.3,2.4-2.3c1.6,0,2.4,0.7,2.4,2.3c0,0.7-0.2,1.2-0.5,1.6c0.5,0.4,0.8,0.9,0.8,1.9
				c0,0.9-0.2,1.5-0.6,1.9c-0.5,0.4-1,0.6-2,0.6c-1.8,0-2.6-0.7-2.6-2.5c0-1,0.2-1.5,0.8-1.9C310.8,137.3,310.6,136.9,310.6,136.1z
				 M312.1,139.6c0,0.8,0.2,1.1,0.9,1.1c0.7,0,0.9-0.3,0.9-1.1c0-0.8-0.2-1.1-0.9-1.1C312.3,138.5,312.1,138.8,312.1,139.6z
				 M312.2,136.2c0,0.8,0.2,1,0.8,1c0.6,0,0.7-0.3,0.7-1c0-0.8-0.2-1-0.7-1C312.4,135.1,312.2,135.4,312.2,136.2z"/>
			<path class="st7" d="M316.4,135.8c0-0.7,0.1-1.1,0.4-1.4c0.3-0.3,0.8-0.5,1.6-0.5c0.8,0,1.3,0.2,1.6,0.6c0.3,0.3,0.4,0.7,0.4,1.3
				v0.8c0,0.7-0.1,1.1-0.4,1.4c-0.3,0.3-0.8,0.5-1.6,0.5c-0.8,0-1.3-0.2-1.6-0.6c-0.3-0.3-0.4-0.7-0.4-1.3V135.8z M319,135.9
				c0-0.8-0.2-1.1-0.6-1.1c-0.5,0-0.6,0.3-0.6,1.1v0.4c0,0.8,0.2,1.1,0.6,1.1c0.4,0,0.6-0.3,0.6-1.1V135.9z M321.9,134h1.5l-2.5,8
				h-1.5L321.9,134z M322.5,139.4c0-0.7,0.1-1.1,0.4-1.4c0.3-0.3,0.8-0.5,1.6-0.5c0.8,0,1.3,0.2,1.6,0.6c0.3,0.3,0.4,0.7,0.4,1.3
				v0.8c0,0.7-0.1,1.1-0.4,1.4c-0.3,0.3-0.8,0.5-1.6,0.5c-0.8,0-1.3-0.2-1.6-0.6c-0.3-0.3-0.4-0.7-0.4-1.3V139.4z M325.1,139.6
				c0-0.8-0.2-1.1-0.6-1.1s-0.6,0.3-0.6,1.1v0.4c0,0.8,0.2,1.1,0.6,1.1s0.6-0.3,0.6-1.1V139.6z"/>
		</g>
		<g class="st0">
			<path class="st7" d="M310.4,259.3h-3.1v-1l2.4-5.6h1.8l-2.3,5.3h1.2v-1.8h1.5v1.8h0.7v1.4h-0.7v1.4h-1.5V259.3z"/>
			<path class="st7" d="M313.3,254.4c0-0.7,0.1-1.1,0.4-1.4c0.3-0.3,0.8-0.5,1.6-0.5c0.8,0,1.3,0.2,1.6,0.6c0.3,0.3,0.4,0.7,0.4,1.3
				v0.8c0,0.7-0.1,1.1-0.4,1.4c-0.3,0.3-0.8,0.5-1.6,0.5c-0.8,0-1.3-0.2-1.6-0.6c-0.3-0.3-0.4-0.7-0.4-1.3V254.4z M315.9,254.6
				c0-0.8-0.2-1.1-0.6-1.1c-0.5,0-0.6,0.3-0.6,1.1v0.4c0,0.8,0.2,1.1,0.6,1.1c0.4,0,0.6-0.3,0.6-1.1V254.6z M318.9,252.6h1.5l-2.5,8
				h-1.5L318.9,252.6z M319.4,258.1c0-0.7,0.1-1.1,0.4-1.4c0.3-0.3,0.8-0.5,1.6-0.5c0.8,0,1.3,0.2,1.6,0.6c0.3,0.3,0.4,0.7,0.4,1.3
				v0.8c0,0.7-0.1,1.1-0.4,1.4c-0.3,0.3-0.8,0.5-1.6,0.5c-0.8,0-1.3-0.2-1.6-0.6c-0.3-0.3-0.4-0.7-0.4-1.3V258.1z M322.1,258.3
				c0-0.8-0.2-1.1-0.6-1.1s-0.6,0.3-0.6,1.1v0.4c0,0.8,0.2,1.1,0.6,1.1s0.6-0.3,0.6-1.1V258.3z"/>
		</g>
		<g class="st0">
			<path class="st7" d="M310.4,269.9h-3.1v-1l2.4-5.6h1.8l-2.3,5.3h1.2v-1.8h1.5v1.8h0.7v1.4h-0.7v1.4h-1.5V269.9z"/>
			<path class="st7" d="M313.3,265c0-0.7,0.1-1.1,0.4-1.4c0.3-0.3,0.8-0.5,1.6-0.5c0.8,0,1.3,0.2,1.6,0.6c0.3,0.3,0.4,0.7,0.4,1.3
				v0.8c0,0.7-0.1,1.1-0.4,1.4c-0.3,0.3-0.8,0.5-1.6,0.5c-0.8,0-1.3-0.2-1.6-0.6c-0.3-0.3-0.4-0.7-0.4-1.3V265z M315.9,265.2
				c0-0.8-0.2-1.1-0.6-1.1c-0.5,0-0.6,0.3-0.6,1.1v0.4c0,0.8,0.2,1.1,0.6,1.1c0.4,0,0.6-0.3,0.6-1.1V265.2z M318.9,263.3h1.5l-2.5,8
				h-1.5L318.9,263.3z M319.4,268.7c0-0.7,0.1-1.1,0.4-1.4c0.3-0.3,0.8-0.5,1.6-0.5c0.8,0,1.3,0.2,1.6,0.6c0.3,0.3,0.4,0.7,0.4,1.3
				v0.8c0,0.7-0.1,1.1-0.4,1.4c-0.3,0.3-0.8,0.5-1.6,0.5c-0.8,0-1.3-0.2-1.6-0.6c-0.3-0.3-0.4-0.7-0.4-1.3V268.7z M322.1,268.9
				c0-0.8-0.2-1.1-0.6-1.1s-0.6,0.3-0.6,1.1v0.4c0,0.8,0.2,1.1,0.6,1.1s0.6-0.3,0.6-1.1V268.9z"/>
		</g>
		<rect x="360.8" y="11.7" class="st4" width="50.6" height="10.4"/>
		<rect x="360.8" y="22.1" class="st3" width="50.6" height="203.1"/>
		<rect x="360.8" y="225.2" class="st2" width="50.6" height="31.2"/>
		<rect x="360.8" y="256.5" class="st1" width="50.6" height="15.6"/>
		<g class="st0">
			<path class="st1" d="M371.7,294v-2.5l5.6-6.5c0.5-0.7,0.8-1.1,0.8-1.8c0-1.1-0.7-1.9-1.8-1.9c-0.9,0-1.8,0.5-1.8,1.9h-2.7
				c0-2.7,2-4.4,4.6-4.4c2.6,0,4.5,1.7,4.5,4.3c0,1.4-0.6,2.2-1.6,3.4l-4.2,4.8h5.8v2.5H371.7z"/>
			<path class="st1" d="M387.5,294.1c-2.4,0-4.6-1.6-4.6-4.5v-6.3c0-2.9,2.1-4.5,4.6-4.5s4.5,1.6,4.5,4.5v6.3
				C392.1,292.5,390,294.1,387.5,294.1z M389.3,283.4c0-1.3-0.7-2-1.8-2c-1.1,0-1.8,0.8-1.8,2v6.2c0,1.3,0.8,2,1.8,2
				c1.1,0,1.8-0.8,1.8-2V283.4z"/>
			<path class="st1" d="M398.4,294v-12l-3,2.6v-2.9l3-2.6h2.7V294H398.4z"/>
			<path class="st1" d="M410.3,294.1c-2.6,0-4.8-1.6-4.8-4.5c0-1.8,1-2.8,1.9-3.4c-0.8-0.5-1.7-1.5-1.7-3.1c0-2.6,2.1-4.3,4.6-4.3
				c2.5,0,4.6,1.6,4.6,4.3c0,1.6-0.9,2.6-1.7,3.1c0.8,0.5,1.9,1.5,1.9,3.4C415.1,292.6,413,294.1,410.3,294.1z M410.3,287.5
				c-1.2,0-2.1,0.9-2.1,2.1c0,1.2,0.9,2.1,2.1,2.1c1.2,0,2.1-0.9,2.1-2.1C412.4,288.5,411.5,287.5,410.3,287.5z M410.3,281.4
				c-1.1,0-1.9,0.8-1.9,1.9c0,1.1,0.8,1.9,1.9,1.9c1.1,0,1.8-0.8,1.8-1.9C412.2,282.2,411.4,281.4,410.3,281.4z"/>
		</g>
		<g class="st0">
			<path class="st4" d="M381.1,8.2H378v-1l2.4-5.6h1.8l-2.3,5.3h1.2V5.1h1.5v1.8h0.7v1.4h-0.7v1.4h-1.5V8.2z"/>
			<path class="st4" d="M384,3.4c0-0.7,0.1-1.1,0.4-1.4c0.3-0.3,0.8-0.5,1.6-0.5c0.8,0,1.3,0.2,1.6,0.6c0.3,0.3,0.4,0.7,0.4,1.3v0.8
				c0,0.7-0.1,1.1-0.4,1.4C387.3,5.9,386.8,6,386,6c-0.8,0-1.3-0.2-1.6-0.6c-0.3-0.3-0.4-0.7-0.4-1.3V3.4z M386.7,3.5
				c0-0.8-0.2-1.1-0.6-1.1c-0.5,0-0.6,0.3-0.6,1.1V4c0,0.8,0.2,1.1,0.6,1.1c0.4,0,0.6-0.3,0.6-1.1V3.5z M389.6,1.6h1.5l-2.5,8h-1.5
				L389.6,1.6z M390.2,7.1c0-0.7,0.1-1.1,0.4-1.4c0.3-0.3,0.8-0.5,1.6-0.5c0.8,0,1.3,0.2,1.6,0.6c0.3,0.3,0.4,0.7,0.4,1.3v0.8
				c0,0.7-0.1,1.1-0.4,1.4c-0.3,0.3-0.8,0.5-1.6,0.5c-0.8,0-1.3-0.2-1.6-0.6c-0.3-0.3-0.4-0.7-0.4-1.3V7.1z M392.8,7.2
				c0-0.8-0.2-1.1-0.6-1.1c-0.4,0-0.6,0.3-0.6,1.1v0.4c0,0.8,0.2,1.1,0.6,1.1c0.4,0,0.6-0.3,0.6-1.1V7.2z"/>
		</g>
		<g class="st0">
			<path class="st7" d="M378.1,123.5h-2.8v-1.4h4.6v1l-2.3,7h-1.8L378.1,123.5z"/>
			<path class="st7" d="M381.3,124.3c0-1.6,0.7-2.3,2.4-2.3c1.6,0,2.4,0.7,2.4,2.3c0,0.7-0.2,1.2-0.5,1.6c0.5,0.4,0.8,0.9,0.8,1.9
				c0,0.9-0.2,1.5-0.6,1.9c-0.5,0.4-1,0.6-2,0.6c-1.8,0-2.6-0.7-2.6-2.5c0-1,0.2-1.5,0.8-1.9C381.5,125.5,381.3,125,381.3,124.3z
				 M382.8,127.8c0,0.8,0.2,1.1,0.9,1.1c0.7,0,0.9-0.3,0.9-1.1c0-0.8-0.2-1.1-0.9-1.1C383,126.7,382.8,126.9,382.8,127.8z
				 M382.9,124.3c0,0.8,0.2,1,0.8,1c0.6,0,0.7-0.3,0.7-1c0-0.8-0.2-1-0.7-1C383.1,123.3,382.9,123.6,382.9,124.3z"/>
			<path class="st7" d="M387.1,123.9c0-0.7,0.1-1.1,0.4-1.4c0.3-0.3,0.8-0.5,1.6-0.5c0.8,0,1.3,0.2,1.6,0.6c0.3,0.3,0.4,0.7,0.4,1.3
				v0.8c0,0.7-0.1,1.1-0.4,1.4c-0.3,0.3-0.8,0.5-1.6,0.5c-0.8,0-1.3-0.2-1.6-0.6c-0.3-0.3-0.4-0.7-0.4-1.3V123.9z M389.7,124.1
				c0-0.8-0.2-1.1-0.6-1.1c-0.5,0-0.6,0.3-0.6,1.1v0.4c0,0.8,0.2,1.1,0.6,1.1c0.4,0,0.6-0.3,0.6-1.1V124.1z M392.6,122.1h1.5l-2.5,8
				h-1.5L392.6,122.1z M393.2,127.6c0-0.7,0.1-1.1,0.4-1.4c0.3-0.3,0.8-0.5,1.6-0.5c0.8,0,1.3,0.2,1.6,0.6c0.3,0.3,0.4,0.7,0.4,1.3
				v0.8c0,0.7-0.1,1.1-0.4,1.4c-0.3,0.3-0.8,0.5-1.6,0.5c-0.8,0-1.3-0.2-1.6-0.6c-0.3-0.3-0.4-0.7-0.4-1.3V127.6z M395.8,127.8
				c0-0.8-0.2-1.1-0.6-1.1c-0.4,0-0.6,0.3-0.6,1.1v0.4c0,0.8,0.2,1.1,0.6,1.1c0.4,0,0.6-0.3,0.6-1.1V127.8z"/>
		</g>
		<g class="st0">
			<path class="st7" d="M376.9,241.1l-1.2,0.5l-0.5-1.3l2.4-1h1.1v8h-1.7V241.1z"/>
			<path class="st7" d="M381,246.2l2.2-2.7c0.3-0.3,0.8-1,0.9-1.3c0.1-0.3,0.2-0.6,0.2-0.9c0-0.5-0.3-0.7-0.8-0.7
				c-0.4,0-0.6,0.1-0.8,0.5c-0.1,0.2-0.2,0.4-0.2,0.6l-1.6-0.1c0.1-1.6,0.9-2.3,2.6-2.3c1.6,0,2.4,0.8,2.4,2.2
				c0,0.6-0.2,1.1-0.5,1.7c-0.3,0.5-0.3,0.5-1.2,1.5l-1.1,1.2h2.8v1.4H381V246.2z"/>
			<path class="st7" d="M387.1,241.1c0-0.7,0.1-1.1,0.4-1.4c0.3-0.3,0.8-0.5,1.6-0.5c0.8,0,1.3,0.2,1.6,0.6c0.3,0.3,0.4,0.7,0.4,1.3
				v0.8c0,0.7-0.1,1.1-0.4,1.4c-0.3,0.3-0.8,0.5-1.6,0.5c-0.8,0-1.3-0.2-1.6-0.6c-0.3-0.3-0.4-0.7-0.4-1.3V241.1z M389.7,241.3
				c0-0.8-0.2-1.1-0.6-1.1c-0.5,0-0.6,0.3-0.6,1.1v0.4c0,0.8,0.2,1.1,0.6,1.1c0.4,0,0.6-0.3,0.6-1.1V241.3z M392.6,239.3h1.5l-2.5,8
				h-1.5L392.6,239.3z M393.2,244.8c0-0.7,0.1-1.1,0.4-1.4c0.3-0.3,0.8-0.5,1.6-0.5c0.8,0,1.3,0.2,1.6,0.6c0.3,0.3,0.4,0.7,0.4,1.3
				v0.8c0,0.7-0.1,1.1-0.4,1.4c-0.3,0.3-0.8,0.5-1.6,0.5c-0.8,0-1.3-0.2-1.6-0.6c-0.3-0.3-0.4-0.7-0.4-1.3V244.8z M395.8,245
				c0-0.8-0.2-1.1-0.6-1.1c-0.4,0-0.6,0.3-0.6,1.1v0.4c0,0.8,0.2,1.1,0.6,1.1c0.4,0,0.6-0.3,0.6-1.1V245z"/>
		</g>
		<g class="st0">
			<path class="st7" d="M380.8,263.4l0.3,0c0.3,0,1,0.2,1.3,0.4c0.5,0.4,0.7,1,0.7,2.2c0,1.1-0.2,1.7-0.6,2.1
				c-0.4,0.4-1,0.6-1.9,0.6c-0.9,0-1.6-0.2-2-0.7c-0.4-0.4-0.5-0.9-0.5-1.9c0-1,0.1-1.6,0.7-2.6l1.7-2.9h1.9l-1.7,2.8H380.8z
				 M379.8,266c0,1,0.2,1.3,0.8,1.3c0.6,0,0.8-0.3,0.8-1.3c0-1-0.2-1.3-0.8-1.3C380,264.7,379.8,265.1,379.8,266z"/>
			<path class="st7" d="M384,262.4c0-0.7,0.1-1.1,0.4-1.4c0.3-0.3,0.8-0.5,1.6-0.5c0.8,0,1.3,0.2,1.6,0.6c0.3,0.3,0.4,0.7,0.4,1.3
				v0.8c0,0.7-0.1,1.1-0.4,1.4c-0.3,0.3-0.8,0.5-1.6,0.5c-0.8,0-1.3-0.2-1.6-0.6c-0.3-0.3-0.4-0.7-0.4-1.3V262.4z M386.7,262.5
				c0-0.8-0.2-1.1-0.6-1.1c-0.5,0-0.6,0.3-0.6,1.1v0.4c0,0.8,0.2,1.1,0.6,1.1c0.4,0,0.6-0.3,0.6-1.1V262.5z M389.6,260.6h1.5l-2.5,8
				h-1.5L389.6,260.6z M390.2,266.1c0-0.7,0.1-1.1,0.4-1.4c0.3-0.3,0.8-0.5,1.6-0.5c0.8,0,1.3,0.2,1.6,0.6c0.3,0.3,0.4,0.7,0.4,1.3
				v0.8c0,0.7-0.1,1.1-0.4,1.4c-0.3,0.3-0.8,0.5-1.6,0.5c-0.8,0-1.3-0.2-1.6-0.6c-0.3-0.3-0.4-0.7-0.4-1.3V266.1z M392.8,266.2
				c0-0.8-0.2-1.1-0.6-1.1c-0.4,0-0.6,0.3-0.6,1.1v0.4c0,0.8,0.2,1.1,0.6,1.1c0.4,0,0.6-0.3,0.6-1.1V266.2z"/>
		</g>
		<rect x="431.5" y="11.7" class="st4" width="50.6" height="10.4"/>
		<rect x="431.5" y="22.1" class="st3" width="50.6" height="218.7"/>
		<rect x="431.5" y="240.8" class="st2" width="50.6" height="18.2"/>
		<rect x="431.5" y="259.1" class="st1" width="50.6" height="13"/>
		<g class="st0">
			<path class="st4" d="M451.8,8.2h-3.1v-1l2.4-5.6h1.8l-2.3,5.3h1.2V5.1h1.5v1.8h0.7v1.4h-0.7v1.4h-1.5V8.2z"/>
			<path class="st4" d="M454.7,3.4c0-0.7,0.1-1.1,0.4-1.4c0.3-0.3,0.8-0.5,1.6-0.5c0.8,0,1.3,0.2,1.6,0.6c0.3,0.3,0.4,0.7,0.4,1.3
				v0.8c0,0.7-0.1,1.1-0.4,1.4C458,5.9,457.5,6,456.7,6c-0.8,0-1.3-0.2-1.6-0.6c-0.3-0.3-0.4-0.7-0.4-1.3V3.4z M457.4,3.5
				c0-0.8-0.2-1.1-0.6-1.1c-0.5,0-0.6,0.3-0.6,1.1V4c0,0.8,0.2,1.1,0.6,1.1c0.4,0,0.6-0.3,0.6-1.1V3.5z M460.3,1.6h1.5l-2.5,8h-1.5
				L460.3,1.6z M460.9,7.1c0-0.7,0.1-1.1,0.4-1.4c0.3-0.3,0.8-0.5,1.6-0.5c0.8,0,1.3,0.2,1.6,0.6c0.3,0.3,0.4,0.7,0.4,1.3v0.8
				c0,0.7-0.1,1.1-0.4,1.4c-0.3,0.3-0.8,0.5-1.6,0.5c-0.8,0-1.3-0.2-1.6-0.6c-0.3-0.3-0.4-0.7-0.4-1.3V7.1z M463.5,7.2
				c0-0.8-0.2-1.1-0.6-1.1s-0.6,0.3-0.6,1.1v0.4c0,0.8,0.2,1.1,0.6,1.1s0.6-0.3,0.6-1.1V7.2z"/>
		</g>
		<g class="st0">
			<path class="st7" d="M446,128.4c0-1.6,0.7-2.3,2.4-2.3c1.6,0,2.4,0.7,2.4,2.3c0,0.7-0.2,1.2-0.5,1.6c0.5,0.4,0.8,0.9,0.8,1.9
				c0,0.9-0.2,1.5-0.6,1.9c-0.5,0.4-1,0.6-2,0.6c-1.8,0-2.6-0.7-2.6-2.5c0-1,0.2-1.5,0.8-1.9C446.1,129.6,446,129.1,446,128.4z
				 M447.4,131.9c0,0.8,0.2,1.1,0.9,1.1c0.7,0,0.9-0.3,0.9-1.1c0-0.8-0.2-1.1-0.9-1.1C447.7,130.7,447.4,131,447.4,131.9z
				 M447.6,128.4c0,0.8,0.2,1,0.8,1c0.6,0,0.7-0.3,0.7-1c0-0.8-0.2-1-0.7-1C447.8,127.4,447.6,127.7,447.6,128.4z"/>
			<path class="st7" d="M454.8,132.9h-3.1v-1l2.4-5.6h1.8l-2.3,5.3h1.2v-1.8h1.5v1.8h0.7v1.4h-0.7v1.4h-1.5V132.9z"/>
			<path class="st7" d="M457.8,128c0-0.7,0.1-1.1,0.4-1.4c0.3-0.3,0.8-0.5,1.6-0.5c0.8,0,1.3,0.2,1.6,0.6c0.3,0.3,0.4,0.7,0.4,1.3
				v0.8c0,0.7-0.1,1.1-0.4,1.4c-0.3,0.3-0.8,0.5-1.6,0.5c-0.8,0-1.3-0.2-1.6-0.6c-0.3-0.3-0.4-0.7-0.4-1.3V128z M460.4,128.2
				c0-0.8-0.2-1.1-0.6-1.1c-0.5,0-0.6,0.3-0.6,1.1v0.4c0,0.8,0.2,1.1,0.6,1.1c0.4,0,0.6-0.3,0.6-1.1V128.2z M463.3,126.2h1.5l-2.5,8
				h-1.5L463.3,126.2z M463.9,131.7c0-0.7,0.1-1.1,0.4-1.4c0.3-0.3,0.8-0.5,1.6-0.5c0.8,0,1.3,0.2,1.6,0.6c0.3,0.3,0.4,0.7,0.4,1.3
				v0.8c0,0.7-0.1,1.1-0.4,1.4c-0.3,0.3-0.8,0.5-1.6,0.5c-0.8,0-1.3-0.2-1.6-0.6c-0.3-0.3-0.4-0.7-0.4-1.3V131.7z M466.5,131.9
				c0-0.8-0.2-1.1-0.6-1.1s-0.6,0.3-0.6,1.1v0.4c0,0.8,0.2,1.1,0.6,1.1s0.6-0.3,0.6-1.1V131.9z"/>
		</g>
		<g class="st0">
			<path class="st7" d="M451.8,247.4h-2.8V246h4.6v1l-2.3,7h-1.8L451.8,247.4z"/>
			<path class="st7" d="M454.7,247.8c0-0.7,0.1-1.1,0.4-1.4c0.3-0.3,0.8-0.5,1.6-0.5c0.8,0,1.3,0.2,1.6,0.6c0.3,0.3,0.4,0.7,0.4,1.3
				v0.8c0,0.7-0.1,1.1-0.4,1.4c-0.3,0.3-0.8,0.5-1.6,0.5c-0.8,0-1.3-0.2-1.6-0.6c-0.3-0.3-0.4-0.7-0.4-1.3V247.8z M457.4,247.9
				c0-0.8-0.2-1.1-0.6-1.1c-0.5,0-0.6,0.3-0.6,1.1v0.4c0,0.8,0.2,1.1,0.6,1.1c0.4,0,0.6-0.3,0.6-1.1V247.9z M460.3,246h1.5l-2.5,8
				h-1.5L460.3,246z M460.9,251.4c0-0.7,0.1-1.1,0.4-1.4c0.3-0.3,0.8-0.5,1.6-0.5c0.8,0,1.3,0.2,1.6,0.6c0.3,0.3,0.4,0.7,0.4,1.3
				v0.8c0,0.7-0.1,1.1-0.4,1.4c-0.3,0.3-0.8,0.5-1.6,0.5c-0.8,0-1.3-0.2-1.6-0.6c-0.3-0.3-0.4-0.7-0.4-1.3V251.4z M463.5,251.6
				c0-0.8-0.2-1.1-0.6-1.1s-0.6,0.3-0.6,1.1v0.4c0,0.8,0.2,1.1,0.6,1.1s0.6-0.3,0.6-1.1V251.6z"/>
		</g>
		<g class="st0">
			<path class="st7" d="M449.4,261.6h4.2v1.4h-2.7l-0.1,1.5l0.1,0c0.3-0.1,0.4-0.1,0.7-0.1c0.8,0,1.5,0.2,1.8,0.7
				c0.4,0.4,0.5,1,0.5,1.9c0,1-0.2,1.6-0.6,2c-0.4,0.5-1.1,0.7-2,0.7c-1.6,0-2.4-0.7-2.5-2.2l1.6-0.2c0.1,0.7,0.4,1,0.9,1
				c0.6,0,0.9-0.4,0.9-1.2c0-1-0.2-1.4-0.9-1.4c-0.4,0-0.7,0.1-0.9,0.4L449,266L449.4,261.6z"/>
			<path class="st7" d="M454.7,263.4c0-0.7,0.1-1.1,0.4-1.4c0.3-0.3,0.8-0.5,1.6-0.5c0.8,0,1.3,0.2,1.6,0.6c0.3,0.3,0.4,0.7,0.4,1.3
				v0.8c0,0.7-0.1,1.1-0.4,1.4c-0.3,0.3-0.8,0.5-1.6,0.5c-0.8,0-1.3-0.2-1.6-0.6c-0.3-0.3-0.4-0.7-0.4-1.3V263.4z M457.4,263.5
				c0-0.8-0.2-1.1-0.6-1.1c-0.5,0-0.6,0.3-0.6,1.1v0.4c0,0.8,0.2,1.1,0.6,1.1c0.4,0,0.6-0.3,0.6-1.1V263.5z M460.3,261.6h1.5l-2.5,8
				h-1.5L460.3,261.6z M460.9,267.1c0-0.7,0.1-1.1,0.4-1.4c0.3-0.3,0.8-0.5,1.6-0.5c0.8,0,1.3,0.2,1.6,0.6c0.3,0.3,0.4,0.7,0.4,1.3
				v0.8c0,0.7-0.1,1.1-0.4,1.4c-0.3,0.3-0.8,0.5-1.6,0.5c-0.8,0-1.3-0.2-1.6-0.6c-0.3-0.3-0.4-0.7-0.4-1.3V267.1z M463.5,267.2
				c0-0.8-0.2-1.1-0.6-1.1s-0.6,0.3-0.6,1.1v0.4c0,0.8,0.2,1.1,0.6,1.1s0.6-0.3,0.6-1.1V267.2z"/>
		</g>
		<g class="st0">
			<path class="st1" d="M445.5,282.4v12.3h-2.9v-12.3h-3.9v-2.6h10.7v2.6H445.5z"/>
			<path class="st1" d="M460.2,293.2c-1,1-2.3,1.6-4,1.6s-3-0.6-4.1-1.6c-1.5-1.5-1.5-3.4-1.5-6s0-4.5,1.5-6c1-1,2.4-1.6,4.1-1.6
				s3,0.6,4,1.6c1.5,1.5,1.5,3.4,1.5,6S461.7,291.7,460.2,293.2z M458,283c-0.4-0.5-1.1-0.8-1.9-0.8s-1.5,0.3-1.9,0.8
				c-0.6,0.6-0.7,1.3-0.7,4.2s0.1,3.6,0.7,4.2c0.4,0.5,1.1,0.8,1.9,0.8s1.4-0.3,1.9-0.8c0.6-0.6,0.7-1.3,0.7-4.2
				S458.6,283.7,458,283z"/>
		</g>
		<g class="st0">
			<path class="st1" d="M460.9,282.4v12.3H458v-12.3h-3.9v-2.6h10.7v2.6H460.9z"/>
		</g>
		<g class="st0">
			<path class="st1" d="M469.5,294.7l-0.9-2.6h-5.3l-0.9,2.6h-3l5.4-14.9h2.3l5.5,14.9H469.5z M466,284.2l-1.9,5.4h3.7L466,284.2z"
				/>
			<path class="st1" d="M474.4,294.7v-14.9h2.9v12.3h6.8v2.6H474.4z"/>
		</g>
	</g>
</g>
</svg>
