<svg xmlns="http://www.w3.org/2000/svg" viewBox="0 0 480.32 366.85"><title>backers-graph-1_2</title><g id="Layer_2" data-name="Layer 2"><g id="Layer_2-2" data-name="Layer 2"><line x1="55.82" y1="338.65" x2="18.99" y2="339.26" style="fill:none;stroke:#c33d28;stroke-linecap:round;stroke-miterlimit:10;stroke-width:1.965209170206px"/><line x1="92.64" y1="336.27" x2="55.82" y2="338.65" style="fill:none;stroke:#c33d28;stroke-linecap:round;stroke-miterlimit:10;stroke-width:1.965209170206px"/><line x1="129.47" y1="326.46" x2="92.64" y2="336.27" style="fill:none;stroke:#c33d28;stroke-linecap:round;stroke-miterlimit:10;stroke-width:1.965209170206px"/><line x1="166.29" y1="330.6" x2="129.47" y2="326.46" style="fill:none;stroke:#c33d28;stroke-linecap:round;stroke-miterlimit:10;stroke-width:1.965209170206px"/><line x1="203.11" y1="320.23" x2="166.29" y2="330.6" style="fill:none;stroke:#c33d28;stroke-linecap:round;stroke-miterlimit:10;stroke-width:1.965209170206px"/><line x1="239.94" y1="311.25" x2="203.11" y2="320.23" style="fill:none;stroke:#c33d28;stroke-linecap:round;stroke-miterlimit:10;stroke-width:1.965209170206px"/><line x1="276.76" y1="278.2" x2="239.94" y2="311.25" style="fill:none;stroke:#c33d28;stroke-linecap:round;stroke-miterlimit:10;stroke-width:1.965209170206px"/><line x1="313.59" y1="274.88" x2="276.76" y2="278.2" style="fill:none;stroke:#c33d28;stroke-linecap:round;stroke-miterlimit:10;stroke-width:1.965209170206px"/><line x1="350.41" y1="166.33" x2="313.59" y2="274.88" style="fill:none;stroke:#c33d28;stroke-linecap:round;stroke-miterlimit:10;stroke-width:1.965209170206px"/><line x1="387.24" y1="140" x2="350.41" y2="166.33" style="fill:none;stroke:#c33d28;stroke-linecap:round;stroke-miterlimit:10;stroke-width:1.965209170206px"/><polyline points="387.24 140 424.06 144.13 460.92 114.04" style="fill:none;stroke:#c33d28;stroke-linecap:round;stroke-miterlimit:10;stroke-width:1.965209170206px"/><ellipse cx="18.99" cy="339.26" rx="2.9" ry="3" style="fill:#c33d28"/><ellipse cx="18.99" cy="339.26" rx="2.9" ry="3" style="fill:none;stroke:#c33d28;stroke-miterlimit:10;stroke-width:1.00276079176141px"/><ellipse cx="55.82" cy="338.65" rx="2.9" ry="3" style="fill:#c33d28"/><ellipse cx="55.82" cy="338.65" rx="2.9" ry="3" style="fill:none;stroke:#c33d28;stroke-miterlimit:10;stroke-width:1.00276079176141px"/><ellipse cx="92.64" cy="336.27" rx="2.9" ry="3" style="fill:#c33d28"/><ellipse cx="92.64" cy="336.27" rx="2.9" ry="3" style="fill:none;stroke:#c33d28;stroke-miterlimit:10;stroke-width:1.00276079176141px"/><ellipse cx="129.47" cy="326.46" rx="2.9" ry="3" style="fill:#c33d28"/><ellipse cx="129.47" cy="326.46" rx="2.9" ry="3" style="fill:none;stroke:#c33d28;stroke-miterlimit:10;stroke-width:1.00276079176141px"/><ellipse cx="166.29" cy="330.6" rx="2.9" ry="3" style="fill:#c33d28"/><ellipse cx="166.29" cy="330.6" rx="2.9" ry="3" style="fill:none;stroke:#c33d28;stroke-miterlimit:10;stroke-width:1.00276079176141px"/><ellipse cx="203.11" cy="320.23" rx="2.9" ry="3" style="fill:#c33d28"/><ellipse cx="203.11" cy="320.23" rx="2.9" ry="3" style="fill:none;stroke:#c33d28;stroke-miterlimit:10;stroke-width:1.00276079176141px"/><ellipse cx="239.94" cy="311.25" rx="2.9" ry="3" style="fill:#c33d28"/><ellipse cx="239.94" cy="311.25" rx="2.9" ry="3" style="fill:none;stroke:#c33d28;stroke-miterlimit:10;stroke-width:1.00276079176141px"/><ellipse cx="276.76" cy="278.2" rx="2.9" ry="3" style="fill:#c33d28"/><ellipse cx="276.76" cy="278.2" rx="2.9" ry="3" style="fill:none;stroke:#c33d28;stroke-miterlimit:10;stroke-width:1.00276079176141px"/><ellipse cx="313.59" cy="274.88" rx="2.9" ry="3" style="fill:#c33d28"/><ellipse cx="313.59" cy="274.88" rx="2.9" ry="3" style="fill:none;stroke:#c33d28;stroke-miterlimit:10;stroke-width:1.00276079176141px"/><ellipse cx="350.41" cy="166.33" rx="2.9" ry="3" style="fill:#c33d28"/><ellipse cx="350.41" cy="166.33" rx="2.9" ry="3" style="fill:none;stroke:#c33d28;stroke-miterlimit:10;stroke-width:1.00276079176141px"/><ellipse cx="387.24" cy="140" rx="2.9" ry="3" style="fill:#c33d28"/><ellipse cx="387.24" cy="140" rx="2.9" ry="3" style="fill:none;stroke:#c33d28;stroke-miterlimit:10;stroke-width:1.00276079176141px"/><ellipse cx="424.06" cy="144.13" rx="2.9" ry="3" style="fill:#c33d28"/><ellipse cx="424.06" cy="144.13" rx="2.9" ry="3" style="fill:none;stroke:#c33d28;stroke-miterlimit:10;stroke-width:1.00276079176141px"/><line x1="0.16" y1="340.81" x2="479.23" y2="340.81" style="fill:none;stroke:#58595b;stroke-miterlimit:10;stroke-width:0.5px"/><g style="opacity:0.2"><line x1="0.16" y1="340.81" x2="0.16" style="fill:none;stroke:#58595b;stroke-miterlimit:10;stroke-width:0.313841011055507px"/><line x1="37.01" y1="340.81" x2="37.01" style="fill:none;stroke:#58595b;stroke-miterlimit:10;stroke-width:0.313841011055507px"/><line x1="73.86" y1="340.81" x2="73.86" style="fill:none;stroke:#58595b;stroke-miterlimit:10;stroke-width:0.313841011055507px"/><line x1="110.71" y1="340.81" x2="110.71" style="fill:none;stroke:#58595b;stroke-miterlimit:10;stroke-width:0.313841011055507px"/><line x1="147.57" y1="340.81" x2="147.57" style="fill:none;stroke:#58595b;stroke-miterlimit:10;stroke-width:0.313841011055507px"/><line x1="184.42" y1="340.81" x2="184.42" style="fill:none;stroke:#58595b;stroke-miterlimit:10;stroke-width:0.313841011055507px"/><line x1="221.27" y1="340.81" x2="221.27" style="fill:none;stroke:#58595b;stroke-miterlimit:10;stroke-width:0.313841011055507px"/><line x1="258.12" y1="340.81" x2="258.12" style="fill:none;stroke:#58595b;stroke-miterlimit:10;stroke-width:0.313841011055507px"/><line x1="294.97" y1="340.81" x2="294.97" style="fill:none;stroke:#58595b;stroke-miterlimit:10;stroke-width:0.313841011055507px"/><line x1="331.83" y1="340.81" x2="331.83" style="fill:none;stroke:#58595b;stroke-miterlimit:10;stroke-width:0.313841011055507px"/><line x1="368.68" y1="340.81" x2="368.68" style="fill:none;stroke:#58595b;stroke-miterlimit:10;stroke-width:0.313841011055507px"/><line x1="405.53" y1="340.81" x2="405.53" style="fill:none;stroke:#58595b;stroke-miterlimit:10;stroke-width:0.313841011055507px"/><line x1="442.38" y1="340.81" x2="442.38" style="fill:none;stroke:#58595b;stroke-miterlimit:10;stroke-width:0.313841011055507px"/><line x1="479.23" y1="340.81" x2="479.23" style="fill:none;stroke:#58595b;stroke-miterlimit:10;stroke-width:0.313841011055507px"/></g><circle cx="55.44" cy="339.55" r="3" style="fill:#c33d28"/><circle cx="55.44" cy="339.55" r="3" style="fill:none;stroke:#c33d28;stroke-miterlimit:10;stroke-width:1.03493371314404px"/><circle cx="92.29" cy="336.26" r="3" style="fill:#c33d28"/><circle cx="92.29" cy="336.26" r="3" style="fill:none;stroke:#c33d28;stroke-miterlimit:10;stroke-width:1.03493371314334px"/><circle cx="165.99" cy="328.42" r="3" style="fill:#c33d28"/><circle cx="165.99" cy="328.42" r="3" style="fill:none;stroke:#c33d28;stroke-miterlimit:10;stroke-width:1.03493371314409px"/><text transform="translate(450.39 361.55)" style="font-size:17px;fill:#58595b;font-family:DINCondensed-Bold, DIN Condensed;font-weight:700">2018</text><text transform="translate(413.54 361.55)" style="font-size:17px;fill:#58595b;font-family:DINCondensed-Bold, DIN Condensed;font-weight:700">2017</text><text transform="translate(376.69 361.55)" style="font-size:17px;fill:#58595b;font-family:DINCondensed-Bold, DIN Condensed;font-weight:700">2016</text><text transform="translate(339.83 361.55)" style="font-size:17px;fill:#58595b;font-family:DINCondensed-Bold, DIN Condensed;font-weight:700">2015</text><text transform="translate(302.98 361.55)" style="font-size:17px;fill:#58595b;font-family:DINCondensed-Bold, DIN Condensed;font-weight:700">2014</text><text transform="translate(266.13 361.55)" style="font-size:17px;fill:#58595b;font-family:DINCondensed-Bold, DIN Condensed;font-weight:700">2013</text><text transform="translate(229.28 361.55)" style="font-size:17px;fill:#58595b;font-family:DINCondensed-Bold, DIN Condensed;font-weight:700">2012</text><text transform="translate(192.42 361.55)" style="font-size:17px;fill:#58595b;font-family:DINCondensed-Bold, DIN Condensed;font-weight:700">2011</text><text transform="translate(155.57 361.55)" style="font-size:17px;fill:#58595b;font-family:DINCondensed-Bold, DIN Condensed;font-weight:700">2010</text><text transform="translate(118.72 361.55)" style="font-size:17px;fill:#58595b;font-family:DINCondensed-Bold, DIN Condensed;font-weight:700">2009</text><text transform="translate(81.87 361.55)" style="font-size:17px;fill:#58595b;font-family:DINCondensed-Bold, DIN Condensed;font-weight:700">2008</text><text transform="translate(45.02 361.55)" style="font-size:17px;fill:#58595b;font-family:DINCondensed-Bold, DIN Condensed;font-weight:700">2007</text><text transform="translate(8.16 361.55)" style="font-size:17px;fill:#58595b;font-family:DINCondensed-Bold, DIN Condensed;font-weight:700">2006</text><text transform="translate(5.77 329.02)" style="font-size:6px;fill:#c33d28;font-family:URWDIN-Bold, URW DIN;font-weight:700">$545,100<tspan style="fill:#185e8e"><tspan x="3.24" y="6">$24,074</tspan></tspan></text><text transform="translate(39.58 324.08)" style="font-size:6px;fill:#c33d28;font-family:URWDIN-Bold, URW DIN;font-weight:700">$1,658,161<tspan style="fill:#185e8e"><tspan x="0" y="8">$1,198,975</tspan></tspan></text><text transform="translate(77.98 320.35)" style="font-size:6px;fill:#c33d28;font-family:URWDIN-Bold, URW DIN;font-weight:700">$5,998,667<tspan style="fill:#185e8e"><tspan x="0" y="8">$3,632,400</tspan></tspan></text><text transform="translate(112.72 308.57)" style="font-size:6px;fill:#c33d28;font-family:URWDIN-Bold, URW DIN;font-weight:700">$23,888,800<tspan style="fill:#185e8e"><tspan x="0" y="8">$13,195,159</tspan></tspan></text><text transform="translate(148.61 311.6)" style="font-size:6px;fill:#c33d28;font-family:URWDIN-Bold, URW DIN;font-weight:700">$16,340,995<tspan style="fill:#185e8e"><tspan x="0" y="8">$13,983,836</tspan></tspan></text><text transform="translate(186.38 299.11)" style="font-size:6px;fill:#c33d28;font-family:URWDIN-Bold, URW DIN;font-weight:700">$35,238,110<tspan style="fill:#185e8e"><tspan x="0" y="8">$22,168,201</tspan></tspan></text><text/><text transform="translate(261.38 273.06)" style="font-size:6px;fill:#185e8e;font-family:URWDIN-Bold, URW DIN;font-weight:700"><tspan xml:space="preserve"> $66,722,181</tspan></text><text transform="translate(294.69 295.5)" style="font-size:6px;fill:#185e8e;font-family:URWDIN-Bold, URW DIN;font-weight:700"><tspan xml:space="preserve"> $120,596,566</tspan></text><text transform="translate(330.95 261.18)" style="font-size:6px;fill:#185e8e;font-family:URWDIN-Bold, URW DIN;font-weight:700"><tspan xml:space="preserve"> $198,542,902</tspan></text><text transform="translate(368.08 224.93)" style="font-size:6px;fill:#185e8e;font-family:URWDIN-Bold, URW DIN;font-weight:700"><tspan xml:space="preserve"> $246,458,312</tspan></text><text transform="translate(404.67 200.03)" style="font-size:6px;fill:#185e8e;font-family:URWDIN-Bold, URW DIN;font-weight:700"><tspan xml:space="preserve"> $297,963,758</tspan></text><text transform="translate(221.76 284.35)" style="font-size:6px;fill:#c33d28;font-family:URWDIN-Bold, URW DIN;font-weight:700"><tspan xml:space="preserve"> $51,601,903</tspan><tspan style="fill:#185e8e"><tspan x="0" y="8" xml:space="preserve"> $36,385,730</tspan></tspan></text><text transform="translate(258.14 265.7)" style="font-size:6px;fill:#c33d28;font-family:URWDIN-Bold, URW DIN;font-weight:700"><tspan xml:space="preserve"> $111,843,284</tspan></text><text transform="translate(294.66 302.21)" style="font-size:6px;fill:#c33d28;font-family:URWDIN-Bold, URW DIN;font-weight:700"><tspan xml:space="preserve"> $117,897,024</tspan></text><text transform="translate(330.73 149.9)" style="font-size:6px;fill:#c33d28;font-family:URWDIN-Bold, URW DIN;font-weight:700"><tspan xml:space="preserve"> $315,729,299</tspan></text><text transform="translate(368.08 131.65)" style="font-size:6px;fill:#c33d28;font-family:URWDIN-Bold, URW DIN;font-weight:700"><tspan xml:space="preserve"> $363,725,355</tspan></text><text transform="translate(404.67 155.86)" style="font-size:6px;fill:#c33d28;font-family:URWDIN-Bold, URW DIN;font-weight:700"><tspan xml:space="preserve"> $356,195,628</tspan></text><rect x="367.59" y="58.13" width="112.73" height="29.81" style="fill:#185e8e"/><text transform="translate(370.12 81.75) scale(0.7)" style="font-size:14.301199913024902px;fill:#fff;font-family:URWDIN-Bold, URW DIN;font-weight:700"> <tspan x="2.86" y="0" style="letter-spacing:0.01502277815605508em">T</tspan><tspan x="11.03" y="0" style="letter-spacing:0.01590073272361674em">O</tspan><tspan x="20.81" y="0" style="letter-spacing:-0.02702149057939777em">T</tspan><tspan x="28.37" y="0">AL: $1,373,836,754</tspan></text><text transform="translate(381.81 69.24) scale(0.7)" style="font-size:11.440959930419922px;fill:#fff;font-family:RobotoSlab-Regular, Roboto Slab">P<tspan x="7.27" y="0" style="letter-spacing:-0.009876988885068683em">r</tspan><tspan x="11.89" y="0">ogram Expe</tspan><tspan x="76.5" y="0" style="letter-spacing:-0.004877525375342559em">n</tspan><tspan x="83.81" y="0">ditu</tspan><tspan x="105.57" y="0" style="letter-spacing:-0.009389236347534425em">r</tspan><tspan x="110.2" y="0">es </tspan></text><rect x="367.59" y="23.3" width="112.73" height="29.48" style="fill:#c33d28"/><text transform="translate(370.64 46.97) scale(0.7)" style="font-size:14.301199913024902px;fill:#fff;font-family:URWDIN-Bold, URW DIN;font-weight:700"> <tspan x="2.86" y="0" style="letter-spacing:0.01502277815605508em">T</tspan><tspan x="11.03" y="0" style="letter-spacing:0.01590073272361674em">O</tspan><tspan x="20.81" y="0" style="letter-spacing:-0.02702149057939777em">T</tspan><tspan x="28.37" y="0" xml:space="preserve">AL:  $1,400,662,326</tspan></text><text transform="translate(388.46 34.76) scale(0.7)" style="font-size:11.440959930419922px;fill:#fff;font-family:RobotoSlab-Regular, Roboto Slab">Donations Recei<tspan x="88.39" y="0" style="letter-spacing:-0.006340782987945327em">v</tspan><tspan x="94.7" y="0">ed</tspan></text><line x1="55.34" y1="339.04" x2="18.48" y2="339.68" style="fill:none;stroke:#185e8e;stroke-linecap:round;stroke-miterlimit:10;stroke-width:1.9661972650524px"/><line x1="92.2" y1="337.7" x2="55.34" y2="339.04" style="fill:none;stroke:#185e8e;stroke-linecap:round;stroke-miterlimit:10;stroke-width:1.9661972650524px"/><line x1="129.07" y1="332.46" x2="92.2" y2="337.7" style="fill:none;stroke:#185e8e;stroke-linecap:round;stroke-miterlimit:10;stroke-width:1.9661972650524px"/><line x1="165.93" y1="332.02" x2="129.07" y2="332.46" style="fill:none;stroke:#185e8e;stroke-linecap:round;stroke-miterlimit:10;stroke-width:1.9661972650524px"/><line x1="202.79" y1="327.53" x2="165.93" y2="332.02" style="fill:none;stroke:#185e8e;stroke-linecap:round;stroke-miterlimit:10;stroke-width:1.9661972650524px"/><line x1="239.65" y1="319.73" x2="202.79" y2="327.53" style="fill:none;stroke:#185e8e;stroke-linecap:round;stroke-miterlimit:10;stroke-width:1.9661972650524px"/><line x1="276.51" y1="303.09" x2="239.65" y2="319.73" style="fill:none;stroke:#185e8e;stroke-linecap:round;stroke-miterlimit:10;stroke-width:1.9661972650524px"/><line x1="313.37" y1="273.53" x2="276.51" y2="303.09" style="fill:none;stroke:#185e8e;stroke-linecap:round;stroke-miterlimit:10;stroke-width:1.9661972650524px"/><line x1="350.23" y1="230.76" x2="313.37" y2="273.53" style="fill:none;stroke:#185e8e;stroke-linecap:round;stroke-miterlimit:10;stroke-width:1.9661972650524px"/><line x1="387.09" y1="204.47" x2="350.23" y2="230.76" style="fill:none;stroke:#185e8e;stroke-linecap:round;stroke-miterlimit:10;stroke-width:1.9661972650524px"/><line x1="423.96" y1="176.21" x2="387.09" y2="204.47" style="fill:none;stroke:#185e8e;stroke-linecap:round;stroke-miterlimit:10;stroke-width:1.9661972650524px"/><line x1="460.82" y1="146.03" x2="423.96" y2="176.21" style="fill:none;stroke:#185e8e;stroke-linecap:round;stroke-miterlimit:10;stroke-width:1.9661972650524px"/><text transform="translate(442.26 169.33)" style="font-size:6px;fill:#185e8e;font-family:URWDIN-Bold, URW DIN;font-weight:700">$352,964,660</text><circle cx="18.48" cy="339.68" r="3" style="fill:#185e8e"/><circle cx="18.48" cy="339.68" r="3" style="fill:none;stroke:#185e8e;stroke-miterlimit:10"/><circle cx="55.34" cy="339.04" r="3" style="fill:#185e8e"/><circle cx="55.34" cy="339.04" r="3" style="fill:none;stroke:#185e8e;stroke-miterlimit:10"/><circle cx="92.2" cy="337.7" r="3" style="fill:#185e8e"/><circle cx="92.2" cy="337.7" r="3" style="fill:none;stroke:#185e8e;stroke-miterlimit:10"/><circle cx="129.07" cy="332.46" r="3" style="fill:#185e8e"/><circle cx="129.07" cy="332.46" r="3" style="fill:none;stroke:#185e8e;stroke-miterlimit:10"/><circle cx="165.93" cy="332.02" r="3" style="fill:#185e8e"/><circle cx="165.93" cy="332.02" r="3" style="fill:none;stroke:#185e8e;stroke-miterlimit:10"/><circle cx="202.79" cy="327.53" r="3" style="fill:#185e8e"/><circle cx="202.79" cy="327.53" r="3" style="fill:none;stroke:#185e8e;stroke-miterlimit:10"/><circle cx="239.65" cy="319.73" r="3" style="fill:#185e8e"/><circle cx="239.65" cy="319.73" r="3" style="fill:none;stroke:#185e8e;stroke-miterlimit:10"/><circle cx="276.51" cy="303.09" r="3" style="fill:#185e8e"/><circle cx="276.51" cy="303.09" r="3" style="fill:none;stroke:#185e8e;stroke-miterlimit:10"/><circle cx="313.37" cy="273.53" r="3" style="fill:#185e8e"/><circle cx="313.37" cy="273.53" r="3" style="fill:none;stroke:#185e8e;stroke-miterlimit:10"/><circle cx="350.23" cy="230.76" r="3" style="fill:#185e8e"/><circle cx="350.23" cy="230.76" r="3" style="fill:none;stroke:#185e8e;stroke-miterlimit:10"/><circle cx="387.09" cy="204.47" r="3" style="fill:#185e8e"/><circle cx="387.09" cy="204.47" r="3" style="fill:none;stroke:#185e8e;stroke-miterlimit:10"/><circle cx="423.96" cy="176.21" r="3" style="fill:#185e8e"/><circle cx="423.96" cy="176.21" r="3" style="fill:none;stroke:#185e8e;stroke-miterlimit:10"/><circle cx="460.82" cy="146.03" r="3" style="fill:#185e8e"/><circle cx="460.82" cy="146.03" r="3" style="fill:none;stroke:#185e8e;stroke-miterlimit:10"/><ellipse cx="460.92" cy="114.04" rx="2.9" ry="3" style="fill:#c33d28"/><ellipse cx="460.92" cy="114.04" rx="2.9" ry="3" style="fill:none;stroke:#c33d28;stroke-miterlimit:10;stroke-width:1.00276079176141px"/><circle cx="460.82" cy="146.13" r="3" style="fill:#185e8e"/><circle cx="460.82" cy="146.13" r="3" style="fill:none;stroke:#185e8e;stroke-miterlimit:10"/><text transform="translate(442.1 107.65)" style="font-size:6px;fill:#c33d28;font-family:URWDIN-Bold, URW DIN;font-weight:700"><tspan xml:space="preserve"> $405,390,382</tspan></text></g></g></svg>