<svg xmlns="http://www.w3.org/2000/svg" viewBox="0 0 474.6 343.56"><title>backers-graph-2</title><g id="Layer_2" data-name="Layer 2"><g id="Layer_2-2" data-name="Layer 2"><line x1="50.1" y1="315.36" x2="13.28" y2="315.97" style="fill:none;stroke:#c33d28;stroke-linecap:round;stroke-miterlimit:10;stroke-width:1.965209170206px"/><line x1="86.92" y1="312.98" x2="50.1" y2="315.36" style="fill:none;stroke:#c33d28;stroke-linecap:round;stroke-miterlimit:10;stroke-width:1.965209170206px"/><line x1="123.75" y1="303.16" x2="86.92" y2="312.98" style="fill:none;stroke:#c33d28;stroke-linecap:round;stroke-miterlimit:10;stroke-width:1.965209170206px"/><line x1="160.57" y1="307.3" x2="123.75" y2="303.16" style="fill:none;stroke:#c33d28;stroke-linecap:round;stroke-miterlimit:10;stroke-width:1.965209170206px"/><line x1="197.4" y1="296.93" x2="160.57" y2="307.3" style="fill:none;stroke:#c33d28;stroke-linecap:round;stroke-miterlimit:10;stroke-width:1.965209170206px"/><line x1="234.22" y1="287.95" x2="197.4" y2="296.93" style="fill:none;stroke:#c33d28;stroke-linecap:round;stroke-miterlimit:10;stroke-width:1.965209170206px"/><line x1="271.04" y1="254.9" x2="234.22" y2="287.95" style="fill:none;stroke:#c33d28;stroke-linecap:round;stroke-miterlimit:10;stroke-width:1.965209170206px"/><line x1="307.87" y1="251.58" x2="271.04" y2="254.9" style="fill:none;stroke:#c33d28;stroke-linecap:round;stroke-miterlimit:10;stroke-width:1.965209170206px"/><line x1="344.69" y1="143.03" x2="307.87" y2="251.58" style="fill:none;stroke:#c33d28;stroke-linecap:round;stroke-miterlimit:10;stroke-width:1.965209170206px"/><line x1="381.52" y1="116.7" x2="344.69" y2="143.03" style="fill:none;stroke:#c33d28;stroke-linecap:round;stroke-miterlimit:10;stroke-width:1.965209170206px"/><polyline points="381.52 116.7 418.34 120.83 455.2 90.75" style="fill:none;stroke:#c33d28;stroke-linecap:round;stroke-miterlimit:10;stroke-width:1.965209170206px"/><ellipse cx="13.28" cy="315.97" rx="2.9" ry="3" style="fill:#c33d28"/><ellipse cx="13.28" cy="315.97" rx="2.9" ry="3" style="fill:none;stroke:#c33d28;stroke-miterlimit:10;stroke-width:1.00276079176141px"/><ellipse cx="50.1" cy="315.36" rx="2.9" ry="3" style="fill:#c33d28"/><ellipse cx="50.1" cy="315.36" rx="2.9" ry="3" style="fill:none;stroke:#c33d28;stroke-miterlimit:10;stroke-width:1.00276079176141px"/><ellipse cx="86.92" cy="312.98" rx="2.9" ry="3" style="fill:#c33d28"/><ellipse cx="86.92" cy="312.98" rx="2.9" ry="3" style="fill:none;stroke:#c33d28;stroke-miterlimit:10;stroke-width:1.00276079176141px"/><ellipse cx="123.75" cy="303.16" rx="2.9" ry="3" style="fill:#c33d28"/><ellipse cx="123.75" cy="303.16" rx="2.9" ry="3" style="fill:none;stroke:#c33d28;stroke-miterlimit:10;stroke-width:1.00276079176141px"/><ellipse cx="160.57" cy="307.3" rx="2.9" ry="3" style="fill:#c33d28"/><ellipse cx="160.57" cy="307.3" rx="2.9" ry="3" style="fill:none;stroke:#c33d28;stroke-miterlimit:10;stroke-width:1.00276079176141px"/><ellipse cx="197.4" cy="296.93" rx="2.9" ry="3" style="fill:#c33d28"/><ellipse cx="197.4" cy="296.93" rx="2.9" ry="3" style="fill:none;stroke:#c33d28;stroke-miterlimit:10;stroke-width:1.00276079176141px"/><ellipse cx="234.22" cy="287.95" rx="2.9" ry="3" style="fill:#c33d28"/><ellipse cx="234.22" cy="287.95" rx="2.9" ry="3" style="fill:none;stroke:#c33d28;stroke-miterlimit:10;stroke-width:1.00276079176141px"/><ellipse cx="271.04" cy="254.9" rx="2.9" ry="3" style="fill:#c33d28"/><ellipse cx="271.04" cy="254.9" rx="2.9" ry="3" style="fill:none;stroke:#c33d28;stroke-miterlimit:10;stroke-width:1.00276079176141px"/><ellipse cx="307.87" cy="251.58" rx="2.9" ry="3" style="fill:#c33d28"/><ellipse cx="307.87" cy="251.58" rx="2.9" ry="3" style="fill:none;stroke:#c33d28;stroke-miterlimit:10;stroke-width:1.00276079176141px"/><ellipse cx="344.69" cy="143.03" rx="2.9" ry="3" style="fill:#c33d28"/><ellipse cx="344.69" cy="143.03" rx="2.9" ry="3" style="fill:none;stroke:#c33d28;stroke-miterlimit:10;stroke-width:1.00276079176141px"/><ellipse cx="381.52" cy="116.7" rx="2.9" ry="3" style="fill:#c33d28"/><ellipse cx="381.52" cy="116.7" rx="2.9" ry="3" style="fill:none;stroke:#c33d28;stroke-miterlimit:10;stroke-width:1.00276079176141px"/><ellipse cx="418.34" cy="120.83" rx="2.9" ry="3" style="fill:#c33d28"/><ellipse cx="418.34" cy="120.83" rx="2.9" ry="3" style="fill:none;stroke:#c33d28;stroke-miterlimit:10;stroke-width:1.00276079176141px"/><circle cx="49.72" cy="316.26" r="3" style="fill:#c33d28"/><circle cx="49.72" cy="316.26" r="3" style="fill:none;stroke:#c33d28;stroke-miterlimit:10;stroke-width:1.03493371314404px"/><circle cx="86.57" cy="312.97" r="3" style="fill:#c33d28"/><circle cx="86.57" cy="312.97" r="3" style="fill:none;stroke:#c33d28;stroke-miterlimit:10;stroke-width:1.03493371314334px"/><circle cx="160.27" cy="305.12" r="3" style="fill:#c33d28"/><circle cx="160.27" cy="305.12" r="3" style="fill:none;stroke:#c33d28;stroke-miterlimit:10;stroke-width:1.03493371314409px"/><text transform="translate(444.67 338.25)" style="font-size:17px;fill:#58595b;font-family:DINCondensed-Bold, DIN Condensed;font-weight:700">2018</text><text transform="translate(407.82 338.25)" style="font-size:17px;fill:#58595b;font-family:DINCondensed-Bold, DIN Condensed;font-weight:700">2017</text><text transform="translate(370.97 338.25)" style="font-size:17px;fill:#58595b;font-family:DINCondensed-Bold, DIN Condensed;font-weight:700">2016</text><text transform="translate(334.12 338.25)" style="font-size:17px;fill:#58595b;font-family:DINCondensed-Bold, DIN Condensed;font-weight:700">2015</text><text transform="translate(297.26 338.25)" style="font-size:17px;fill:#58595b;font-family:DINCondensed-Bold, DIN Condensed;font-weight:700">2014</text><text transform="translate(260.41 338.25)" style="font-size:17px;fill:#58595b;font-family:DINCondensed-Bold, DIN Condensed;font-weight:700">2013</text><text transform="translate(223.56 338.25)" style="font-size:17px;fill:#58595b;font-family:DINCondensed-Bold, DIN Condensed;font-weight:700">2012</text><text transform="translate(186.71 338.25)" style="font-size:17px;fill:#58595b;font-family:DINCondensed-Bold, DIN Condensed;font-weight:700">2011</text><text transform="translate(149.85 338.25)" style="font-size:17px;fill:#58595b;font-family:DINCondensed-Bold, DIN Condensed;font-weight:700">2010</text><text transform="translate(113 338.25)" style="font-size:17px;fill:#58595b;font-family:DINCondensed-Bold, DIN Condensed;font-weight:700">2009</text><text transform="translate(76.15 338.25)" style="font-size:17px;fill:#58595b;font-family:DINCondensed-Bold, DIN Condensed;font-weight:700">2008</text><text transform="translate(39.3 338.25)" style="font-size:17px;fill:#58595b;font-family:DINCondensed-Bold, DIN Condensed;font-weight:700">2007</text><text transform="translate(2.45 338.25)" style="font-size:17px;fill:#58595b;font-family:DINCondensed-Bold, DIN Condensed;font-weight:700">2006</text><text transform="translate(0.05 305.73)" style="font-size:6px;fill:#c33d28;font-family:URWDIN-Bold, URW DIN;font-weight:700">$545,100<tspan style="fill:#185e8e"><tspan x="3.24" y="6">$24,074</tspan></tspan></text><text transform="translate(33.86 300.78)" style="font-size:6px;fill:#c33d28;font-family:URWDIN-Bold, URW DIN;font-weight:700">$1,658,161<tspan style="fill:#185e8e"><tspan x="0" y="8">$1,198,975</tspan></tspan></text><text transform="translate(72.26 297.06)" style="font-size:6px;fill:#c33d28;font-family:URWDIN-Bold, URW DIN;font-weight:700">$5,998,667<tspan style="fill:#185e8e"><tspan x="0" y="8">$3,632,400</tspan></tspan></text><text transform="translate(107 285.27)" style="font-size:6px;fill:#c33d28;font-family:URWDIN-Bold, URW DIN;font-weight:700">$23,888,800<tspan style="fill:#185e8e"><tspan x="0" y="8">$13,195,159</tspan></tspan></text><text transform="translate(142.89 288.31)" style="font-size:6px;fill:#c33d28;font-family:URWDIN-Bold, URW DIN;font-weight:700">$16,340,995<tspan style="fill:#185e8e"><tspan x="0" y="8">$13,983,836</tspan></tspan></text><text transform="translate(180.67 275.81)" style="font-size:6px;fill:#c33d28;font-family:URWDIN-Bold, URW DIN;font-weight:700">$35,238,110<tspan style="fill:#185e8e"><tspan x="0" y="8">$22,168,201</tspan></tspan></text><text/><text transform="translate(255.66 249.76)" style="font-size:6px;fill:#185e8e;font-family:URWDIN-Bold, URW DIN;font-weight:700"><tspan xml:space="preserve"> $66,722,181</tspan></text><text transform="translate(288.97 272.21)" style="font-size:6px;fill:#185e8e;font-family:URWDIN-Bold, URW DIN;font-weight:700"><tspan xml:space="preserve"> $120,596,566</tspan></text><text transform="translate(325.23 237.88)" style="font-size:6px;fill:#185e8e;font-family:URWDIN-Bold, URW DIN;font-weight:700"><tspan xml:space="preserve"> $198,542,902</tspan></text><text transform="translate(362.36 201.64)" style="font-size:6px;fill:#185e8e;font-family:URWDIN-Bold, URW DIN;font-weight:700"><tspan xml:space="preserve"> $246,458,312</tspan></text><text transform="translate(398.95 176.73)" style="font-size:6px;fill:#185e8e;font-family:URWDIN-Bold, URW DIN;font-weight:700"><tspan xml:space="preserve"> $297,963,758</tspan></text><text transform="translate(216.05 261.05)" style="font-size:6px;fill:#c33d28;font-family:URWDIN-Bold, URW DIN;font-weight:700"><tspan xml:space="preserve"> $51,601,903</tspan><tspan style="fill:#185e8e"><tspan x="0" y="8" xml:space="preserve"> $36,385,730</tspan></tspan></text><text transform="translate(252.42 242.4)" style="font-size:6px;fill:#c33d28;font-family:URWDIN-Bold, URW DIN;font-weight:700"><tspan xml:space="preserve"> $111,843,284</tspan></text><text transform="translate(288.95 278.91)" style="font-size:6px;fill:#c33d28;font-family:URWDIN-Bold, URW DIN;font-weight:700"><tspan xml:space="preserve"> $117,897,024</tspan></text><text transform="translate(325.01 126.6)" style="font-size:6px;fill:#c33d28;font-family:URWDIN-Bold, URW DIN;font-weight:700"><tspan xml:space="preserve"> $315,729,299</tspan></text><text transform="translate(362.36 108.36)" style="font-size:6px;fill:#c33d28;font-family:URWDIN-Bold, URW DIN;font-weight:700"><tspan xml:space="preserve"> $363,725,355</tspan></text><text transform="translate(398.95 132.56)" style="font-size:6px;fill:#c33d28;font-family:URWDIN-Bold, URW DIN;font-weight:700"><tspan xml:space="preserve"> $356,195,628</tspan></text><rect x="361.87" y="34.83" width="112.73" height="29.81" style="fill:#185e8e"/><text transform="translate(364.4 58.45) scale(0.7)" style="font-size:14.301199913024902px;fill:#fff;font-family:URWDIN-Bold, URW DIN;font-weight:700"> <tspan x="2.86" y="0" style="letter-spacing:0.01502277815605508em">T</tspan><tspan x="11.03" y="0" style="letter-spacing:0.01590073272361674em">O</tspan><tspan x="20.81" y="0" style="letter-spacing:-0.02702149057939777em">T</tspan><tspan x="28.37" y="0">AL: $1,373,836,754</tspan></text><text transform="translate(376.09 45.94) scale(0.7)" style="font-size:11.440959930419922px;fill:#fff;font-family:RobotoSlab-Regular, Roboto Slab">P<tspan x="7.27" y="0" style="letter-spacing:-0.009876988885068683em">r</tspan><tspan x="11.89" y="0">ogram Expe</tspan><tspan x="76.5" y="0" style="letter-spacing:-0.004877525375342559em">n</tspan><tspan x="83.81" y="0">ditu</tspan><tspan x="105.57" y="0" style="letter-spacing:-0.009389236347534425em">r</tspan><tspan x="110.2" y="0">es </tspan></text><rect x="361.87" width="112.73" height="29.48" style="fill:#c33d28"/><text transform="translate(364.92 23.67) scale(0.7)" style="font-size:14.301199913024902px;fill:#fff;font-family:URWDIN-Bold, URW DIN;font-weight:700"> <tspan x="2.86" y="0" style="letter-spacing:0.01502277815605508em">T</tspan><tspan x="11.03" y="0" style="letter-spacing:0.01590073272361674em">O</tspan><tspan x="20.81" y="0" style="letter-spacing:-0.02702149057939777em">T</tspan><tspan x="28.37" y="0" xml:space="preserve">AL:  $1,400,662,326</tspan></text><text transform="translate(382.75 11.46) scale(0.7)" style="font-size:11.440959930419922px;fill:#fff;font-family:RobotoSlab-Regular, Roboto Slab">Donations Recei<tspan x="88.39" y="0" style="letter-spacing:-0.006340782987945327em">v</tspan><tspan x="94.7" y="0">ed</tspan></text><line x1="49.63" y1="315.74" x2="12.76" y2="316.39" style="fill:none;stroke:#185e8e;stroke-linecap:round;stroke-miterlimit:10;stroke-width:1.9661972650524px"/><line x1="86.49" y1="314.41" x2="49.63" y2="315.74" style="fill:none;stroke:#185e8e;stroke-linecap:round;stroke-miterlimit:10;stroke-width:1.9661972650524px"/><line x1="123.35" y1="309.16" x2="86.49" y2="314.41" style="fill:none;stroke:#185e8e;stroke-linecap:round;stroke-miterlimit:10;stroke-width:1.9661972650524px"/><line x1="160.21" y1="308.73" x2="123.35" y2="309.16" style="fill:none;stroke:#185e8e;stroke-linecap:round;stroke-miterlimit:10;stroke-width:1.9661972650524px"/><line x1="197.07" y1="304.24" x2="160.21" y2="308.73" style="fill:none;stroke:#185e8e;stroke-linecap:round;stroke-miterlimit:10;stroke-width:1.9661972650524px"/><line x1="233.93" y1="296.44" x2="197.07" y2="304.24" style="fill:none;stroke:#185e8e;stroke-linecap:round;stroke-miterlimit:10;stroke-width:1.9661972650524px"/><line x1="270.79" y1="279.79" x2="233.93" y2="296.44" style="fill:none;stroke:#185e8e;stroke-linecap:round;stroke-miterlimit:10;stroke-width:1.9661972650524px"/><line x1="307.65" y1="250.23" x2="270.79" y2="279.79" style="fill:none;stroke:#185e8e;stroke-linecap:round;stroke-miterlimit:10;stroke-width:1.9661972650524px"/><line x1="344.52" y1="207.46" x2="307.65" y2="250.23" style="fill:none;stroke:#185e8e;stroke-linecap:round;stroke-miterlimit:10;stroke-width:1.9661972650524px"/><line x1="381.38" y1="181.17" x2="344.52" y2="207.46" style="fill:none;stroke:#185e8e;stroke-linecap:round;stroke-miterlimit:10;stroke-width:1.9661972650524px"/><line x1="418.24" y1="152.91" x2="381.38" y2="181.17" style="fill:none;stroke:#185e8e;stroke-linecap:round;stroke-miterlimit:10;stroke-width:1.9661972650524px"/><line x1="455.1" y1="122.74" x2="418.24" y2="152.91" style="fill:none;stroke:#185e8e;stroke-linecap:round;stroke-miterlimit:10;stroke-width:1.9661972650524px"/><text transform="translate(436.54 146.03)" style="font-size:6px;fill:#185e8e;font-family:URWDIN-Bold, URW DIN;font-weight:700">$352,964,660</text><circle cx="12.76" cy="316.39" r="3" style="fill:#185e8e"/><circle cx="12.76" cy="316.39" r="3" style="fill:none;stroke:#185e8e;stroke-miterlimit:10"/><circle cx="49.63" cy="315.74" r="3" style="fill:#185e8e"/><circle cx="49.63" cy="315.74" r="3" style="fill:none;stroke:#185e8e;stroke-miterlimit:10"/><circle cx="86.49" cy="314.41" r="3" style="fill:#185e8e"/><circle cx="86.49" cy="314.41" r="3" style="fill:none;stroke:#185e8e;stroke-miterlimit:10"/><circle cx="123.35" cy="309.16" r="3" style="fill:#185e8e"/><circle cx="123.35" cy="309.16" r="3" style="fill:none;stroke:#185e8e;stroke-miterlimit:10"/><circle cx="160.21" cy="308.73" r="3" style="fill:#185e8e"/><circle cx="160.21" cy="308.73" r="3" style="fill:none;stroke:#185e8e;stroke-miterlimit:10"/><circle cx="197.07" cy="304.24" r="3" style="fill:#185e8e"/><circle cx="197.07" cy="304.24" r="3" style="fill:none;stroke:#185e8e;stroke-miterlimit:10"/><circle cx="233.93" cy="296.44" r="3" style="fill:#185e8e"/><circle cx="233.93" cy="296.44" r="3" style="fill:none;stroke:#185e8e;stroke-miterlimit:10"/><circle cx="270.79" cy="279.79" r="3" style="fill:#185e8e"/><circle cx="270.79" cy="279.79" r="3" style="fill:none;stroke:#185e8e;stroke-miterlimit:10"/><circle cx="307.65" cy="250.23" r="3" style="fill:#185e8e"/><circle cx="307.65" cy="250.23" r="3" style="fill:none;stroke:#185e8e;stroke-miterlimit:10"/><circle cx="344.52" cy="207.46" r="3" style="fill:#185e8e"/><circle cx="344.52" cy="207.46" r="3" style="fill:none;stroke:#185e8e;stroke-miterlimit:10"/><circle cx="381.38" cy="181.17" r="3" style="fill:#185e8e"/><circle cx="381.38" cy="181.17" r="3" style="fill:none;stroke:#185e8e;stroke-miterlimit:10"/><circle cx="418.24" cy="152.91" r="3" style="fill:#185e8e"/><circle cx="418.24" cy="152.91" r="3" style="fill:none;stroke:#185e8e;stroke-miterlimit:10"/><circle cx="455.1" cy="122.74" r="3" style="fill:#185e8e"/><circle cx="455.1" cy="122.74" r="3" style="fill:none;stroke:#185e8e;stroke-miterlimit:10"/><ellipse cx="455.2" cy="90.75" rx="2.9" ry="3" style="fill:#c33d28"/><ellipse cx="455.2" cy="90.75" rx="2.9" ry="3" style="fill:none;stroke:#c33d28;stroke-miterlimit:10;stroke-width:1.00276079176141px"/><circle cx="455.1" cy="122.83" r="3" style="fill:#185e8e"/><circle cx="455.1" cy="122.83" r="3" style="fill:none;stroke:#185e8e;stroke-miterlimit:10"/><text transform="translate(436.38 84.35)" style="font-size:6px;fill:#c33d28;font-family:URWDIN-Bold, URW DIN;font-weight:700"><tspan xml:space="preserve"> $405,390,382</tspan></text></g></g></svg>