<svg xmlns="http://www.w3.org/2000/svg" viewBox="0 0 486.37 490.57"><title>backers-graph-3</title><g id="Layer_2" data-name="Layer 2"><g id="Layer_2-2" data-name="Layer 2"><path d="M19.61,18.17V281.53a50.15,50.15,0,0,0,50,50H81a50.16,50.16,0,0,0,50-50l.72-213.36a50.28,50.28,0,0,1,50.11-50h11.36a50,50,0,0,1,49.9,50l.82,214.19a50.28,50.28,0,0,0,50.11,50h11.36a50.34,50.34,0,0,0,50.16-50l.57-213.19a50.28,50.28,0,0,1,50.11-50h11.35a50.15,50.15,0,0,1,50,50V169.81" style="fill:none;stroke:#58595b;stroke-miterlimit:10;stroke-width:0.968491613864899px"/><circle cx="19.44" cy="19.28" r="19.28" style="fill:#fbb040"/><text transform="translate(27.46 57.61)" style="font-size:20px;fill:#fbb040;font-family:URWDIN-Bold, URW DIN;font-weight:700">1<tspan x="10.8" y="0" style="fill:#58595b;font-size:12px"> </tspan><tspan style="font-size:10px;fill:#58595b;font-family:RobotoSlab-Regular, Roboto Slab;font-weight:400"><tspan x="0" y="12">Submit a </tspan><tspan x="0" y="24">p</tspan><tspan x="6.05" y="24" style="letter-spacing:-0.009765625em">r</tspan><tspan x="10.09" y="24">oposal </tspan><tspan x="43.61" y="24" style="letter-spacing:-0.009765625em">t</tspan><tspan x="47.17" y="24">o </tspan><tspan x="0" y="36">New </tspan><tspan x="23.75" y="36" style="letter-spacing:-0.021484375em">V</tspan><tspan x="30.71" y="36">entu</tspan><tspan x="52.26" y="36" style="letter-spacing:-0.00927734375em">r</tspan><tspan x="56.3" y="36">e </tspan><tspan x="0" y="48" style="letter-spacing:-0.0107421875em">F</tspan><tspan x="6.11" y="48">u</tspan><tspan x="12.18" y="48" style="letter-spacing:-0.0048828125em">n</tspan><tspan x="18.57" y="48">d</tspan></tspan></text><circle cx="19.28" cy="163.38" r="19.28" style="fill:#58595b"/><circle cx="72.73" cy="329.61" r="19.28" style="fill:#17bfd6"/><circle cx="189.98" cy="19.28" r="19.28" style="fill:#185e8e"/><circle cx="243.65" cy="163.38" r="19.28" style="fill:#fbb040"/><circle cx="300.65" cy="329.83" r="19.28" style="fill:#58595b"/><circle cx="414.34" cy="19.28" r="19.28" style="fill:#17bfd6"/><circle cx="467.1" cy="163.38" r="19.28" style="fill:#185e8e"/><text transform="translate(27.46 200.88)" style="font-size:20px;fill:#58595b;font-family:URWDIN-Bold, URW DIN;font-weight:700">2<tspan x="10.8" y="0" style="font-size:12px"> </tspan><tspan style="font-size:10px;font-family:RobotoSlab-Regular, Roboto Slab;font-weight:400"><tspan x="0" y="12">NVF </tspan><tspan x="23.5" y="12" style="letter-spacing:-0.00927734375em">r</tspan><tspan x="27.54" y="12" style="letter-spacing:-0.00634765625em">e</tspan><tspan x="32.85" y="12">views a</tspan><tspan x="68.45" y="12" style="letter-spacing:-0.0048828125em">n</tspan><tspan x="74.84" y="12">d </tspan><tspan x="0" y="24">app</tspan><tspan x="17.62" y="24" style="letter-spacing:-0.009765625em">r</tspan><tspan x="21.66" y="24" style="letter-spacing:-0.00732421875em">o</tspan><tspan x="27.19" y="24" style="letter-spacing:-0.00634765625em">v</tspan><tspan x="32.71" y="24">es </tspan><tspan x="45.67" y="24" style="letter-spacing:-0.009765625em">t</tspan><tspan x="49.23" y="24">o </tspan><tspan x="0" y="36">confirm it aligns </tspan><tspan x="0" y="48">with </tspan><tspan x="24.16" y="48" style="letter-spacing:-0.00732421875em">v</tspan><tspan x="29.66" y="48">alues a</tspan><tspan x="62.86" y="48" style="letter-spacing:-0.0048828125em">n</tspan><tspan x="69.25" y="48">d </tspan><tspan x="0" y="60">ot</tspan><tspan x="9.27" y="60" style="letter-spacing:-0.0048828125em">h</tspan><tspan x="15.68" y="60">er p</tspan><tspan x="33.73" y="60" style="letter-spacing:-0.009765625em">r</tspan><tspan x="37.77" y="60">ograms in </tspan><tspan x="0" y="72">po</tspan><tspan x="11.67" y="72" style="letter-spacing:0.015625em">r</tspan><tspan x="15.96" y="72">tf</tspan><tspan x="23.17" y="72" style="letter-spacing:-0.009765625em">o</tspan><tspan x="28.69" y="72">lio</tspan></tspan></text><text transform="translate(67.55 370.68)" style="font-size:20px;fill:#17bfd6;font-family:URWDIN-Bold, URW DIN;font-weight:700">3<tspan x="10.8" y="0" style="fill:#58595b;font-size:12px"> </tspan><tspan style="font-size:10px;fill:#58595b;font-family:RobotoSlab-Regular, Roboto Slab;font-weight:400"><tspan x="-16.69" y="12">Set up an </tspan><tspan x="-24.77" y="24">i</tspan><tspan x="-21.48" y="24" style="letter-spacing:-0.0048828125em">n</tspan><tspan x="-15.1" y="24">depe</tspan><tspan x="7.71" y="24" style="letter-spacing:-0.0048828125em">n</tspan><tspan x="14.1" y="24">dent </tspan><tspan x="-40.7" y="36">adviso</tspan><tspan x="-9.61" y="36" style="letter-spacing:0.0087890625em">r</tspan><tspan x="-5.39" y="36">y boa</tspan><tspan x="19.68" y="36" style="letter-spacing:-0.00927734375em">r</tspan><tspan x="23.72" y="36">d that </tspan><tspan x="-31.18" y="48">g</tspan><tspan x="-25.52" y="48" style="letter-spacing:-0.00732421875em">o</tspan><tspan x="-19.99" y="48" style="letter-spacing:-0.00634765625em">v</tspan><tspan x="-14.47" y="48">erns p</tspan><tspan x="15.12" y="48" style="letter-spacing:-0.009765625em">r</tspan><tspan x="19.15" y="48">oject</tspan></tspan></text><text transform="translate(182.48 59.64)" style="font-size:20px;fill:#185e8e;font-family:URWDIN-Bold, URW DIN;font-weight:700">4<tspan x="10.8" y="0" style="fill:#58595b;font-size:12px"> </tspan><tspan style="font-size:10px;fill:#58595b;font-family:RobotoSlab-Regular, Roboto Slab;font-weight:400"><tspan x="-24.48" y="12">Recom</tspan><tspan x="8.11" y="12" style="letter-spacing:-0.0048828125em">m</tspan><tspan x="17.51" y="12">e</tspan><tspan x="22.89" y="12" style="letter-spacing:-0.0048828125em">n</tspan><tspan x="29.28" y="12">d </tspan><tspan x="-41.34" y="24">team </tspan><tspan x="-14.86" y="24" style="letter-spacing:-0.009765625em">t</tspan><tspan x="-11.3" y="24">o accom</tspan><tspan x="28.15" y="24" style="letter-spacing:-0.0048828125em">p</tspan><tspan x="34.15" y="24">lish </tspan><tspan x="-6.6" y="36">wo</tspan><tspan x="7.28" y="36" style="letter-spacing:-0.009765625em">r</tspan><tspan x="11.32" y="36">k</tspan></tspan></text><text transform="translate(224.85 200.89)" style="font-size:20px;fill:#fbb040;font-family:URWDIN-Bold, URW DIN;font-weight:700">5<tspan x="10.8" y="0" style="font-size:12px"> </tspan><tspan style="font-size:10px;fill:#58595b;font-family:RobotoSlab-Regular, Roboto Slab;font-weight:400"><tspan x="-55.88" y="12">NVF app</tspan><tspan x="-14.77" y="12" style="letter-spacing:-0.009765625em">r</tspan><tspan x="-10.73" y="12" style="letter-spacing:-0.00732421875em">o</tspan><tspan x="-5.19" y="12" style="letter-spacing:-0.00634765625em">v</tspan><tspan x="0.33" y="12">es </tspan><tspan x="-75.83" y="24" style="letter-spacing:-0.00927734375em">r</tspan><tspan x="-71.79" y="24">ecom</tspan><tspan x="-45.96" y="24" style="letter-spacing:-0.0048828125em">m</tspan><tspan x="-36.56" y="24">e</tspan><tspan x="-31.19" y="24" style="letter-spacing:-0.0048828125em">n</tspan><tspan x="-24.8" y="24">dations </tspan></tspan></text><text transform="translate(295.25 370.9)" style="font-size:20px;fill:#58595b;font-family:URWDIN-Bold, URW DIN;font-weight:700">5<tspan x="10.8" y="0" style="font-size:12px"> </tspan><tspan style="font-size:10px;font-family:RobotoSlab-Regular, Roboto Slab;font-weight:400"><tspan x="-39.13" y="12">Donations made </tspan><tspan x="40.75" y="12" style="letter-spacing:-0.009765625em">t</tspan><tspan x="44.32" y="12">o </tspan><tspan x="-37.76" y="24" style="letter-spacing:-0.00927734375em">r</tspan><tspan x="-33.72" y="24">estricted fu</tspan><tspan x="20.39" y="24" style="letter-spacing:-0.0048828125em">n</tspan><tspan x="26.77" y="24">d for </tspan><tspan x="-39.59" y="36">t</tspan><tspan x="-35.93" y="36" style="letter-spacing:-0.0048828125em">h</tspan><tspan x="-29.52" y="36">e specific p</tspan><tspan x="23.52" y="36" style="letter-spacing:-0.009765625em">r</tspan><tspan x="27.56" y="36">oject</tspan></tspan></text><text transform="translate(406.72 60.97)" style="font-size:20px;fill:#17bfd6;font-family:URWDIN-Bold, URW DIN;font-weight:700">7<tspan x="10.8" y="0" style="fill:#58595b;font-size:12px"> </tspan><tspan style="font-size:10px;fill:#58595b;font-family:RobotoSlab-Regular, Roboto Slab;font-weight:400"><tspan x="-18" y="12">Run as an </tspan><tspan x="-42.47" y="24">i</tspan><tspan x="-39.19" y="24" style="letter-spacing:-0.0048828125em">n</tspan><tspan x="-32.8" y="24">depe</tspan><tspan x="-9.99" y="24" style="letter-spacing:-0.0048828125em">n</tspan><tspan x="-3.61" y="24">dent p</tspan><tspan x="26.41" y="24" style="letter-spacing:-0.009765625em">r</tspan><tspan x="30.45" y="24">oject </tspan><tspan x="-35.61" y="36" style="letter-spacing:-0.00927734375em">r</tspan><tspan x="-31.56" y="36">epo</tspan><tspan x="-14.52" y="36" style="letter-spacing:0.015625em">r</tspan><tspan x="-10.23" y="36">ti</tspan><tspan x="-3.28" y="36" style="letter-spacing:-0.0048828125em">n</tspan><tspan x="3.1" y="36">g against </tspan><tspan x="-17.71" y="48">outco</tspan><tspan x="8.64" y="48" style="letter-spacing:-0.0048828125em">m</tspan><tspan x="18.04" y="48">es</tspan></tspan></text><text transform="translate(463.61 206.18)" style="font-size:20px;fill:#185e8e;font-family:URWDIN-Bold, URW DIN;font-weight:700">8<tspan x="10.8" y="0" style="fill:#58595b;font-size:12px"> </tspan><tspan style="font-size:10px;fill:#58595b;font-family:RobotoSlab-Regular, Roboto Slab;font-weight:400"><tspan x="-57.21" y="12">Gain access </tspan><tspan x="1.63" y="12" style="letter-spacing:-0.009765625em">t</tspan><tspan x="5.19" y="12">o </tspan><tspan x="-70.53" y="24" style="letter-spacing:-0.0048828125em">n</tspan><tspan x="-64.15" y="24">etwo</tspan><tspan x="-41.23" y="24" style="letter-spacing:-0.009765625em">r</tspan><tspan x="-37.19" y="24">k se</tspan><tspan x="-18.16" y="24" style="letter-spacing:0.0087890625em">r</tspan><tspan x="-13.93" y="24">vices </tspan><tspan x="-64.56" y="36">at NVF li</tspan><tspan x="-22.97" y="36" style="letter-spacing:-0.009765625em">k</tspan><tspan x="-16.99" y="36">e best </tspan><tspan x="-45.31" y="48">practices in </tspan><tspan x="-33.05" y="60" style="letter-spacing:-0.0048828125em">n</tspan><tspan x="-26.66" y="60">onp</tspan><tspan x="-8.56" y="60" style="letter-spacing:-0.009765625em">r</tspan><tspan x="-4.52" y="60">ofit </tspan><tspan x="-53.98" y="72">manage</tspan><tspan x="-16.05" y="72" style="letter-spacing:-0.0048828125em">m</tspan><tspan x="-6.65" y="72">ent, </tspan><tspan x="-67.84" y="84">EDI, </tspan><tspan x="-46.84" y="84" style="letter-spacing:-0.0048828125em">m</tspan><tspan x="-37.44" y="84">etrics, etc.</tspan></tspan></text><path d="M26.4,11.72V9.82H24.5V7.92H10.08V27.65H12v1.9h1.9v1.9H25l3.26-3.26V11.72ZM10.84,26.89V8.68h12.9V9.82H12V26.89Zm1.9,1.9V10.58h12.9v1.14H13.88V28.79Zm1.9.76V12.48h12.9V27.65h-3v3H14.64ZM27,28.41l-1.74,1.74V28.41ZM25.26,15.13H16.91v-.76h8.35Zm0,1.9H16.91v-.76h8.35Zm0,1.9H16.91v-.76h8.35Zm-5.69,1.89H16.91v-.75h2.66Zm2.66,2.28V21.58H18.81v3h-1.9v3.79h7.21V23.1Zm-3.42,4.55H17.67V25.38h1.14Zm2.66,0h-1.9V22.34h1.9Zm1.89,0H22.23V23.86h1.13Z" style="fill:#fff"/><path d="M18.71,150.09a12.86,12.86,0,1,0,12.86,12.85A12.84,12.84,0,0,0,18.71,150.09Zm0,23.57a10.72,10.72,0,1,1,10.71-10.72A10.72,10.72,0,0,1,18.71,173.66Z" style="fill:#fff"/><polygon points="17.28 164.49 14 161.23 12 163.23 17.28 168.54 25.42 160.37 23.42 158.37 17.28 164.49" style="fill:#fff"/><path d="M244.17,150.75A12.86,12.86,0,1,0,257,163.61,12.84,12.84,0,0,0,244.17,150.75Zm0,23.57a10.72,10.72,0,1,1,10.72-10.71A10.72,10.72,0,0,1,244.17,174.32Z" style="fill:#fff"/><polygon points="242.74 165.15 239.46 161.89 237.46 163.89 242.74 169.21 250.89 161.04 248.89 159.04 242.74 165.15" style="fill:#fff"/><path d="M196.68,9.83C191.74,7,192.11,7.19,192,7.15h-.1L181.52,9.92a.33.33,0,0,0-.24.42l.93,3.47c-.2.27-.38.52-.55.78a6.3,6.3,0,0,0,2,8.44l-.62,1.07-.62-.35a.32.32,0,0,0-.46.12l-2.26,3.91a1.35,1.35,0,0,0,.5,1.86l.08,0a1.34,1.34,0,0,0,1.85-.49l2.26-3.92a.31.31,0,0,0-.12-.45l-.62-.39.61-1.07c.2.08.37.18.56.27l1.41,5.26a.33.33,0,0,0,.42.24l14-3.75a.32.32,0,0,0,.24-.41l-4-14.88A.27.27,0,0,0,196.68,9.83Zm-15.11,19a.66.66,0,0,1-.91.25l-.08-.05a.65.65,0,0,1-.25-.91l2.1-3.63.61.36h0l.62.36ZM195.69,10l-2.5.67-.68-2.54ZM182.24,15a5.64,5.64,0,1,1,2.07,7.71A5.67,5.67,0,0,1,182.24,15Zm17.91,9.9-13.32,3.57-1.22-4.55a6.29,6.29,0,0,0,4.67-11.56,6.25,6.25,0,0,0-7.52.94L182,10.49l9.72-2.61.88,3.32a.32.32,0,0,0,.42.23l3.28-.87Z" style="fill:#fff"/><path d="M184.2,21.5a6,6,0,0,0,.56.37,4.72,4.72,0,0,0,6.46-1.73c.12-.21.21-.4.3-.6l0,0a4.73,4.73,0,1,0-7.34,2Zm.89-.2a2.23,2.23,0,0,1-.3-.2,3.73,3.73,0,0,1,6-1.61,1.42,1.42,0,0,1-.16.33A4,4,0,0,1,185.09,21.3Zm.39-4.25a1.41,1.41,0,1,1,1.73,1A1.43,1.43,0,0,1,185.48,17.05Zm-1.88-1.31a4.07,4.07,0,0,1,7.45,3.09,4.47,4.47,0,0,0-2.51-.9,2.06,2.06,0,0,0,.33-1.76A2.09,2.09,0,1,0,186,18.61a4.2,4.2,0,0,0-1.72,2A4.08,4.08,0,0,1,183.6,15.74Z" style="fill:#fff"/><path d="M187.53,26.25a.32.32,0,0,0,.41.24l10.56-2.83a.32.32,0,0,0,.24-.42.31.31,0,0,0-.41-.23l-10.56,2.83A.37.37,0,0,0,187.53,26.25Z" style="fill:#fff"/><path d="M195.07,15.66l.65-.17a.33.33,0,0,0,.24-.42.31.31,0,0,0-.41-.23l-.65.17a.34.34,0,0,0,.17.65Z" style="fill:#fff"/><path d="M194.52,13.58l.65-.17a.32.32,0,0,0,.23-.42.31.31,0,0,0-.41-.23l-.65.17a.32.32,0,0,0-.24.41A.34.34,0,0,0,194.52,13.58Z" style="fill:#fff"/><path d="M195.62,17.71l.65-.18a.31.31,0,0,0,.24-.41.32.32,0,0,0-.41-.24l-.65.18a.31.31,0,0,0-.24.41A.32.32,0,0,0,195.62,17.71Z" style="fill:#fff"/><path d="M196.18,19.79l.65-.18a.32.32,0,0,0,.24-.41.32.32,0,0,0-.41-.24l-.65.18a.31.31,0,0,0-.24.41A.32.32,0,0,0,196.18,19.79Z" style="fill:#fff"/><path d="M196.74,21.87l.65-.18a.31.31,0,0,0,.23-.41.32.32,0,0,0-.41-.24l-.65.18a.32.32,0,0,0-.24.41A.33.33,0,0,0,196.74,21.87Z" style="fill:#fff"/><path d="M293.57,320.34a.54.54,0,0,0-.52.57.55.55,0,0,0,.57.52h15.3a.56.56,0,0,0,.56-.54.55.55,0,0,0-.54-.55H293.57Zm-1.37,2.18a.55.55,0,0,0,.05,1.1h18a.55.55,0,0,0,0-1.1H292.2Zm-1.36,2.19a.53.53,0,0,0-.52.57.54.54,0,0,0,.57.52h20.76a.55.55,0,1,0,0-1.09H290.84Zm-1.1,2.18a.55.55,0,0,0-.49.55v10.38a.54.54,0,0,0,.54.55h23a.54.54,0,0,0,.54-.55V327.44a.55.55,0,0,0-.54-.55h-23Zm.6,1.1h.82a.82.82,0,1,1-.82.82V328Zm2.55,0h5a5.71,5.71,0,0,0,0,9.29h-5a2,2,0,0,0,.18-.82,1.9,1.9,0,0,0-2.73-1.72v-4.21a1.9,1.9,0,0,0,2.73-1.72A1.86,1.86,0,0,0,292.89,328Zm8.38,0a4.65,4.65,0,1,1-4.64,4.64,4.64,4.64,0,0,1,4.64-4.64Zm3.35,0h5a1.87,1.87,0,0,0-.19.82,1.92,1.92,0,0,0,1.91,1.91,1.87,1.87,0,0,0,.82-.19v4.21a1.87,1.87,0,0,0-.82-.19,1.9,1.9,0,0,0-1.72,2.73h-5a5.71,5.71,0,0,0,0-9.29Zm6.76,0h.82v.82a.82.82,0,1,1-.82-.82Zm-10.17,1.08a.55.55,0,0,0-.49.56v.3a1.65,1.65,0,0,0-1.36,1.61,1.78,1.78,0,0,0,1.91,1.64c.61,0,.82.27.82.55s-.14.54-.55.54H299.9a.55.55,0,0,0-.55.54.56.56,0,0,0,.54.56h.83v.27a.55.55,0,0,0,1.1,0h0v-.3a1.65,1.65,0,0,0,1.36-1.61,1.78,1.78,0,0,0-1.91-1.64c-.61,0-.82-.27-.82-.55s.14-.55.55-.55h1.64a.53.53,0,0,0,.55-.54.54.54,0,0,0-.54-.55h-.83v-.27a.56.56,0,0,0-.54-.56Zm-10,6.57a.82.82,0,0,1,0,1.64h-.82v-.82A.81.81,0,0,1,291.16,335.64Zm20.22,0a.81.81,0,0,1,.82.82v.82h-.82a.82.82,0,0,1,0-1.64Z" style="fill:#fff"/><path d="M421.81,17a9.1,9.1,0,0,0-2.1-2.1.48.48,0,0,0-.45,0l-1.44.69a8.59,8.59,0,0,0-.88-.37l-.53-1.62a.44.44,0,0,0-.42-.3h-2.81a.44.44,0,0,0-.43.3l-.54,1.64-.85.36-1.46-.7a.48.48,0,0,0-.45,0,8.87,8.87,0,0,0-2.09,2.1.43.43,0,0,0,0,.45l.69,1.46-.35.85-1.64.54a.45.45,0,0,0-.31.42v2.81A.44.44,0,0,0,406,24l1.64.55.35.85-.69,1.46a.43.43,0,0,0,0,.45,8.64,8.64,0,0,0,2.09,2.09.43.43,0,0,0,.45,0l1.33-.66-.39-.79-1.09.53A7.82,7.82,0,0,1,408.23,27l.66-1.4a.41.41,0,0,0,0-.36L408.4,24a.44.44,0,0,0-.27-.25l-1.53-.51V21.07l1.53-.5a.47.47,0,0,0,.27-.25l.5-1.22a.41.41,0,0,0,0-.36l-.66-1.4a7.92,7.92,0,0,1,1.53-1.53l1.4.66a.41.41,0,0,0,.36,0l1.22-.51a.4.4,0,0,0,.25-.27l.51-1.52h2.17l.5,1.52a.46.46,0,0,0,.29.29,6.77,6.77,0,0,1,1.15.47.41.41,0,0,0,.39,0l1.4-.66a8.16,8.16,0,0,1,1.53,1.52l-.66,1.41a.41.41,0,0,0,0,.39,6.77,6.77,0,0,1,.47,1.15.47.47,0,0,0,.28.29l1.53.5v2.17l-1.53.51a.45.45,0,0,0-.28.29,6.67,6.67,0,0,1-.47,1.14.43.43,0,0,0,0,.4l.66,1.4a7.87,7.87,0,0,1-1.52,1.53L418.32,28l-.39.79,1.33.66a.43.43,0,0,0,.45,0,8.87,8.87,0,0,0,2.1-2.09.48.48,0,0,0,0-.45l-.69-1.44c.14-.29.26-.58.37-.88l1.61-.54a.43.43,0,0,0,.31-.42V20.75a.44.44,0,0,0-.31-.42l-1.61-.54c-.11-.29-.23-.59-.37-.87l.69-1.44A.48.48,0,0,0,421.81,17Z" style="fill:#fff"/><path d="M412.36,31v1.33a.45.45,0,0,0,.45.44h3.54a.45.45,0,0,0,.45-.44h0V31a.45.45,0,0,0,.44-.45h0v-.66a7.78,7.78,0,0,1,1.62-4.61,5.27,5.27,0,0,0,1-3.15,5.32,5.32,0,1,0-9.5,3.28,7.61,7.61,0,0,1,1.52,4.69v.45a.45.45,0,0,0,.44.45Zm3.55.88h-2.66V31h2.66Zm-4.82-7a4.43,4.43,0,0,1-.89-3.44,4.44,4.44,0,0,1,8.79.19,4.4,4.4,0,0,1-.84,3.14,8.78,8.78,0,0,0-1.8,5.14v.22H415V26.55a2.21,2.21,0,1,0-.88,0v3.59h-1.33A8.47,8.47,0,0,0,411.09,24.89Zm3.49.82a1.33,1.33,0,1,1,1.33-1.33A1.34,1.34,0,0,1,414.58,25.71Z" style="fill:#fff"/><path d="M411,7.55V9.72a1.35,1.35,0,0,0,1.36,1.35h1.07l.75,1.14a.45.45,0,0,0,.62.12.34.34,0,0,0,.12-.12l.76-1.14h1.07a1.35,1.35,0,0,0,1.35-1.35V7.55a1.35,1.35,0,0,0-1.35-1.35h-4.39A1.35,1.35,0,0,0,411,7.55Zm.89,0a.47.47,0,0,1,.47-.47h4.39a.47.47,0,0,1,.46.47V9.72a.47.47,0,0,1-.46.47h-1.31a.44.44,0,0,0-.37.19l-.52.78-.52-.78a.44.44,0,0,0-.37-.19h-1.3a.47.47,0,0,1-.47-.47Z" style="fill:#fff"/><path d="M423.89,6.2a4,4,0,1,0,4,4A4,4,0,0,0,423.89,6.2Zm0,7.09a3.11,3.11,0,1,1,3.11-3.1A3.1,3.1,0,0,1,423.89,13.29Z" style="fill:#fff"/><path d="M405.27,14.18a4,4,0,1,0-4-4A4,4,0,0,0,405.27,14.18Zm0-7.1a3.11,3.11,0,1,1-3.1,3.11A3.1,3.1,0,0,1,405.27,7.08Z" style="fill:#fff"/><path d="M423.89,9.74a.44.44,0,1,1,0-.88h.89V8h-.89a1.33,1.33,0,1,0,0,2.66.45.45,0,1,1,0,.89H423v.88h.88a1.33,1.33,0,0,0,0-2.66Z" style="fill:#fff"/><rect x="412.81" y="7.97" width="1.77" height="0.89" style="fill:#fff"/><rect x="415.47" y="7.97" width="0.89" height="0.89" style="fill:#fff"/><rect x="403.5" y="10.19" width="0.89" height="1.33" style="fill:#fff"/><rect x="404.83" y="9.3" width="0.89" height="2.22" style="fill:#fff"/><rect x="406.16" y="8.41" width="0.89" height="3.1" style="fill:#fff"/><rect x="426.11" y="14.62" width="0.89" height="0.89" style="fill:#fff"/><rect x="426.11" y="16.39" width="0.89" height="0.89" style="fill:#fff"/><rect x="426.11" y="18.17" width="0.89" height="0.89" style="fill:#fff"/><rect x="426.11" y="19.94" width="0.89" height="0.89" style="fill:#fff"/><rect x="426.11" y="21.71" width="0.89" height="0.89" style="fill:#fff"/><rect x="424.34" y="21.71" width="0.89" height="0.89" style="fill:#fff"/><rect x="402.17" y="14.62" width="0.89" height="0.89" style="fill:#fff"/><rect x="402.17" y="16.39" width="0.89" height="0.89" style="fill:#fff"/><rect x="402.17" y="18.17" width="0.89" height="0.89" style="fill:#fff"/><rect x="402.17" y="19.94" width="0.89" height="0.89" style="fill:#fff"/><rect x="402.17" y="21.71" width="0.89" height="0.89" style="fill:#fff"/><rect x="403.94" y="21.71" width="0.89" height="0.89" style="fill:#fff"/><rect x="414.14" y="23.93" width="0.89" height="0.89" style="fill:#fff"/><path d="M456.85,161a2.6,2.6,0,0,1,1.11.27,2.27,2.27,0,0,1,0,3.91,2.6,2.6,0,0,1-1.11.27,2.23,2.23,0,1,1,0-4.45Z" style="fill:none;stroke:#fff;stroke-miterlimit:20"/><path d="M463.26,170.71a2.19,2.19,0,0,1,1.11,2.23,1.74,1.74,0,0,1-.28.78,2.25,2.25,0,0,1-3.9-2.23,1.8,1.8,0,0,1,.73-.72A2.48,2.48,0,0,1,463.26,170.71Z" style="fill:none;stroke:#fff;stroke-miterlimit:20"/><path d="M474,170.82a2.18,2.18,0,0,1,.72.73,2.24,2.24,0,1,1-3.9,2.22,2.15,2.15,0,0,1,.84-3A2.22,2.22,0,0,1,474,170.82Z" style="fill:none;stroke:#fff;stroke-miterlimit:20"/><path d="M478,161a2.23,2.23,0,1,1,0,4.45,2.68,2.68,0,0,1-1.12-.27,2.28,2.28,0,0,1,0-3.91A2.68,2.68,0,0,1,478,161Z" style="fill:none;stroke:#fff;stroke-miterlimit:20"/><path d="M473.85,151.76a2.25,2.25,0,0,1,.83,3.07,1.78,1.78,0,0,1-.72.72,2.21,2.21,0,0,1-2.34.06,2.18,2.18,0,0,1-1.12-2.23,7.57,7.57,0,0,1,.28-.78A2.28,2.28,0,0,1,473.85,151.76Z" style="fill:none;stroke:#fff;stroke-miterlimit:20"/><path d="M464.09,152.6a2,2,0,0,1,.28.78,2.19,2.19,0,0,1-1.11,2.23,2.22,2.22,0,0,1-2.34-.06,2.39,2.39,0,0,1-.73-.72,2.22,2.22,0,0,1,.84-3.07A2.26,2.26,0,0,1,464.09,152.6Z" style="fill:none;stroke:#fff;stroke-miterlimit:20"/><path d="M464.37,153.43h6.19a2.18,2.18,0,0,0,1.11,2.23,2.22,2.22,0,0,0,2.34,0l2.9,5.62a2.28,2.28,0,0,0,0,3.91l-3,5.68a2.21,2.21,0,0,0-2.34,0,2.17,2.17,0,0,0-1.11,2.22h-6.08a2.17,2.17,0,0,0-1.11-2.22,2.22,2.22,0,0,0-2.34,0l-3-5.68a2.27,2.27,0,0,0,0-3.91l3-5.68a2.2,2.2,0,0,0,3.4-2.12Z" style="fill:none;stroke:#fff;stroke-miterlimit:20"/><path d="M473.57,164v-1.62l-1.45-.22a4.7,4.7,0,0,0-.61-1.51l.83-1.17-1.11-1.11-1.17.83a5,5,0,0,0-1.51-.61l-.33-1.5H466.6l-.22,1.44a4.71,4.71,0,0,0-1.51.62l-1.17-.84-1.11,1.12.83,1.17a5.15,5.15,0,0,0-.61,1.5l-1.5.34V164l1.45.22a4.48,4.48,0,0,0,.61,1.51l-.84,1.17,1.12,1.11,1.17-.83a4.89,4.89,0,0,0,1.5.61l.23,1.45h1.61l.22-1.45a4.48,4.48,0,0,0,1.51-.61l1.17.83,1.11-1.11-.83-1.17a4.94,4.94,0,0,0,.61-1.51Z" style="fill:none;stroke:#fff;stroke-miterlimit:20"/><circle cx="467.44" cy="163.19" r="1.89" style="fill:none;stroke:#fff;stroke-miterlimit:20"/><path d="M72.58,315.79a2.81,2.81,0,1,0,2.8,2.81A2.81,2.81,0,0,0,72.58,315.79Zm0,1.12a1.69,1.69,0,1,1-1.69,1.69A1.67,1.67,0,0,1,72.58,316.91Zm-7.29.56a2.25,2.25,0,1,0,2.24,2.25A2.25,2.25,0,0,0,65.29,317.47Zm14.58,0a2.25,2.25,0,1,0,2.24,2.25A2.25,2.25,0,0,0,79.87,317.47ZM65.29,318.6a1.12,1.12,0,1,1-1.13,1.12A1.11,1.11,0,0,1,65.29,318.6Zm14.58,0a1.12,1.12,0,1,1-1.12,1.12A1.11,1.11,0,0,1,79.87,318.6Zm-8.7,3.92a3.46,3.46,0,0,0-3.64,3.36v4.77a2.21,2.21,0,0,0,2.24,2.52v6.73a.59.59,0,0,0,.56.57.57.57,0,0,0,.56-.57v-14a.59.59,0,0,0-.62-.57.6.6,0,0,0-.5.57V332a1.52,1.52,0,0,1-.65-.16c-.24-.15-.46-.39-.47-1.23v-4.77a2.22,2.22,0,0,1,2.33-2.2,10.71,10.71,0,0,1,1.18,1.17.58.58,0,0,0,.84,0,10.71,10.71,0,0,1,1.17-1.17,2.22,2.22,0,0,1,2.33,2.2v4.77c0,.84-.23,1.08-.46,1.23a1.6,1.6,0,0,1-.66.16v-6.16a.59.59,0,0,0-.62-.57.58.58,0,0,0-.5.57v14a.58.58,0,0,0,.56.57.57.57,0,0,0,.56-.57v-6.73a2.2,2.2,0,0,0,2.24-2.52v-4.77A3.46,3.46,0,0,0,74,322.52a.55.55,0,0,0-.33.11,8.21,8.21,0,0,0-1.07,1.06,8.21,8.21,0,0,0-1.07-1.06A.6.6,0,0,0,71.17,322.52Zm-4.53.55a.58.58,0,0,0-.29.12,8.84,8.84,0,0,0-1.06,1.06,9.64,9.64,0,0,0-1.06-1.06.61.61,0,0,0-.35-.11,3.46,3.46,0,0,0-3.64,3.36v4.77a2.21,2.21,0,0,0,2.24,2.52v6.17a.59.59,0,0,0,.56.57.57.57,0,0,0,.56-.57V326.44a.57.57,0,0,0-.62-.56.59.59,0,0,0-.5.56v6.16a1.6,1.6,0,0,1-.66-.16c-.23-.15-.45-.39-.46-1.23v-4.77a2.22,2.22,0,0,1,2.33-2.2c.35.31.83.82,1.2,1.2a.6.6,0,0,0,.79,0c.42-.43,1-1.08,1.35-1.36a.57.57,0,0,0,.19-.65A.59.59,0,0,0,66.64,323.07Zm11.81,0a.56.56,0,0,0-.33,1c.36.28.93.93,1.35,1.36a.6.6,0,0,0,.79,0c.38-.38.85-.89,1.2-1.2a2.22,2.22,0,0,1,2.33,2.2v4.77c0,.84-.23,1.08-.46,1.23a1.6,1.6,0,0,1-.66.16v-6.16a.56.56,0,1,0-1.12,0V339.9a.58.58,0,0,0,.56.57.57.57,0,0,0,.56-.57v-6.17a2.21,2.21,0,0,0,2.25-2.52v-4.77a3.47,3.47,0,0,0-3.65-3.36.6.6,0,0,0-.34.11,9.64,9.64,0,0,0-1.06,1.06,9.64,9.64,0,0,0-1.06-1.06.58.58,0,0,0-.36-.12Zm-5.93,8.41a.57.57,0,0,0-.5.57v7.74a.57.57,0,0,0,.56.56.59.59,0,0,0,.56-.56v-7.74A.59.59,0,0,0,72.52,331.48Zm-7.3.56a.57.57,0,0,0-.49.57v7.29a.57.57,0,0,0,.56.57.59.59,0,0,0,.56-.57v-7.29A.6.6,0,0,0,65.22,332Zm14.59,0a.57.57,0,0,0-.5.57v7.29a.57.57,0,0,0,.56.57.59.59,0,0,0,.56-.57v-7.29A.59.59,0,0,0,79.81,332Zm-12.34,1.68a.58.58,0,0,0-.5.57v5.61a.57.57,0,0,0,.56.57.58.58,0,0,0,.56-.57v-5.61A.59.59,0,0,0,67.47,333.72Zm10.09,0a.6.6,0,0,0-.5.57v5.61a.57.57,0,1,0,1.13,0v-5.61A.6.6,0,0,0,77.56,333.72Z" style="fill:#fff"/></g></g></svg>