<svg xmlns="http://www.w3.org/2000/svg" viewBox="0 0 385.26 45.3"><title>nvg-logo</title><g id="Layer_2" data-name="Layer 2"><g id="Layer_2-2" data-name="Layer 2"><path d="M278.1,17.46h4.62v-5.7C282.72,4.14,286.26,0,292,0c2.16,0,3.42.48,5,.54V5.28a5.46,5.46,0,0,0-4.14-1.44c-3.48,0-5.52,2.82-5.52,7.74v5.88h5.88V21.3h-5.88V38.22c0,1.92.06,4.74.18,6.18h-5c.06-1.44.18-4.26.18-6.18V21.3H278.1Z" style="fill:#333"/><path d="M309.24,41.1c3.84,0,6.42-3.3,6.42-7.62V23.64c0-1.62-.06-4.44-.18-6.18h5c-.18,1.74-.24,4.56-.24,6.18V38.46a15,15,0,0,0,.9,5.94h-4.5a9.64,9.64,0,0,1-.9-4.14,8.68,8.68,0,0,1-8,4.62c-5.4,0-9.42-3.72-9.42-10.86V20.34h-2.76a11.35,11.35,0,0,0,1.68-2.88h5.88c-.06,1.74-.12,4.56-.12,6.18v10C303,38.94,306.12,41.1,309.24,41.1Z" style="fill:#333"/><path d="M340.14,20.76c-3.72,0-6.42,3-6.42,7.56v9.84c0,1.68.06,4.5.18,6.24h-5c.12-1.74.18-4.56.18-6.24V20.34h-2.76A20.42,20.42,0,0,0,328,17.46h5.7V21.6a9,9,0,0,1,8-4.62c5.82,0,9.3,4.2,9.3,11.76v9.42c0,1.68.06,4.5.24,6.24h-5c.12-1.74.18-4.56.18-6.24V28.68C346.44,23.22,343.5,20.76,340.14,20.76Z" style="fill:#333"/><path d="M385.08,38.22c0,2.52.06,4.62.18,6.18h-5c.12-1.14.12-2.52.12-5.4a11.28,11.28,0,0,1-10,5.82c-7.44,0-13.14-6.3-13.14-13.92C357.24,23,362.88,17,370.62,17c4.14,0,7.86,1.8,9.78,5.46V3.24h-2.76A12.85,12.85,0,0,0,379.32.36h5.94c-.12,1.92-.18,3.72-.18,5.34ZM371.4,20.94a9.7,9.7,0,0,0-9.42,9.9c0,5.58,4.2,10.08,9.48,10.08,5,0,9.12-4.5,9.12-10S376.5,20.94,371.4,20.94Z" style="fill:#333"/></g><g id="Layer_1-2" data-name="Layer 1"><path d="M13.86,20.76c-3.72,0-6.42,3-6.42,7.56v9.84c0,1.68.06,4.5.18,6.24h-5c.12-1.74.18-4.56.18-6.24V20.34H0a20.42,20.42,0,0,0,1.74-2.88h5.7V21.6a9,9,0,0,1,8-4.62c5.82,0,9.3,4.2,9.3,11.76v9.42c0,1.68.06,4.5.24,6.24H20c.12-1.74.18-4.56.18-6.24V28.68C20.16,23.22,17.22,20.76,13.86,20.76Z" style="fill:#175e8f"/><path d="M35.76,30.66c-.18,5.46,3.78,10.44,9.6,10.44a13.46,13.46,0,0,0,8.28-2.22v4.44c-2,.24-3.9,1.56-9,1.56A13.46,13.46,0,0,1,31,31c0-8.1,5.64-14,12.72-14,8.4,0,12.42,7.74,12.42,12.6a4.31,4.31,0,0,1-.12,1Zm.12-3.3h15.3a7.82,7.82,0,0,0-7.5-6.84C39.72,20.52,36.84,23.52,35.88,27.36Z" style="fill:#175e8f"/><path d="M79.14,17.4l7.2,19,5-14.76c.66-2.1,1.14-3.72,1.2-4.14h5a62.47,62.47,0,0,0-2.7,6.42L87.06,45.3H85.92l-8.1-20.7L70.26,45.3h-1.2l-8.4-21.72c-.84-2.1-1.68-4.2-2.58-6.12H63.6a51.41,51.41,0,0,0,1.68,5.4l4.86,13.5,6.78-19Z" style="fill:#175e8f"/><path d="M97.64,17.46a25.81,25.81,0,0,0,1.44,3.84l6.42,15.48,5.82-14.34a31.49,31.49,0,0,0,1.74-5h5.22c-1.08,2-2.28,4.26-3.18,6.36L105.74,45.3h-1l-9.6-21.72A49.09,49.09,0,0,0,92,17.46Z" style="fill:#fbb040"/><path d="M125.54,30.66c-.18,5.46,3.78,10.44,9.6,10.44a13.46,13.46,0,0,0,8.28-2.22v4.44c-2,.24-3.9,1.56-9,1.56A13.46,13.46,0,0,1,120.74,31c0-8.1,5.64-14,12.72-14,8.4,0,12.42,7.74,12.42,12.6a4.31,4.31,0,0,1-.12,1Zm.12-3.3H141a7.82,7.82,0,0,0-7.5-6.84C129.5,20.52,126.62,23.52,125.66,27.36Z" style="fill:#fbb040"/><path d="M163.34,20.76c-3.72,0-6.42,3-6.42,7.56v9.84c0,1.68.06,4.5.18,6.24h-5c.12-1.74.18-4.56.18-6.24V20.34h-2.76a20.42,20.42,0,0,0,1.74-2.88h5.7V21.6A9,9,0,0,1,165,17c5.82,0,9.3,4.2,9.3,11.76v9.42c0,1.68.06,4.5.24,6.24h-5c.12-1.74.18-4.56.18-6.24V28.68C169.64,23.22,166.7,20.76,163.34,20.76Z" style="fill:#fbb040"/><path d="M187.76,10.56c-.12,1.44-.18,3.3-.18,5.34v1.56h7.5V21.3h-7.5V34.86c0,4.5,1.86,6.12,4.32,6.12a3.63,3.63,0,0,0,2.34-.72v4.32c-.9,0-2.16.3-3.54.3-4.2,0-7.74-2.46-7.74-9.12V21.3H178.7V17.46H183V15.9c0-2-.06-3.9-.18-5.34Z" style="fill:#fbb040"/><path d="M212,41.1c3.84,0,6.42-3.3,6.42-7.62V23.64c0-1.62-.06-4.44-.18-6.18h5C223.1,19.2,223,22,223,23.64V38.46a15,15,0,0,0,.9,5.94h-4.5a9.64,9.64,0,0,1-.9-4.14,8.68,8.68,0,0,1-8,4.62c-5.4,0-9.42-3.72-9.42-10.86V20.34h-2.76A11.35,11.35,0,0,0,200,17.46h5.88c-.06,1.74-.12,4.56-.12,6.18v10C205.76,38.94,208.88,41.1,212,41.1Z" style="fill:#fbb040"/><path d="M246.74,17.28v5.1a7.4,7.4,0,0,0-3.9-1c-3.3,0-6.18,4.08-6.18,8.4v8.46c0,2,.06,4.14.24,6.18h-5c.12-2,.18-4.14.18-6.18V20.34h-2.76a12.56,12.56,0,0,0,1.62-2.88h5.4v6.12c1-4,4-6.6,7.2-6.6C245.3,17,245.9,17.28,246.74,17.28Z" style="fill:#fbb040"/><path d="M254,30.66c-.18,5.46,3.78,10.44,9.6,10.44a13.46,13.46,0,0,0,8.28-2.22v4.44c-2,.24-3.9,1.56-9,1.56A13.46,13.46,0,0,1,249.2,31c0-8.1,5.64-14,12.72-14,8.4,0,12.42,7.74,12.42,12.6a4.31,4.31,0,0,1-.12,1Zm.12-3.3h15.3a7.82,7.82,0,0,0-7.5-6.84C258,20.52,255.08,23.52,254.12,27.36Z" style="fill:#fbb040"/></g></g></svg>