<svg xmlns="http://www.w3.org/2000/svg" xmlns:xlink="http://www.w3.org/1999/xlink" viewBox="0 0 463.58 79.54"><defs><clipPath id="clip-path" transform="translate(-12.63 0)"><rect width="496.14" height="106.56" style="fill:none"/></clipPath></defs><title>projects-image</title><g id="Layer_2" data-name="Layer 2"><g id="Layer_2-2" data-name="Layer 2"><path d="M12.63,61.48V55.07h4.22v1.12h-3v1.5h2.53v1.12H13.88v1.56h3v1.11Z" transform="translate(-12.63 0)" style="fill:#58595b"/><path d="M21.86,61.48l-2.54-3.93v3.93H18.07V55.07h1.12L21.73,59V55.07H23v6.41Z" transform="translate(-12.63 0)" style="fill:#58595b"/><path d="M26.8,61.48h-.93l-2.12-6.41h1.3l1.28,4.18,1.29-4.18h1.31Z" transform="translate(-12.63 0)" style="fill:#58595b"/><path d="M29.7,61.48V55.07H31v6.41Z" transform="translate(-12.63 0)" style="fill:#58595b"/><path d="M35.85,61.48,34.6,58.93h-.9v2.55H32.44V55.07H35A1.94,1.94,0,0,1,37,57a1.74,1.74,0,0,1-1.17,1.69l1.43,2.76Zm-1-5.29H33.7v1.69h1.18a.85.85,0,1,0,0-1.69Z" transform="translate(-12.63 0)" style="fill:#58595b"/><path d="M42.21,60.83a2.47,2.47,0,0,1-3.47,0c-.64-.65-.63-1.45-.63-2.55s0-1.91.63-2.56a2.5,2.5,0,0,1,3.47,0c.65.65.64,1.45.64,2.56S42.86,60.18,42.21,60.83Zm-.93-4.35a1,1,0,0,0-.8-.35,1.06,1.06,0,0,0-.81.35c-.24.27-.3.56-.3,1.8s.06,1.53.3,1.8a1.09,1.09,0,0,0,.81.34,1.06,1.06,0,0,0,.8-.34c.25-.27.32-.57.32-1.8S41.53,56.75,41.28,56.48Z" transform="translate(-12.63 0)" style="fill:#58595b"/><path d="M47.92,61.48l-2.54-3.93v3.93H44.13V55.07h1.11L47.78,59V55.07H49v6.41Z" transform="translate(-12.63 0)" style="fill:#58595b"/><path d="M55.08,61.48V57.75l-1.22,2.43H53l-1.23-2.43v3.73H50.53V55.07h1.23l1.67,3.47,1.67-3.47h1.23v6.41Z" transform="translate(-12.63 0)" style="fill:#58595b"/><path d="M57.82,61.48V55.07h4.23v1.12h-3v1.5h2.53v1.12H59.08v1.56h3v1.11Z" transform="translate(-12.63 0)" style="fill:#58595b"/><path d="M67.06,61.48l-2.54-3.93v3.93H63.27V55.07h1.12L66.93,59V55.07h1.25v6.41Z" transform="translate(-12.63 0)" style="fill:#58595b"/><path d="M72.12,56.19v5.29H70.87V56.19H69.19V55.07h4.6v1.12Z" transform="translate(-12.63 0)" style="fill:#58595b"/><path d="M136,58.85v2.63h-1.24V58.85l-1.93-3.78h1.36l1.2,2.59,1.18-2.59h1.35Z" transform="translate(-12.63 0)" style="fill:#58595b"/><path d="M142.52,60.83a2.47,2.47,0,0,1-3.47,0c-.65-.65-.63-1.45-.63-2.55s0-1.91.63-2.56a2.5,2.5,0,0,1,3.47,0c.64.65.64,1.45.64,2.56A3.27,3.27,0,0,1,142.52,60.83Zm-.93-4.35a1,1,0,0,0-.8-.35,1.06,1.06,0,0,0-.81.35c-.25.27-.31.56-.31,1.8s.06,1.53.31,1.8a1.09,1.09,0,0,0,.81.34,1.06,1.06,0,0,0,.8-.34c.24-.27.31-.57.31-1.8S141.83,56.75,141.59,56.48Z" transform="translate(-12.63 0)" style="fill:#58595b"/><path d="M146.69,61.54a2.24,2.24,0,0,1-2.36-2.25V55.07h1.25v4.17a1.12,1.12,0,1,0,2.23,0V55.07h1.24v4.22A2.23,2.23,0,0,1,146.69,61.54Z" transform="translate(-12.63 0)" style="fill:#58595b"/><path d="M152.89,56.19v5.29h-1.25V56.19H150V55.07h4.6v1.12Z" transform="translate(-12.63 0)" style="fill:#58595b"/><path d="M159,61.48V58.8h-2.17v2.68h-1.25V55.07h1.25v2.62H159V55.07h1.26v6.41Z" transform="translate(-12.63 0)" style="fill:#58595b"/><path d="M120.3,69.87a2.33,2.33,0,0,1-1.69.61H116.3V64.07h2.31a2.33,2.33,0,0,1,1.69.61,3.24,3.24,0,0,1,.65,2.57A3.35,3.35,0,0,1,120.3,69.87Zm-.87-4.29a1.11,1.11,0,0,0-.94-.39h-.94v4.18h.94a1.11,1.11,0,0,0,.94-.4c.24-.29.27-.75.27-1.72S119.67,65.87,119.43,65.58Z" transform="translate(-12.63 0)" style="fill:#58595b"/><path d="M122.23,70.48V64.07h4.22v1.12h-3v1.5H126v1.12h-2.53v1.56h3v1.11Z" transform="translate(-12.63 0)" style="fill:#58595b"/><path d="M130,70.48h-.94L127,64.07h1.3l1.29,4.18,1.28-4.18h1.31Z" transform="translate(-12.63 0)" style="fill:#58595b"/><path d="M132.9,70.48V64.07h4.23v1.12h-3v1.5h2.53v1.12h-2.53v1.56h3v1.11Z" transform="translate(-12.63 0)" style="fill:#58595b"/><path d="M138.35,70.48V64.07h1.25v5.3h2.91v1.11Z" transform="translate(-12.63 0)" style="fill:#58595b"/><path d="M147.17,69.83a2.47,2.47,0,0,1-3.47,0c-.65-.65-.63-1.45-.63-2.55s0-1.91.63-2.56a2.5,2.5,0,0,1,3.47,0c.65.65.64,1.45.64,2.56S147.82,69.18,147.17,69.83Zm-.93-4.35a1,1,0,0,0-.8-.35,1.06,1.06,0,0,0-.81.35c-.24.27-.31.56-.31,1.8s.07,1.53.31,1.8a1.09,1.09,0,0,0,.81.34,1.06,1.06,0,0,0,.8-.34c.24-.27.32-.57.32-1.8S146.48,65.75,146.24,65.48Z" transform="translate(-12.63 0)" style="fill:#58595b"/><path d="M151.57,68.07h-1.23v2.41h-1.26V64.07h2.49a2,2,0,1,1,0,4Zm-.06-2.88h-1.17v1.75h1.17a.88.88,0,1,0,0-1.75Z" transform="translate(-12.63 0)" style="fill:#58595b"/><path d="M159.29,70.48V66.75l-1.22,2.43h-.85L156,66.75v3.73h-1.25V64.07H156l1.67,3.47,1.67-3.47h1.23v6.41Z" transform="translate(-12.63 0)" style="fill:#58595b"/><path d="M162,70.48V64.07h4.22v1.12h-3v1.5h2.53v1.12h-2.53v1.56h3v1.11Z" transform="translate(-12.63 0)" style="fill:#58595b"/><path d="M171.27,70.48l-2.54-3.93v3.93h-1.25V64.07h1.12L171.14,68V64.07h1.25v6.41Z" transform="translate(-12.63 0)" style="fill:#58595b"/><path d="M176.33,65.19v5.29h-1.25V65.19H173.4V64.07H178v1.12Z" transform="translate(-12.63 0)" style="fill:#58595b"/><path d="M117.15,79.48l-.38-1.13h-2.28l-.39,1.13h-1.3l2.33-6.41h1l2.34,6.41ZM115.65,75l-.81,2.33h1.59Z" transform="translate(-12.63 0)" style="fill:#58595b"/><path d="M123,79.48l-2.54-3.93v3.93h-1.25V73.07h1.12L122.9,77V73.07h1.25v6.41Z" transform="translate(-12.63 0)" style="fill:#58595b"/><path d="M129.65,78.87a2.37,2.37,0,0,1-1.7.61h-2.31V73.07H128a2.37,2.37,0,0,1,1.7.61,3.23,3.23,0,0,1,.64,2.57A3.35,3.35,0,0,1,129.65,78.87Zm-.88-4.29a1.1,1.1,0,0,0-.93-.39h-1v4.18h1a1.1,1.1,0,0,0,.93-.4c.24-.29.27-.75.27-1.72S129,74.87,128.77,74.58Z" transform="translate(-12.63 0)" style="fill:#58595b"/><path d="M133.66,79.48V73.07h4.22v1.12h-3v1.5h2.53v1.12h-2.53v1.56h3v1.11Z" transform="translate(-12.63 0)" style="fill:#58595b"/><path d="M143.11,78.87a2.34,2.34,0,0,1-1.69.61H139.1V73.07h2.32a2.34,2.34,0,0,1,1.69.61,3.24,3.24,0,0,1,.65,2.57A3.35,3.35,0,0,1,143.11,78.87Zm-.87-4.29a1.13,1.13,0,0,0-.94-.39h-1v4.18h1a1.14,1.14,0,0,0,.94-.4c.23-.29.27-.75.27-1.72S142.47,74.87,142.24,74.58Z" transform="translate(-12.63 0)" style="fill:#58595b"/><path d="M147.29,79.54a2.23,2.23,0,0,1-2.35-2.25V73.07h1.25v4.17a1.11,1.11,0,1,0,2.22,0V73.07h1.24v4.22A2.23,2.23,0,0,1,147.29,79.54Z" transform="translate(-12.63 0)" style="fill:#58595b"/><path d="M153.19,79.54a2.37,2.37,0,0,1-1.73-.71c-.65-.65-.63-1.45-.63-2.55s0-1.91.63-2.56a2.37,2.37,0,0,1,1.73-.7,2.26,2.26,0,0,1,2.36,2h-1.27a1.07,1.07,0,0,0-1.08-.91,1,1,0,0,0-.8.34c-.25.27-.32.57-.32,1.81s.07,1.54.32,1.81a1.11,1.11,0,0,0,1.88-.58h1.27A2.27,2.27,0,0,1,153.19,79.54Z" transform="translate(-12.63 0)" style="fill:#58595b"/><path d="M160.18,79.48l-.38-1.13h-2.27l-.39,1.13h-1.31l2.34-6.41h1l2.34,6.41ZM158.69,75l-.81,2.33h1.59Z" transform="translate(-12.63 0)" style="fill:#58595b"/><path d="M164.19,74.19v5.29h-1.25V74.19h-1.68V73.07h4.6v1.12Z" transform="translate(-12.63 0)" style="fill:#58595b"/><path d="M166.88,79.48V73.07h1.25v6.41Z" transform="translate(-12.63 0)" style="fill:#58595b"/><path d="M173.5,78.83a2.46,2.46,0,0,1-3.46,0c-.65-.65-.63-1.45-.63-2.55s0-1.91.63-2.56a2.49,2.49,0,0,1,3.46,0c.65.65.64,1.45.64,2.56S174.15,78.18,173.5,78.83Zm-.92-4.35a1,1,0,0,0-.81-.35,1.06,1.06,0,0,0-.81.35c-.24.27-.3.56-.3,1.8s.06,1.53.3,1.8a1.09,1.09,0,0,0,.81.34,1.07,1.07,0,0,0,.81-.34c.24-.27.31-.57.31-1.8S172.82,74.75,172.58,74.48Z" transform="translate(-12.63 0)" style="fill:#58595b"/><path d="M179.21,79.48l-2.54-3.93v3.93h-1.25V73.07h1.12L179.07,77V73.07h1.26v6.41Z" transform="translate(-12.63 0)" style="fill:#58595b"/><path d="M225.16,61.54a2.37,2.37,0,0,1-1.73-.71c-.64-.65-.63-1.45-.63-2.55s0-1.91.63-2.56a2.37,2.37,0,0,1,1.73-.7,2.25,2.25,0,0,1,2.36,2h-1.27a1.06,1.06,0,0,0-1.08-.91,1,1,0,0,0-.8.34c-.24.27-.32.57-.32,1.81s.08,1.54.32,1.81a1.11,1.11,0,0,0,1.88-.58h1.27A2.27,2.27,0,0,1,225.16,61.54Z" transform="translate(-12.63 0)" style="fill:#58595b"/><path d="M228.6,61.48V55.07h1.25v6.41Z" transform="translate(-12.63 0)" style="fill:#58595b"/><path d="M233.68,61.48h-.94l-2.12-6.41h1.3l1.29,4.18,1.29-4.18h1.3Z" transform="translate(-12.63 0)" style="fill:#58595b"/><path d="M236.57,61.48V55.07h1.25v6.41Z" transform="translate(-12.63 0)" style="fill:#58595b"/><path d="M239.32,61.48V55.07h1.25v5.3h2.91v1.11Z" transform="translate(-12.63 0)" style="fill:#58595b"/><path d="M250,61.48l-1.25-2.55h-.9v2.55h-1.25V55.07h2.51a1.93,1.93,0,0,1,2.08,2A1.74,1.74,0,0,1,250,58.72l1.43,2.76Zm-1-5.29h-1.18v1.69H249a.85.85,0,1,0,0-1.69Z" transform="translate(-12.63 0)" style="fill:#58595b"/><path d="M252.47,61.48V55.07h1.25v6.41Z" transform="translate(-12.63 0)" style="fill:#58595b"/><path d="M259.16,60.81a2.38,2.38,0,0,1-1.81.73,2.35,2.35,0,0,1-1.72-.71c-.65-.65-.63-1.45-.63-2.55s0-1.91.63-2.56a2.46,2.46,0,0,1,4.14,1.35h-1.26a1.1,1.1,0,0,0-1.16-.94,1,1,0,0,0-.8.35c-.24.27-.3.56-.3,1.8s.06,1.54.3,1.81a1.06,1.06,0,0,0,.8.33,1.22,1.22,0,0,0,.9-.36,1.26,1.26,0,0,0,.28-.86V59h-1.18v-1h2.43v.93A2.56,2.56,0,0,1,259.16,60.81Z" transform="translate(-12.63 0)" style="fill:#58595b"/><path d="M264.47,61.48V58.8H262.3v2.68H261V55.07h1.26v2.62h2.17V55.07h1.25v6.41Z" transform="translate(-12.63 0)" style="fill:#58595b"/><path d="M269.66,56.19v5.29h-1.25V56.19h-1.68V55.07h4.6v1.12Z" transform="translate(-12.63 0)" style="fill:#58595b"/><path d="M274.11,61.54a3,3,0,0,1-2.34-.85l.81-.81a2.14,2.14,0,0,0,1.55.54c.74,0,1.13-.28,1.13-.79a.71.71,0,0,0-.19-.54,1,1,0,0,0-.57-.23l-.77-.11a2.19,2.19,0,0,1-1.25-.53A1.71,1.71,0,0,1,272,57,2,2,0,0,1,274.26,55a2.72,2.72,0,0,1,2.07.75l-.79.78a1.79,1.79,0,0,0-1.32-.44c-.67,0-1,.37-1,.81a.61.61,0,0,0,.19.46,1.2,1.2,0,0,0,.59.25l.76.11a2.13,2.13,0,0,1,1.22.49,1.77,1.77,0,0,1,.5,1.36C276.49,60.83,275.45,61.54,274.11,61.54Z" transform="translate(-12.63 0)" style="fill:#58595b"/><path d="M277.53,63V60.2h1.29V62Z" transform="translate(-12.63 0)" style="fill:#58595b"/><path d="M221.58,70.54a3,3,0,0,1-2.34-.85l.81-.81a2.12,2.12,0,0,0,1.55.54c.74,0,1.13-.28,1.13-.79a.68.68,0,0,0-.2-.54,1,1,0,0,0-.56-.23l-.78-.11a2.16,2.16,0,0,1-1.24-.53,1.67,1.67,0,0,1-.46-1.26A2,2,0,0,1,221.72,64a2.73,2.73,0,0,1,2.08.75l-.8.78a1.76,1.76,0,0,0-1.31-.44c-.67,0-1,.37-1,.81a.61.61,0,0,0,.19.46,1.16,1.16,0,0,0,.59.25l.76.11a2.13,2.13,0,0,1,1.22.49,1.81,1.81,0,0,1,.5,1.36C224,69.83,222.92,70.54,221.58,70.54Z" transform="translate(-12.63 0)" style="fill:#58595b"/><path d="M229,69.83a2.3,2.3,0,0,1-1.72.71,2.35,2.35,0,0,1-1.74-.71c-.65-.65-.63-1.45-.63-2.55s0-1.91.63-2.56a2.34,2.34,0,0,1,1.74-.7,2.3,2.3,0,0,1,1.72.7c.65.65.64,1.45.64,2.56S229.66,69.18,229,69.83Zm-.92-4.35a1.1,1.1,0,0,0-1.61,0c-.25.27-.31.56-.31,1.8s.06,1.53.31,1.8a1.12,1.12,0,0,0,1.61,0c.24-.27.31-.57.31-1.8S228.33,65.75,228.09,65.48Z" transform="translate(-12.63 0)" style="fill:#58595b"/><path d="M233.07,70.54a2.35,2.35,0,0,1-1.72-.71c-.65-.65-.63-1.45-.63-2.55s0-1.91.63-2.56a2.34,2.34,0,0,1,1.72-.7,2.25,2.25,0,0,1,2.36,2h-1.27a1.06,1.06,0,0,0-1.08-.91,1,1,0,0,0-.8.34c-.24.27-.31.57-.31,1.81s.07,1.54.31,1.81a1.11,1.11,0,0,0,1.88-.58h1.27A2.27,2.27,0,0,1,233.07,70.54Z" transform="translate(-12.63 0)" style="fill:#58595b"/><path d="M236.51,70.48V64.07h1.25v6.41Z" transform="translate(-12.63 0)" style="fill:#58595b"/><path d="M242.9,70.48l-.38-1.13h-2.27l-.39,1.13h-1.31l2.34-6.41h1l2.34,6.41ZM241.41,66l-.81,2.33h1.59Z" transform="translate(-12.63 0)" style="fill:#58595b"/><path d="M245,70.48V64.07h1.25v5.3h2.91v1.11Z" transform="translate(-12.63 0)" style="fill:#58595b"/><path d="M255.91,70.48l-.38-1.13h-2.28l-.39,1.13h-1.3l2.33-6.41h1l2.34,6.41ZM254.41,66l-.81,2.33h1.6Z" transform="translate(-12.63 0)" style="fill:#58595b"/><path d="M260.05,70.54a2.35,2.35,0,0,1-1.72-.71c-.65-.65-.63-1.45-.63-2.55s0-1.91.63-2.56a2.34,2.34,0,0,1,1.72-.7,2.25,2.25,0,0,1,2.36,2h-1.27a1.06,1.06,0,0,0-1.08-.91,1,1,0,0,0-.8.34c-.24.27-.31.57-.31,1.81s.07,1.54.31,1.81a1.11,1.11,0,0,0,1.88-.58h1.27A2.27,2.27,0,0,1,260.05,70.54Z" transform="translate(-12.63 0)" style="fill:#58595b"/><path d="M265.77,65.19v5.29h-1.25V65.19h-1.68V64.07h4.6v1.12Z" transform="translate(-12.63 0)" style="fill:#58595b"/><path d="M268.46,70.48V64.07h1.25v6.41Z" transform="translate(-12.63 0)" style="fill:#58595b"/><path d="M275.09,69.83a2.47,2.47,0,0,1-3.47,0c-.65-.65-.63-1.45-.63-2.55s0-1.91.63-2.56a2.5,2.5,0,0,1,3.47,0c.64.65.63,1.45.63,2.56S275.73,69.18,275.09,69.83Zm-.93-4.35a1.1,1.1,0,0,0-1.61,0c-.25.27-.31.56-.31,1.8s.06,1.53.31,1.8a1.12,1.12,0,0,0,1.61,0c.24-.27.31-.57.31-1.8S274.4,65.75,274.16,65.48Z" transform="translate(-12.63 0)" style="fill:#58595b"/><path d="M280.79,70.48l-2.54-3.93v3.93H277V64.07h1.12L280.66,68V64.07h1.25v6.41Z" transform="translate(-12.63 0)" style="fill:#58595b"/><path d="M223,79.48l-.38-1.13h-2.27L220,79.48h-1.31L221,73.07h1l2.34,6.41ZM221.53,75l-.81,2.33h1.59Z" transform="translate(-12.63 0)" style="fill:#58595b"/><path d="M228.91,79.48l-2.54-3.93v3.93h-1.25V73.07h1.11L228.77,77V73.07H230v6.41Z" transform="translate(-12.63 0)" style="fill:#58595b"/><path d="M235.52,78.87a2.33,2.33,0,0,1-1.69.61h-2.31V73.07h2.31a2.33,2.33,0,0,1,1.69.61,3.24,3.24,0,0,1,.65,2.57A3.35,3.35,0,0,1,235.52,78.87Zm-.87-4.29a1.13,1.13,0,0,0-.94-.39h-.94v4.18h.94a1.14,1.14,0,0,0,.94-.4c.23-.29.27-.75.27-1.72S234.88,74.87,234.65,74.58Z" transform="translate(-12.63 0)" style="fill:#58595b"/><path d="M243.18,79.48l-.38-1.13h-2.28l-.38,1.13h-1.31l2.33-6.41h1l2.34,6.41ZM241.69,75l-.81,2.33h1.59Z" transform="translate(-12.63 0)" style="fill:#58595b"/><path d="M249.28,78.87a2.33,2.33,0,0,1-1.69.61h-2.31V73.07h2.31a2.33,2.33,0,0,1,1.69.61,3.24,3.24,0,0,1,.65,2.57A3.35,3.35,0,0,1,249.28,78.87Zm-.87-4.29a1.12,1.12,0,0,0-.94-.39h-.94v4.18h.94a1.12,1.12,0,0,0,.94-.4c.23-.29.27-.75.27-1.72S248.64,74.87,248.41,74.58Z" transform="translate(-12.63 0)" style="fill:#58595b"/><path d="M253.45,79.48h-.94l-2.11-6.41h1.29L253,77.25l1.29-4.18h1.3Z" transform="translate(-12.63 0)" style="fill:#58595b"/><path d="M260.15,78.83a2.47,2.47,0,0,1-3.47,0c-.65-.65-.63-1.45-.63-2.55s0-1.91.63-2.56a2.5,2.5,0,0,1,3.47,0c.64.65.64,1.45.64,2.56A3.27,3.27,0,0,1,260.15,78.83Zm-.93-4.35a1,1,0,0,0-.8-.35,1.06,1.06,0,0,0-.81.35c-.25.27-.31.56-.31,1.8s.06,1.53.31,1.8a1.09,1.09,0,0,0,.81.34,1.06,1.06,0,0,0,.8-.34c.24-.27.31-.57.31-1.8S259.46,74.75,259.22,74.48Z" transform="translate(-12.63 0)" style="fill:#58595b"/><path d="M264.2,79.54a2.35,2.35,0,0,1-1.72-.71c-.65-.65-.63-1.45-.63-2.55s0-1.91.63-2.56a2.34,2.34,0,0,1,1.72-.7,2.25,2.25,0,0,1,2.36,2h-1.27a1.06,1.06,0,0,0-1.08-.91,1,1,0,0,0-.8.34c-.24.27-.31.57-.31,1.81s.07,1.54.31,1.81a1.11,1.11,0,0,0,1.88-.58h1.27A2.27,2.27,0,0,1,264.2,79.54Z" transform="translate(-12.63 0)" style="fill:#58595b"/><path d="M271.21,79.48l-.38-1.13h-2.28l-.39,1.13h-1.3l2.33-6.41h1l2.34,6.41ZM269.71,75l-.81,2.33h1.6Z" transform="translate(-12.63 0)" style="fill:#58595b"/><path d="M275.36,79.54a2.35,2.35,0,0,1-1.72-.71c-.65-.65-.63-1.45-.63-2.55s0-1.91.63-2.56a2.34,2.34,0,0,1,1.72-.7,2.25,2.25,0,0,1,2.36,2h-1.27a1.06,1.06,0,0,0-1.08-.91,1,1,0,0,0-.8.34c-.24.27-.31.57-.31,1.81s.07,1.54.31,1.81a1.11,1.11,0,0,0,1.88-.58h1.27A2.27,2.27,0,0,1,275.36,79.54Z" transform="translate(-12.63 0)" style="fill:#58595b"/><path d="M281.16,76.85v2.63h-1.24V76.85L278,73.07h1.36l1.2,2.59,1.18-2.59h1.36Z" transform="translate(-12.63 0)" style="fill:#58595b"/><path d="M337.23,60.81a2.54,2.54,0,0,1-3.54,0c-.64-.65-.63-1.45-.63-2.55s0-1.91.63-2.56a2.33,2.33,0,0,1,1.73-.7,2.3,2.3,0,0,1,2.41,2h-1.26a1.09,1.09,0,0,0-1.15-.94,1,1,0,0,0-.8.35c-.24.27-.31.56-.31,1.8s.07,1.54.31,1.81a1.06,1.06,0,0,0,.8.33,1.18,1.18,0,0,0,.89-.36,1.22,1.22,0,0,0,.29-.86V59h-1.18v-1h2.42v.93A2.56,2.56,0,0,1,337.23,60.81Z" transform="translate(-12.63 0)" style="fill:#58595b"/><path d="M339.11,61.48V55.07h1.25v5.3h2.91v1.11Z" transform="translate(-12.63 0)" style="fill:#58595b"/><path d="M347.93,60.83a2.46,2.46,0,0,1-3.46,0c-.65-.65-.63-1.45-.63-2.55s0-1.91.63-2.56a2.49,2.49,0,0,1,3.46,0c.65.65.64,1.45.64,2.56S348.58,60.18,347.93,60.83ZM347,56.48a1.11,1.11,0,0,0-1.62,0c-.24.27-.3.56-.3,1.8s.06,1.53.3,1.8a1.13,1.13,0,0,0,1.62,0c.24-.27.31-.57.31-1.8S347.25,56.75,347,56.48Z" transform="translate(-12.63 0)" style="fill:#58595b"/><path d="M352.53,61.48h-2.68V55.07h2.57a1.75,1.75,0,0,1,2,1.8,1.51,1.51,0,0,1-.79,1.33,1.48,1.48,0,0,1,.88,1.44A1.77,1.77,0,0,1,352.53,61.48Zm-.21-5.29H351.1v1.47h1.22c.53,0,.83-.29.83-.73A.73.73,0,0,0,352.32,56.19Zm.08,2.6h-1.3v1.58h1.3a.76.76,0,0,0,.84-.8A.75.75,0,0,0,352.4,58.79Z" transform="translate(-12.63 0)" style="fill:#58595b"/><path d="M359.42,61.48,359,60.35h-2.28l-.39,1.13h-1.3l2.33-6.41h1l2.34,6.41ZM357.92,57l-.81,2.33h1.59Z" transform="translate(-12.63 0)" style="fill:#58595b"/><path d="M361.51,61.48V55.07h1.25v5.3h2.91v1.11Z" transform="translate(-12.63 0)" style="fill:#58595b"/><path d="M322.62,69.87a2.33,2.33,0,0,1-1.69.61h-2.31V64.07h2.31a2.33,2.33,0,0,1,1.69.61,3.24,3.24,0,0,1,.65,2.57A3.35,3.35,0,0,1,322.62,69.87Zm-.87-4.29a1.12,1.12,0,0,0-.94-.39h-.94v4.18h.94a1.12,1.12,0,0,0,.94-.4c.23-.29.27-.75.27-1.72S322,65.87,321.75,65.58Z" transform="translate(-12.63 0)" style="fill:#58595b"/><path d="M324.55,70.48V64.07h4.22v1.12h-3v1.5h2.53v1.12H325.8v1.56h3v1.11Z" transform="translate(-12.63 0)" style="fill:#58595b"/><path d="M332.33,70.48h-.94l-2.12-6.41h1.3l1.29,4.18,1.28-4.18h1.31Z" transform="translate(-12.63 0)" style="fill:#58595b"/><path d="M335.22,70.48V64.07h4.23v1.12h-3v1.5H339v1.12h-2.53v1.56h3v1.11Z" transform="translate(-12.63 0)" style="fill:#58595b"/><path d="M340.67,70.48V64.07h1.25v5.3h2.91v1.11Z" transform="translate(-12.63 0)" style="fill:#58595b"/><path d="M349.49,69.83a2.47,2.47,0,0,1-3.47,0c-.65-.65-.63-1.45-.63-2.55s0-1.91.63-2.56a2.5,2.5,0,0,1,3.47,0c.65.65.64,1.45.64,2.56S350.14,69.18,349.49,69.83Zm-.93-4.35a1,1,0,0,0-.8-.35,1.06,1.06,0,0,0-.81.35c-.24.27-.31.56-.31,1.8s.07,1.53.31,1.8a1.09,1.09,0,0,0,.81.34,1.06,1.06,0,0,0,.8-.34c.24-.27.32-.57.32-1.8S348.8,65.75,348.56,65.48Z" transform="translate(-12.63 0)" style="fill:#58595b"/><path d="M353.89,68.07h-1.23v2.41H351.4V64.07h2.49a2,2,0,1,1,0,4Zm-.06-2.88h-1.17v1.75h1.17a.88.88,0,1,0,0-1.75Z" transform="translate(-12.63 0)" style="fill:#58595b"/><path d="M361.61,70.48V66.75l-1.22,2.43h-.85l-1.23-2.43v3.73h-1.25V64.07h1.23L360,67.54l1.67-3.47h1.23v6.41Z" transform="translate(-12.63 0)" style="fill:#58595b"/><path d="M364.36,70.48V64.07h4.22v1.12h-3v1.5h2.53v1.12h-2.53v1.56h3v1.11Z" transform="translate(-12.63 0)" style="fill:#58595b"/><path d="M373.59,70.48l-2.54-3.93v3.93H369.8V64.07h1.12L373.46,68V64.07h1.25v6.41Z" transform="translate(-12.63 0)" style="fill:#58595b"/><path d="M378.65,65.19v5.29H377.4V65.19h-1.68V64.07h4.6v1.12Z" transform="translate(-12.63 0)" style="fill:#58595b"/><path d="M327,79.48l-.38-1.13h-2.28L324,79.48h-1.31L325,73.07h1l2.34,6.41ZM325.49,75l-.81,2.33h1.6Z" transform="translate(-12.63 0)" style="fill:#58595b"/><path d="M332.88,79.48l-2.54-3.93v3.93h-1.26V73.07h1.12L332.74,77V73.07H334v6.41Z" transform="translate(-12.63 0)" style="fill:#58595b"/><path d="M339.49,78.87a2.34,2.34,0,0,1-1.69.61h-2.32V73.07h2.32a2.34,2.34,0,0,1,1.69.61,3.24,3.24,0,0,1,.65,2.57A3.35,3.35,0,0,1,339.49,78.87Zm-.87-4.29a1.13,1.13,0,0,0-.94-.39h-.95v4.18h.95a1.14,1.14,0,0,0,.94-.4c.23-.29.27-.75.27-1.72S338.85,74.87,338.62,74.58Z" transform="translate(-12.63 0)" style="fill:#58595b"/><path d="M346.92,79.48V76.8h-2.17v2.68H343.5V73.07h1.25v2.62h2.17V73.07h1.26v6.41Z" transform="translate(-12.63 0)" style="fill:#58595b"/><path d="M349.67,79.48V73.07h4.22v1.12h-3v1.5h2.53v1.12h-2.53v1.56h3v1.11Z" transform="translate(-12.63 0)" style="fill:#58595b"/><path d="M358.76,79.48l-.38-1.13H356.1l-.38,1.13h-1.31l2.33-6.41h1l2.34,6.41ZM357.26,75l-.81,2.33h1.6Z" transform="translate(-12.63 0)" style="fill:#58595b"/><path d="M360.85,79.48V73.07h1.26v5.3H365v1.11Z" transform="translate(-12.63 0)" style="fill:#58595b"/><path d="M367.76,74.19v5.29h-1.25V74.19h-1.68V73.07h4.6v1.12Z" transform="translate(-12.63 0)" style="fill:#58595b"/><path d="M373.87,79.48V76.8H371.7v2.68h-1.25V73.07h1.25v2.62h2.17V73.07h1.25v6.41Z" transform="translate(-12.63 0)" style="fill:#58595b"/><path d="M435.71,61.54a2.37,2.37,0,0,1-1.73-.71c-.65-.65-.63-1.45-.63-2.55s0-1.91.63-2.56a2.37,2.37,0,0,1,1.73-.7,2.26,2.26,0,0,1,2.36,2H436.8a1.07,1.07,0,0,0-1.08-.91,1,1,0,0,0-.8.34c-.25.27-.32.57-.32,1.81s.07,1.54.32,1.81a1.11,1.11,0,0,0,1.88-.58h1.27A2.27,2.27,0,0,1,435.71,61.54Z" transform="translate(-12.63 0)" style="fill:#58595b"/><path d="M442.71,61.48l-.38-1.13h-2.28l-.38,1.13h-1.31l2.33-6.41h1L444,61.48ZM441.22,57l-.81,2.33H442Z" transform="translate(-12.63 0)" style="fill:#58595b"/><path d="M447.29,59.07h-1.23v2.41h-1.25V55.07h2.48a2,2,0,1,1,0,4Zm-.06-2.88h-1.17v1.75h1.17a.88.88,0,1,0,0-1.75Z" transform="translate(-12.63 0)" style="fill:#58595b"/><path d="M453.66,61.48l-.38-1.13H451l-.39,1.13h-1.3l2.33-6.41h1L455,61.48ZM452.16,57l-.81,2.33h1.59Z" transform="translate(-12.63 0)" style="fill:#58595b"/><path d="M457.81,61.54a2.37,2.37,0,0,1-1.73-.71c-.64-.65-.63-1.45-.63-2.55s0-1.91.63-2.56a2.37,2.37,0,0,1,1.73-.7,2.25,2.25,0,0,1,2.36,2H458.9a1.06,1.06,0,0,0-1.08-.91,1,1,0,0,0-.8.34c-.24.27-.31.57-.31,1.81s.07,1.54.31,1.81a1.11,1.11,0,0,0,1.88-.58h1.27A2.27,2.27,0,0,1,457.81,61.54Z" transform="translate(-12.63 0)" style="fill:#58595b"/><path d="M461.25,61.48V55.07h1.25v6.41Z" transform="translate(-12.63 0)" style="fill:#58595b"/><path d="M466.44,56.19v5.29h-1.25V56.19h-1.67V55.07h4.6v1.12Z" transform="translate(-12.63 0)" style="fill:#58595b"/><path d="M471.58,58.85v2.63h-1.24V58.85l-1.93-3.78h1.36l1.2,2.59,1.18-2.59h1.36Z" transform="translate(-12.63 0)" style="fill:#58595b"/><path d="M436.21,70.48h-2.68V64.07h2.57a1.75,1.75,0,0,1,2,1.8,1.5,1.5,0,0,1-.8,1.33,1.48,1.48,0,0,1,.89,1.44A1.77,1.77,0,0,1,436.21,70.48Zm-.2-5.29h-1.23v1.47H436c.53,0,.82-.29.82-.73A.72.72,0,0,0,436,65.19Zm.08,2.6h-1.31v1.58h1.31a.76.76,0,0,0,.83-.8A.75.75,0,0,0,436.09,67.79Z" transform="translate(-12.63 0)" style="fill:#58595b"/><path d="M441.71,70.54a2.24,2.24,0,0,1-2.36-2.25V64.07h1.25v4.17a1.12,1.12,0,1,0,2.23,0V64.07h1.24v4.22A2.23,2.23,0,0,1,441.71,70.54Z" transform="translate(-12.63 0)" style="fill:#58595b"/><path d="M445.46,70.48V64.07h1.26v6.41Z" transform="translate(-12.63 0)" style="fill:#58595b"/><path d="M448.21,70.48V64.07h1.25v5.3h2.91v1.11Z" transform="translate(-12.63 0)" style="fill:#58595b"/><path d="M457.39,69.87a2.34,2.34,0,0,1-1.69.61h-2.32V64.07h2.32a2.34,2.34,0,0,1,1.69.61,3.24,3.24,0,0,1,.65,2.57A3.35,3.35,0,0,1,457.39,69.87Zm-.87-4.29a1.13,1.13,0,0,0-.94-.39h-.94v4.18h.94a1.14,1.14,0,0,0,.94-.4c.23-.29.27-.75.27-1.72S456.75,65.87,456.52,65.58Z" transform="translate(-12.63 0)" style="fill:#58595b"/><path d="M459.31,70.48V64.07h1.26v6.41Z" transform="translate(-12.63 0)" style="fill:#58595b"/><path d="M465.85,70.48l-2.54-3.93v3.93h-1.25V64.07h1.12L465.72,68V64.07H467v6.41Z" transform="translate(-12.63 0)" style="fill:#58595b"/><path d="M472.41,69.81a2.54,2.54,0,0,1-3.54,0c-.65-.65-.63-1.45-.63-2.55s0-1.91.63-2.56a2.33,2.33,0,0,1,1.73-.7,2.3,2.3,0,0,1,2.41,2h-1.26a1.09,1.09,0,0,0-1.15-.94,1,1,0,0,0-.8.35c-.24.27-.31.56-.31,1.8s.07,1.54.31,1.81a1.06,1.06,0,0,0,.8.33,1.18,1.18,0,0,0,.89-.36,1.22,1.22,0,0,0,.29-.86V68H470.6v-1H473v.93A2.56,2.56,0,0,1,472.41,69.81Z" transform="translate(-12.63 0)" style="fill:#58595b"/><g style="clip-path:url(#clip-path)"><path d="M43,46.08a23,23,0,1,0-23-23,23,23,0,0,0,23,23" transform="translate(-12.63 0)" style="fill:#185e8e"/><path d="M148,46.08a23,23,0,1,0-23-23,23,23,0,0,0,23,23" transform="translate(-12.63 0)" style="fill:#fbb040"/><path d="M253.25,46.08a23,23,0,1,0-23-23,23,23,0,0,0,23,23" transform="translate(-12.63 0)" style="fill:#5d3168"/><path d="M349.65,46.08a23,23,0,1,0-23-23,23,23,0,0,0,23,23" transform="translate(-12.63 0)" style="fill:#58595b"/><path d="M453.17,46.08a23,23,0,1,0-23-23,23,23,0,0,0,23,23" transform="translate(-12.63 0)" style="fill:#17bfd6"/><path d="M41,18.28a2.47,2.47,0,0,1-3.15-2.34A2.48,2.48,0,0,1,41,18.28m0-5.2a1.57,1.57,0,0,1-1.87-1.39A1.57,1.57,0,0,1,41,13.08m1.43.94a1.65,1.65,0,0,1,2-1.47,1.64,1.64,0,0,1-2,1.47m0,5.6a2.47,2.47,0,0,1,3.14-2.34,2.46,2.46,0,0,1-3.14,2.34M43,9a13.78,13.78,0,0,1,13,9.49,14.84,14.84,0,0,0-13.55,5.57V21c2.51.39,4.52-1.39,4.49-4.22a.68.68,0,0,0-.45-.62,4,4,0,0,0-4,.65V15.36A3,3,0,0,0,45.75,12a.66.66,0,0,0-.44-.63,3.19,3.19,0,0,0-2.9.3V10.33a.67.67,0,0,0-.66-.67.66.66,0,0,0-.65.67v.53a3.12,3.12,0,0,0-2.88-.32.66.66,0,0,0-.44.62,3,3,0,0,0,3.31,3.26.92.92,0,0,0,0,.24v.86a3.64,3.64,0,0,0-2.36-1A5,5,0,0,0,37,14.8a.66.66,0,0,0-.44.63c0,2.89,2.05,4.63,4.56,4.2v.05a3.49,3.49,0,0,0,0,.46.37.37,0,0,0,0,.11v4A14.91,14.91,0,0,0,30,18.38,13.79,13.79,0,0,1,43,9m4.39,27.36A13.08,13.08,0,0,1,44.8,37a9.84,9.84,0,0,1,11.87-12.9,14.06,14.06,0,0,1-.44,2.66,7.22,7.22,0,0,0-9.33,7,7.47,7.47,0,0,0,.46,2.61M55.83,28a14,14,0,0,1-7.25,7.87A6,6,0,0,1,55.83,28M29.63,26.4a14.18,14.18,0,0,1-.38-2.69,9.51,9.51,0,0,1,5.27,1.59A10.09,10.09,0,0,1,39,33.13c0,.68,0,1,.08,2a14.21,14.21,0,0,0,.19,1.46,13.33,13.33,0,0,1-3-1.28,7.34,7.34,0,0,0-6.64-8.9m5.44,8.13a14.12,14.12,0,0,1-5-6.75,6,6,0,0,1,5,6.75m4.53-4.91a11.16,11.16,0,0,0-10.35-7.25,14.27,14.27,0,0,1,.37-2.67A13.76,13.76,0,0,1,40.9,26.33a15.42,15.42,0,0,0-1.3,3.29m3.48,7.47a14,14,0,0,1-2.38-.19,14.34,14.34,0,0,1,1.53-10.24,13.67,13.67,0,0,1,14.13-6.77,14.79,14.79,0,0,1,.35,2.79h0c-8.41-2-15.77,6-13.25,14.39h-.38M58,23.34a15.07,15.07,0,1,0-30,1.09,15,15,0,0,0,30-1.09" transform="translate(-12.63 0)" style="fill:#fff"/></g><polygon points="34.93 11.18 36.06 11.85 35.4 13.01 34.27 12.33 34.93 11.18" style="fill:#fff"/><polygon points="37.37 17.2 36.7 18.36 35.58 17.68 36.24 16.53 37.37 17.2" style="fill:#fff"/><polygon points="21.36 13.18 22.49 13.86 21.83 15.01 20.7 14.34 21.36 13.18" style="fill:#fff"/><polygon points="23.63 17.7 22.97 18.85 21.84 18.18 22.5 17.02 23.63 17.7" style="fill:#fff"/><g style="clip-path:url(#clip-path)"><path d="M249.33,37.49a2,2,0,0,0-.52-2.34c-2.22-1.68-3.35-5.15-3.37-5.18a.53.53,0,0,0-.67-.35.54.54,0,0,0-.35.68c.06.15,1.23,3.85,3.75,5.76a.83.83,0,0,1,.22.84l-2.8,1-2.55-7a.55.55,0,1,0-1,.38l2.72,7.48a.54.54,0,0,0,.71.33L249,37.81a.49.49,0,0,0,.31-.32M261,14.69l3-5.12a.51.51,0,0,0-.18-.73A.53.53,0,0,0,263,9l-3,5.12a.53.53,0,0,0,.19.74.62.62,0,0,0,.48,0,.3.3,0,0,0,.25-.22m8.72,10a.52.52,0,0,0-.34-.68l-5.56-2a.52.52,0,0,0-.68.33.5.5,0,0,0,.33.68L269,25a.69.69,0,0,0,.38,0,.51.51,0,0,0,.31-.33m-.12-8.93a.55.55,0,0,0-.72-.33l-5.57,2a.55.55,0,1,0,.38,1l5.57-2a.57.57,0,0,0,.34-.71M259.83,29l-10-1.49L246.69,19a.22.22,0,0,0,0-.14l6.65-7.53ZM237,27.4a4.16,4.16,0,0,1,2.34-5.53l6.43-2.34,3,8.26-6.43,2.34A4.2,4.2,0,0,1,237,27.4M253.69,9.73a.56.56,0,0,0-.52.19l-7.49,8.5L239,20.86a5.21,5.21,0,0,0-3,6.91,5.21,5.21,0,0,0,6.73,3.37l7-2.53,10.93,1.67a.5.5,0,0,0,.29,0,.6.6,0,0,0,.23-.17.52.52,0,0,0,.1-.54l-7.08-19.46a.64.64,0,0,0-.43-.35m5.23,13.18-2.09-5.73A3,3,0,0,1,260,19.26a3,3,0,0,1-1.12,3.65m-3-6.62-.53.19,2.86,7.86.52-.19a4,4,0,0,0,2.31-5.31,4,4,0,0,0-5.16-2.55" transform="translate(-12.63 0)" style="fill:#fff"/><path d="M453.54,24.33a2.9,2.9,0,1,1,2.8-2.89,2.84,2.84,0,0,1-2.8,2.89m0-6.95a4.06,4.06,0,1,0,3.92,4.06,4,4,0,0,0-3.92-4.06" transform="translate(-12.63 0)" style="fill:#fff"/><path d="M465.29,32.26,463,31.13a.57.57,0,0,0-.66.14,11.61,11.61,0,0,1-5.85,3.7.58.58,0,0,0-.42.52l-.24,2.76h-4l-.21-2.64a.59.59,0,0,0-.44-.52,11.54,11.54,0,0,1-6-3.4.55.55,0,0,0-.64-.12l-2.43,1.16-2-3.59,2.09-1.51a.58.58,0,0,0,.22-.66,12.58,12.58,0,0,1-.17-7.09.58.58,0,0,0-.21-.63l-2.21-1.56,2-3.6,2.31,1.13a.54.54,0,0,0,.67-.16,11.65,11.65,0,0,1,5.85-3.7.58.58,0,0,0,.42-.51l.22-2.74h4l.22,2.63a.55.55,0,0,0,.44.52,11.58,11.58,0,0,1,6,3.4.54.54,0,0,0,.63.12L465,13.62l2,3.59-2.1,1.51a.59.59,0,0,0-.21.66,12.58,12.58,0,0,1,.16,7.09.62.62,0,0,0,.22.64l2.21,1.58Zm.75-5.9a13.8,13.8,0,0,0-.16-7l2.21-1.56a.59.59,0,0,0,.17-.77l-2.52-4.51a.56.56,0,0,0-.72-.24l-2.57,1.23a12.64,12.64,0,0,0-5.89-3.33l-.22-2.74a.57.57,0,0,0-.56-.53h-5a.56.56,0,0,0-.56.53l-.24,2.9A12.65,12.65,0,0,0,444.21,14l-2.4-1.16a.56.56,0,0,0-.73.23l-2.52,4.52a.59.59,0,0,0,.17.76L441,20a13.69,13.69,0,0,0,.16,7L439,28.51a.59.59,0,0,0-.16.77l2.51,4.51a.57.57,0,0,0,.73.24l2.54-1.24a12.75,12.75,0,0,0,5.89,3.34l.25,2.74a.56.56,0,0,0,.56.53h5a.57.57,0,0,0,.56-.53l.23-2.9a12.65,12.65,0,0,0,5.74-3.62l2.4,1.16a.54.54,0,0,0,.72-.23l2.52-4.52a.58.58,0,0,0-.17-.76Z" transform="translate(-12.63 0)" style="fill:#fff"/><path d="M458.4,28.76A3.25,3.25,0,0,0,455,26.07H452.1a3.26,3.26,0,0,0-3.43,2.69,7.72,7.72,0,0,1-.54-10.64,7.09,7.09,0,0,1,10.27-.56A7.72,7.72,0,0,1,459,28.2a5.8,5.8,0,0,1-.55.56m-4.86,1.95a7,7,0,0,1-3.77-1.1V29c0-.95,1-1.74,2.32-1.74H455c1.27,0,2.31.79,2.31,1.74v.64a7,7,0,0,1-3.74,1.1m0-16.23a8.55,8.55,0,0,0-8.4,8.7,8.4,8.4,0,1,0,16.8,0,8.55,8.55,0,0,0-8.4-8.7" transform="translate(-12.63 0)" style="fill:#fff"/><path d="M349.06,37.24a.21.21,0,0,1-.15,0c-2.48-.68-2.37-3.05-2.3-5a8,8,0,0,0-.11-2.41,2.86,2.86,0,0,0-1-1.28,4.23,4.23,0,0,1-1.11-1.4,5.15,5.15,0,0,1-.37-2.22,4.55,4.55,0,0,0-.11-1.25c-.15-.64-.45-.79-1-1.05a9.34,9.34,0,0,1-.89-.45,10.94,10.94,0,0,1-1.11-.87,4.77,4.77,0,0,0-.7-.56,2.5,2.5,0,0,0-1.15-.49c-.11,0-.22,0-.33-.08-1.44-.38-1.78-1.62-2.07-2.6a12,12,0,0,1-.56-4.22.56.56,0,1,1,1.11.07,11.19,11.19,0,0,0,.52,3.85c.3,1.09.52,1.58,1.26,1.81a1.54,1.54,0,0,1,.29.07,4.6,4.6,0,0,1,1.56.68,6.54,6.54,0,0,1,.74.64,5.24,5.24,0,0,0,1,.75,3.69,3.69,0,0,0,.74.38A2.45,2.45,0,0,1,345,23.45a6.62,6.62,0,0,1,.11,1.47,4.12,4.12,0,0,0,.26,1.73,3.08,3.08,0,0,0,.85,1,4,4,0,0,1,1.29,1.81,8.94,8.94,0,0,1,.19,2.82c-.08,1.55,0,2.68.55,3.32a2.75,2.75,0,0,1,.26-2,3.45,3.45,0,0,1,1.59-1,3.81,3.81,0,0,0,.93-.49,2.25,2.25,0,0,0,.85-1.7l0-.11a2.15,2.15,0,0,1,1.18-1.36,5.87,5.87,0,0,0,.52-.34,4.85,4.85,0,0,0,1.56-2.82,1,1,0,0,0-.26-.72,4.48,4.48,0,0,0-1.15-.64A7,7,0,0,1,353,24,4.56,4.56,0,0,1,351.83,23a4,4,0,0,0-.59-.64,2.64,2.64,0,0,0-1.33-.38l-.85-.11a13.72,13.72,0,0,1-1.37-.46c-.41-.15-.78-.3-1.15-.41a5,5,0,0,0-2.48.15c-1.07.23-1.78.3-2.15-1.17-.07-.26-.33-.38-.85-.53a1.71,1.71,0,0,1-1.48-2.3,2.67,2.67,0,0,1,1.93-1.95,2.83,2.83,0,0,1,2,.11,8.56,8.56,0,0,1,1.63-2.9c1.07-1.4,1.89-1.55,3.52-1.51H349a1.31,1.31,0,0,0-.26-.19,2.17,2.17,0,0,1-.67-.6,6.21,6.21,0,0,1-.55-1.13c-.34-.79-.6-1.32-1-1.4a.6.6,0,0,1-.48-.68.57.57,0,0,1,.66-.49c1.11.19,1.56,1.25,1.89,2.08a6.26,6.26,0,0,0,.45.9,4,4,0,0,0,.4.34,2,2,0,0,1,.86.94,1,1,0,0,1-.12.91,1.4,1.4,0,0,1-1.33.41h-.07c-1.37,0-1.82,0-2.63,1.06a6.26,6.26,0,0,0-1.56,3.16.5.5,0,0,1-.37.49.56.56,0,0,1-.59-.11,1.78,1.78,0,0,0-1.74-.38,1.67,1.67,0,0,0-1.15,1.17c-.14.68,0,.72.71.91A2.05,2.05,0,0,1,343,19.6c.08.3.11.42.15.45s.45-.07.67-.11a6,6,0,0,1,3-.11,7,7,0,0,1,1.26.45,8.4,8.4,0,0,0,1.22.42l.7.11a3.42,3.42,0,0,1,1.93.64,5.35,5.35,0,0,1,.74.79,3.37,3.37,0,0,0,.81.79l.67.34a4.24,4.24,0,0,1,1.44.87,2.16,2.16,0,0,1,.63,1.58,6,6,0,0,1-2,3.66c-.22.18-.48.34-.67.49-.37.22-.59.37-.66.64l0,.11a3.34,3.34,0,0,1-1.3,2.34,6,6,0,0,1-1.18.64,3.3,3.3,0,0,0-1.15.68c-.22.26,0,1.16,0,1.69,0,.23.07.45.11.64a.5.5,0,0,1-.18.49c.11,0,0,0-.15,0" transform="translate(-12.63 0)" style="fill:#fff"/><path d="M349.65,7.17A15.67,15.67,0,0,0,334.14,23a15.51,15.51,0,1,0,31,0A15.67,15.67,0,0,0,349.65,7.17m0,32.75A16.84,16.84,0,0,1,333,23a16.66,16.66,0,1,1,33.32,0,16.84,16.84,0,0,1-16.66,17" transform="translate(-12.63 0)" style="fill:#fff"/><path d="M362.57,24.73a2.16,2.16,0,0,1-1.26-.42c-1.33-.94-1.7-3.13-1.78-3.54a14.06,14.06,0,0,1,0-2.52c0-1.47.11-3-.6-4.11a4,4,0,0,0-.7-.76c-.44-.37-.92-.79-.85-1.39a1.34,1.34,0,0,1,.59-.83,4.93,4.93,0,0,0-1.07-.41c-1-.31-2.3-.68-2.22-2.72a.58.58,0,1,1,1.15,0c0,1.13.4,1.24,1.4,1.55a4,4,0,0,1,2.19,1.24.64.64,0,0,1,.11.49.6.6,0,0,1-.34.41,2.63,2.63,0,0,0-.66.38c.11.11.26.26.4.38a4.07,4.07,0,0,1,1,1,8.48,8.48,0,0,1,.74,4.79,11.61,11.61,0,0,0,0,2.3,4.28,4.28,0,0,0,1.3,2.75,1,1,0,0,0,.93.15,1.86,1.86,0,0,0,.74-.68c.33-.41.66-.9,1.25-.86s1,.56,1.3.94a.56.56,0,0,1-.15.79.55.55,0,0,1-.78-.15c-.22-.3-.33-.42-.4-.45a1.89,1.89,0,0,0-.37.41,2.62,2.62,0,0,1-1.41,1.09.88.88,0,0,1-.48.12" transform="translate(-12.63 0)" style="fill:#fff"/><path d="M162,33.64a1.25,1.25,0,0,1-1.25,1.24h-7.23V29.79a.63.63,0,0,0-1.25,0v5.09h-16A1.25,1.25,0,0,1,135,33.64v-4a1.25,1.25,0,0,1,1.25-1.24H157v5.09a.63.63,0,0,0,.63.62.63.63,0,0,0,.63-.62V28.4h2.51A1.25,1.25,0,0,1,162,29.64ZM138.93,22.55a1.26,1.26,0,0,1,1.26-1.24h16.64a1.26,1.26,0,0,1,1.26,1.24v3.39a1.25,1.25,0,0,1-1.26,1.23H140.19a1.25,1.25,0,0,1-1.26-1.23Zm4.71-6.94a4.14,4.14,0,0,1,1.63-3.3,2.53,2.53,0,0,1,1.43-.45,2.74,2.74,0,0,1,.93.17,2.66,2.66,0,0,0,1.76,0,2.52,2.52,0,0,1,2.36.28,4.14,4.14,0,0,1,1.63,3.3c0,2.5-2.51,3.85-4.87,3.85s-4.87-1.35-4.87-3.85m2.42-6.81a.89.89,0,0,1-1.18.38,5.48,5.48,0,0,1-1.58-1.47.3.3,0,0,1,.26-.47,5.41,5.41,0,0,1,2.12.4.86.86,0,0,1,.38,1.16m14.7,18.37H159a2.34,2.34,0,0,0,.34-1.23V22.55a2.48,2.48,0,0,0-2.51-2.47h-4.69a.15.15,0,0,1-.07-.29,4.7,4.7,0,0,0,2.56-4.18,5.32,5.32,0,0,0-2.16-4.31,3.75,3.75,0,0,0-3.28-.5.17.17,0,0,1-.21-.14,2.3,2.3,0,0,1,1-2.4.62.62,0,0,0,.19-.82.64.64,0,0,0-.92-.18,3.45,3.45,0,0,0-1.39,1.88.16.16,0,0,1-.25.08L147.32,9a2.07,2.07,0,0,0-1.06-2.47h0c-.78-.39-3.63-1.09-4.3.19-.3.57-.06,1.3.7,2.17a6.3,6.3,0,0,0,1.64,1.37,2.19,2.19,0,0,0,2.32-.23,2.81,2.81,0,0,1,.4.33.15.15,0,0,1-.12.26,3.79,3.79,0,0,0-2.35.67,5.32,5.32,0,0,0-2.16,4.31A4.7,4.7,0,0,0,145,19.79a.15.15,0,0,1-.07.29h-4.69a2.48,2.48,0,0,0-2.51,2.47v3.39a2.34,2.34,0,0,0,.34,1.23h-1.76a2.48,2.48,0,0,0-2.51,2.47v4a2.48,2.48,0,0,0,2.51,2.47h24.5a2.48,2.48,0,0,0,2.51-2.47v-4a2.48,2.48,0,0,0-2.51-2.47" transform="translate(-12.63 0)" style="fill:#fff"/><path d="M147.57,32.41h-7.85a.63.63,0,0,0-.63.62.62.62,0,0,0,.63.61h7.85a.62.62,0,0,0,.63-.61.63.63,0,0,0-.63-.62" transform="translate(-12.63 0)" style="fill:#fff"/><path d="M149.92,29.64H137.36a.62.62,0,0,0-.63.61.63.63,0,0,0,.63.62h12.56a.63.63,0,0,0,.63-.62.62.62,0,0,0-.63-.61" transform="translate(-12.63 0)" style="fill:#fff"/><path d="M154.08,26.46a.56.56,0,1,0,0-1.11,1.19,1.19,0,1,1,1.21-1.19,1.13,1.13,0,0,1-.24.71.55.55,0,0,0,.11.78.56.56,0,0,0,.79-.11,2.22,2.22,0,0,0,.47-1.38,2.34,2.34,0,1,0-2.34,2.3" transform="translate(-12.63 0)" style="fill:#fff"/><path d="M147.49,24.88h2.35a.56.56,0,1,0,0-1.12h-2.35a.56.56,0,1,0,0,1.12" transform="translate(-12.63 0)" style="fill:#fff"/><path d="M141.05,24.88h4.61a.56.56,0,1,0,0-1.12h-4.61a.56.56,0,1,0,0,1.12" transform="translate(-12.63 0)" style="fill:#fff"/><path d="M149.23,17.84a.63.63,0,0,0-.76-.45,2.34,2.34,0,0,1-1.89-.38,1.82,1.82,0,0,1-.85-1.28.62.62,0,0,0-.69-.55.61.61,0,0,0-.56.67A3.06,3.06,0,0,0,145.85,18a3.66,3.66,0,0,0,2.1.67,3.83,3.83,0,0,0,.82-.1.62.62,0,0,0,.46-.75" transform="translate(-12.63 0)" style="fill:#fff"/></g></g></g></svg>